<?xml version="1.0" standalone="no"?>
<!DOCTYPE svg PUBLIC "-//W3C//DTD SVG 1.1//EN" "http://www.w3.org/Graphics/SVG/1.1/DTD/svg11.dtd" >
<svg xmlns="http://www.w3.org/2000/svg">
<metadata></metadata>
<defs>
<font id="gt_haptik_regularregular" horiz-adv-x="1362" >
<font-face units-per-em="2048" ascent="1638" descent="-410" />
<missing-glyph horiz-adv-x="616" />
<glyph unicode="IJ" horiz-adv-x="1059" d="M171 0v1491h191v-1491h-191zM482 0v191q57 0 101.5 22.5t74.5 61t46 88.5t16 108v1020h192v-1020q0 -104 -30 -191t-85 -149t-135.5 -96.5t-179.5 -34.5z" />
<glyph unicode="ij" horiz-adv-x="1002" d="M106 1372q0 61 41.5 102.5t104.5 41.5q61 0 102.5 -41.5t41.5 -102.5q0 -62 -41.5 -103.5t-102.5 -41.5q-62 0 -104 41.5t-42 103.5zM160 0v1065h183v-1065h-183zM396 -258h9q77 0 124.5 14t74 41.5t36.5 65t10 86.5v1116h183v-1116q0 -96 -22.5 -168.5t-72.5 -120.5 t-132 -71.5t-201 -23.5h-9v177zM596 1372q0 61 41.5 102.5t104.5 41.5q61 0 102.5 -41.5t41.5 -102.5q0 -62 -41.5 -103.5t-102.5 -41.5q-62 0 -104 41.5t-42 103.5z" />
<glyph unicode="&#xfb01;" horiz-adv-x="1268" d="M32 905v160h196v59q0 106 25.5 180t70 120t107.5 66t140 20q45 0 83.5 -4t80.5 -10v-169q-40 6 -74.5 10.5t-66.5 4.5q-98 0 -140.5 -47t-42.5 -171v-59h309v-160h-309v-905h-183v905h-196zM874 1372q0 61 41.5 102.5t102.5 41.5q62 0 103.5 -41.5t41.5 -102.5 q0 -62 -41.5 -103.5t-103.5 -41.5q-61 0 -102.5 41.5t-41.5 103.5zM927 0v1065h183v-1065h-183z" />
<glyph unicode="&#xfb02;" horiz-adv-x="1252" d="M32 905v160h196v59q0 106 25.5 180t70 120t107.5 66t140 20q45 0 83.5 -4t80.5 -10v-169q-40 6 -74.5 10.5t-66.5 4.5q-98 0 -140.5 -47t-42.5 -171v-59h309v-160h-309v-905h-183v905h-196zM916 0v1491h187v-1491h-187z" />
<glyph horiz-adv-x="0" />
<glyph unicode="&#xd;" horiz-adv-x="709" />
<glyph horiz-adv-x="0" />
<glyph horiz-adv-x="0" />
<glyph unicode=" "  horiz-adv-x="616" />
<glyph unicode="&#x09;" horiz-adv-x="616" />
<glyph unicode="&#xa0;" horiz-adv-x="616" />
<glyph unicode="!" horiz-adv-x="672" d="M171 166q0 71 47.5 120t118.5 49t119 -49.5t48 -119.5t-48.5 -118t-118.5 -48q-71 0 -118.5 48t-47.5 118zM240 469v1022h193v-1022h-193z" />
<glyph unicode="&#x22;" horiz-adv-x="756" d="M149 947v544h156v-544h-156zM451 947v544h156v-544h-156z" />
<glyph unicode="#" horiz-adv-x="1211" d="M63 453l18 139h224l40 307h-221l18 138h222l64 454h147l-63 -454h268l63 454h147l-63 -454h221l-18 -138h-223l-43 -307h222l-19 -139h-221l-64 -453h-146l65 453h-270l-65 -453h-144l63 453h-222zM449 592h271l40 307h-268z" />
<glyph unicode="$" horiz-adv-x="1147" d="M106 356l169 89q53 -213 229 -247v475q-68 24 -135.5 55.5t-122.5 79.5t-88.5 116t-33.5 165q0 87 29.5 156.5t81.5 120t121.5 80.5t147.5 41v174h139v-174q148 -19 252 -112t146 -241l-181 -73q-28 104 -83 159.5t-134 72.5v-464q81 -28 150 -62t120.5 -82.5t80 -114.5 t28.5 -157q0 -96 -29.5 -168t-82 -123t-121.5 -80.5t-146 -37.5v-175h-139v175q-61 8 -122 30.5t-114 64t-95.5 104.5t-66.5 153zM315 1086q0 -88 52 -132.5t137 -77.5v419q-93 -17 -141 -75.5t-48 -133.5zM643 196q89 14 138.5 67.5t49.5 143.5q0 46 -15 81.5t-40.5 61 t-60 44t-72.5 32.5v-430z" />
<glyph unicode="%" horiz-adv-x="1752" d="M75 1146q0 73 26.5 136.5t72 109t108 72.5t137.5 27q73 0 137 -27t109.5 -72.5t72 -109.5t26.5 -136q0 -75 -26.5 -138t-72 -108.5t-109.5 -72t-137 -26.5q-75 0 -137.5 26.5t-108 72t-72 108.5t-26.5 138zM215 1146q0 -89 57.5 -147t146.5 -58q90 0 147.5 58t57.5 147 q0 90 -57.5 147t-147.5 57q-89 0 -146.5 -57t-57.5 -147zM268 87l1114 1404l107 -85l-1115 -1406zM988 345q0 73 26.5 136.5t73 109t108.5 73t137 27.5q73 0 137 -27.5t110 -73t72.5 -109.5t26.5 -136q0 -75 -26.5 -137.5t-72.5 -108.5t-110 -72.5t-137 -26.5 q-75 0 -137 26.5t-108.5 72.5t-73 108.5t-26.5 137.5zM1128 345q0 -89 58 -147t147 -58q90 0 147.5 58t57.5 147q0 90 -57.5 147t-147.5 57q-89 0 -147 -57t-58 -147z" />
<glyph unicode="&#x26;" horiz-adv-x="1469" d="M160 398q0 84 24.5 149t65 117t93.5 94.5t113 80.5l-54 60q-50 55 -86.5 124.5t-36.5 158.5q0 71 23.5 131.5t68 105t108.5 71t145 26.5q79 0 143 -26.5t108.5 -72t69 -106.5t24.5 -131q0 -65 -20 -119.5t-53.5 -99.5t-77 -83.5t-88.5 -70.5l282 -317q17 51 27.5 103.5 t19.5 101.5l172 -35q-12 -85 -32.5 -166t-52.5 -155l185 -209l-144 -128l-143 162q-71 -87 -173 -138.5t-249 -51.5q-118 0 -204 34.5t-143.5 92t-86 134t-28.5 163.5zM352 402q0 -48 16 -93t48.5 -79t84.5 -54t125 -20q106 0 178 40t121 107l-350 400q-110 -75 -166.5 -141 t-56.5 -160zM471 1182q0 -48 23.5 -90t56.5 -82l61 -69q70 49 118 104.5t48 132.5q0 75 -45 116t-107 41q-65 0 -110 -42.5t-45 -110.5z" />
<glyph unicode="'" horiz-adv-x="453" d="M149 947v544h156v-544h-156z" />
<glyph unicode="(" horiz-adv-x="685" d="M85 667q0 294 105.5 555.5t299.5 460.5l122 -112q-86 -95 -151 -195t-108.5 -210.5t-66 -234.5t-22.5 -264q0 -281 88.5 -498.5t259.5 -406.5l-122 -111q-194 197 -299.5 459t-105.5 557z" />
<glyph unicode=")" horiz-adv-x="674" d="M75 -238q170 189 258.5 406.5t88.5 498.5q0 140 -23 264t-66 234.5t-108 210.5t-150 195l121 112q193 -198 299 -460t106 -556q0 -295 -105.5 -556.5t-299.5 -459.5z" />
<glyph unicode="*" horiz-adv-x="929" d="M106 1182l47 133l243 -82v258h136v-258l246 82l47 -133l-250 -79l151 -207l-106 -83l-156 209l-153 -209l-108 83l151 207z" />
<glyph unicode="+" d="M140 581v192h446v445h192v-445h445v-192h-445v-445h-192v445h-446z" />
<glyph unicode="," horiz-adv-x="621" d="M36 -345l371 664l151 -85l-373 -660z" />
<glyph unicode="-" horiz-adv-x="1337" d="M171 563v191h996v-191h-996z" />
<glyph unicode="." horiz-adv-x="674" d="M171 166q0 71 47.5 120t118.5 49t119 -49.5t48 -119.5t-48.5 -118t-118.5 -48q-71 0 -118.5 48t-47.5 118z" />
<glyph unicode="/" horiz-adv-x="1561" d="M43 -4l1318 1601l128 -106l-1318 -1601z" />
<glyph unicode="0" horiz-adv-x="1656" d="M128 746q0 160 54 296t149 236t222.5 156.5t275.5 56.5q147 0 274.5 -56.5t222.5 -156.5t149 -236.5t54 -295.5q0 -160 -54 -297.5t-149 -236.5t-222.5 -155.5t-274.5 -56.5t-275 56.5t-223 155.5t-149 236.5t-54 297.5zM319 746q0 -120 39.5 -221t108 -174.5t161 -116.5 t201.5 -43q108 0 200.5 43t160.5 116.5t107.5 174.5t39.5 221q0 117 -39.5 218t-107.5 175.5t-160.5 117t-200.5 42.5t-201 -42.5t-161.5 -117t-108 -176t-39.5 -217.5z" />
<glyph unicode="1" horiz-adv-x="996" d="M85 990l501 501h176v-1491h-191v1207l-354 -353z" />
<glyph unicode="2" horiz-adv-x="1149" d="M75 1161q32 65 79 125t105 105.5t131.5 72.5t160.5 27q98 0 185 -35t150.5 -96t99.5 -146.5t36 -182.5q0 -114 -42.5 -207.5t-101.5 -154.5l-465 -478h609v-191h-896v168l618 635q40 43 63.5 99.5t23.5 119.5q0 62 -21.5 113.5t-59 87t-86 56t-103.5 20.5 q-114 0 -200 -76.5t-131 -196.5z" />
<glyph unicode="3" horiz-adv-x="1113" d="M106 345l166 128q24 -126 99.5 -204t189.5 -78q97 0 165.5 62t68.5 171q0 108 -66.5 166t-155.5 62h-89v191h89q89 5 155.5 64.5t66.5 161.5q0 53 -19.5 95.5t-51 73t-74.5 46t-89 15.5q-109 0 -184.5 -78.5t-104.5 -194.5l-164 133q21 68 63 128.5t99.5 105t129 71.5 t153.5 27q90 0 168 -31t137.5 -86t93.5 -133t34 -172q0 -108 -45 -190t-112 -131q75 -53 116 -136.5t41 -192.5q0 -100 -34 -177.5t-91.5 -131t-135 -82t-167.5 -28.5q-85 0 -158.5 25.5t-132 71t-99 109.5t-62.5 139z" />
<glyph unicode="4" horiz-adv-x="1469" d="M63 303v176l855 1012h159v-997h297v-191h-297v-303h-191v303h-823zM332 494h554v660z" />
<glyph unicode="5" horiz-adv-x="1173" d="M128 149l98 170q77 -65 159 -96.5t162 -31.5q63 0 121 19.5t101.5 58t68 97t24.5 134.5q0 147 -85.5 225t-227.5 78q-79 0 -167 -23.5t-169 -63.5v775h844v-192h-652v-323q16 4 57.5 11t98.5 7q110 0 201.5 -36t157.5 -102t101.5 -157.5t35.5 -202.5q0 -124 -43 -216.5 t-115 -155.5t-165 -93.5t-191 -30.5q-108 0 -218 37.5t-197 111.5z" />
<glyph unicode="6" horiz-adv-x="1245" d="M149 652q0 136 27 284t90.5 271.5t172 203.5t272.5 80q126 0 207 -36t137 -79l-105 -158q-49 34 -106.5 57.5t-138.5 23.5q-79 0 -140 -34t-104.5 -90.5t-66 -131t-24.5 -153.5v-4q69 47 141 69.5t143 22.5q102 0 191.5 -35.5t154.5 -98t102.5 -151t37.5 -197.5 q0 -108 -37.5 -199.5t-103.5 -156.5t-156.5 -102.5t-194.5 -37.5q-138 0 -238.5 56.5t-159.5 146.5q-53 81 -77 190t-24 259zM352 486q0 -71 24 -125t66 -92.5t95 -58t113 -19.5q63 0 119 21.5t95 62t61 96t22 123.5q0 134 -81.5 213t-213.5 79q-65 0 -121 -21t-95.5 -62 t-61.5 -96.5t-22 -120.5z" />
<glyph unicode="7" horiz-adv-x="1156" d="M85 1299v192h986v-184l-675 -1307h-215l669 1299h-765z" />
<glyph unicode="8" horiz-adv-x="1140" d="M128 417q0 108 43.5 191t124.5 138q-77 53 -122.5 132.5t-45.5 194.5q0 96 32.5 173t91.5 131t141 84t178 30t178 -30t140 -84t91.5 -130t33.5 -170q0 -207 -177 -331q177 -126 177 -333q0 -94 -33.5 -169.5t-91.5 -130t-140 -84t-178 -29.5t-178 28.5t-141 83t-91.5 132 t-32.5 173.5zM319 417q0 -102 70.5 -164t183.5 -62t181.5 62t68.5 164q0 55 -20.5 99.5t-56 74t-80 44.5t-93.5 15t-94.5 -15t-81 -44.5t-57 -73.5t-21.5 -100zM319 1073q0 -55 21.5 -98.5t57 -73t81 -45t94.5 -15.5t93.5 15.5t80 45t56 73t20.5 98.5q0 102 -69 164t-181 62 q-113 0 -183.5 -62t-70.5 -164z" />
<glyph unicode="9" horiz-adv-x="1209" d="M106 994q0 108 37.5 200t103.5 157t155.5 102.5t193.5 37.5q136 0 235.5 -56.5t160.5 -145.5q57 -88 79 -200.5t22 -265.5q0 -139 -20.5 -284t-81 -265.5t-173.5 -197t-300 -76.5q-104 0 -184 24.5t-157 67.5l81 174q140 -75 266 -75q92 0 159 36.5t110.5 95.5t62 132 t16.5 146v2q-69 -49 -139.5 -69t-140.5 -20q-102 0 -191.5 34.5t-154.5 97.5t-102.5 151.5t-37.5 196.5zM298 996q0 -134 82 -212.5t212 -78.5q65 0 121 21.5t96.5 62t62.5 94.5t22 123q0 70 -24 124.5t-66 92t-96 57t-114 19.5q-64 0 -118 -21.5t-93.5 -62t-62 -95.5 t-22.5 -124z" />
<glyph unicode=":" horiz-adv-x="674" d="M171 166q0 71 47.5 120t118.5 49t119 -49.5t48 -119.5t-48.5 -118t-118.5 -48q-71 0 -118.5 48t-47.5 118zM171 922q0 71 47.5 120t118.5 49t119 -49.5t48 -119.5t-48.5 -118t-118.5 -48q-71 0 -118.5 48t-47.5 118z" />
<glyph unicode=";" horiz-adv-x="804" d="M36 -345l371 664l151 -85l-373 -660zM301 922q0 71 47.5 120t118.5 49t119 -49.5t48 -119.5t-48.5 -118t-118.5 -48q-71 0 -118.5 48t-47.5 118z" />
<glyph unicode="&#x3c;" d="M181 512v169l922 412l79 -168l-741 -329l741 -328l-79 -168z" />
<glyph unicode="=" d="M164 294v192h1035v-192h-1035zM164 752v191h1035v-191h-1035z" />
<glyph unicode="&#x3e;" d="M181 268l741 328l-741 329l79 168l922 -412v-169l-922 -412z" />
<glyph unicode="?" horiz-adv-x="1173" d="M106 996q0 106 31 197t90.5 157t146 103.5t197.5 37.5q98 0 178 -30t136 -84t87.5 -129t31.5 -166q0 -69 -16.5 -121t-45 -96.5t-66 -83.5t-79.5 -78q-31 -26 -54 -50.5t-40.5 -51t-26.5 -57t-9 -71.5v-54h-192v54q0 73 19.5 129t49 102t67 83.5t72.5 68.5q45 38 86.5 88 t41.5 131q0 45 -14.5 85.5t-44.5 71.5t-76 49t-107 18q-128 0 -201.5 -79.5t-73.5 -223.5h-188zM407 166q0 71 47.5 120t118.5 49t120 -49.5t49 -119.5t-49.5 -118t-119.5 -48q-71 0 -118.5 48t-47.5 118z" />
<glyph unicode="@" horiz-adv-x="1999" d="M149 646q0 189 67 348.5t183.5 275.5t276 181t344.5 65q181 0 334.5 -54t263 -153t171.5 -239.5t62 -313.5q0 -256 -94 -407t-285 -151q-90 0 -144 33t-82 114q-49 -73 -120 -112.5t-171 -39.5q-71 0 -128.5 21.5t-98 59t-61.5 87.5t-21 110q0 64 23.5 113.5t60 83 t85.5 52.5t101 24l287 22q0 98 -36.5 137.5t-129.5 39.5q-79 0 -144.5 -34.5t-81.5 -116.5l-144 68q28 108 112.5 174.5t244.5 66.5q183 0 266.5 -91.5t83.5 -243.5v-278q0 -69 29.5 -102.5t78.5 -33.5q85 0 137.5 92.5t52.5 307.5q0 132 -46.5 241.5t-133 187t-206 121.5 t-266.5 44q-148 0 -275 -52t-219.5 -144.5t-145 -221.5t-52.5 -282t50 -282.5t139.5 -224t213 -147.5t273.5 -53q160 0 280 29.5t205 67.5l34 -166q-107 -45 -229.5 -73.5t-289.5 -28.5q-186 0 -343 66t-270.5 183t-177.5 278t-64 351zM823 471q0 -47 34.5 -83t111.5 -36 q53 0 97 18t73.5 48.5t46.5 69t17 77.5v51l-270 -30q-57 -7 -83.5 -40.5t-26.5 -74.5z" />
<glyph unicode="A" horiz-adv-x="1630" d="M21 0l695 1491h200l694 -1491h-210l-122 262h-924l-122 -262h-211zM443 453h746l-374 805z" />
<glyph unicode="B" horiz-adv-x="1292" d="M171 0v1491h624q85 0 160.5 -30t131 -84t88 -131t32.5 -171q0 -106 -48.5 -193t-132.5 -136q84 -49 132.5 -135.5t48.5 -195.5q0 -94 -32.5 -170.5t-88 -131t-131 -84t-160.5 -29.5h-624zM362 191h433q95 0 158 61t63 163t-60 168.5t-151 66.5h-443v-459zM362 841h443 q91 0 151 66t60 168t-63 163t-158 61h-433v-458z" />
<glyph unicode="C" horiz-adv-x="1424" d="M106 748q0 158 58 294t158 236t236.5 156.5t293.5 56.5q160 0 288 -56.5t232 -148.5l-88 -180q-81 81 -186.5 137t-251.5 56q-120 0 -220 -40.5t-172 -113t-114 -174.5t-42 -225q0 -124 42 -226.5t114 -175t171 -113t214 -40.5q153 0 264 57t192 134l87 -181 q-106 -96 -240 -148.5t-303 -52.5q-151 0 -285.5 56.5t-233 157.5t-156.5 237.5t-58 296.5z" />
<glyph unicode="D" horiz-adv-x="1530" d="M171 0v1491h510q158 0 294.5 -56.5t236.5 -155.5t156.5 -235.5t56.5 -297.5q0 -163 -56.5 -299t-156.5 -235t-236.5 -155.5t-294.5 -56.5h-510zM362 191h319q120 0 221.5 40.5t174.5 114t114.5 176t41.5 224.5q0 121 -41.5 222t-114.5 174.5t-174.5 115t-221.5 41.5h-319 v-1108z" />
<glyph unicode="E" horiz-adv-x="1203" d="M171 0v1491h915v-192h-724v-458h724v-191h-724v-459h724v-191h-915z" />
<glyph unicode="F" horiz-adv-x="1171" d="M171 0v1491h915v-192h-724v-458h724v-191h-724v-650h-191z" />
<glyph unicode="G" horiz-adv-x="1618" d="M106 746q0 160 56.5 296t156.5 236t238 156.5t299 56.5q160 0 287 -56.5t231 -148.5l-88 -180q-81 81 -186.5 137t-251.5 56q-120 0 -221 -40.5t-174 -113t-114 -174.5t-41 -225q0 -124 41 -226.5t114 -175t174 -113t223 -40.5q104 0 192 30.5t154.5 86.5t108 134 t54.5 174h-569v191h787v-8q0 -177 -48.5 -323t-140 -252t-224.5 -165t-302 -59q-166 0 -304.5 56.5t-238.5 156.5t-156.5 236.5t-56.5 296.5z" />
<glyph unicode="H" horiz-adv-x="1575" d="M171 0v1491h191v-650h852v650h192v-1491h-192v650h-852v-650h-191z" />
<glyph unicode="I" horiz-adv-x="532" d="M171 0v1491h191v-1491h-191z" />
<glyph unicode="J" horiz-adv-x="1047" d="M32 424l177 88q0 -64 14.5 -123t47 -103t81 -69.5t117.5 -25.5q63 0 109 22.5t74.5 61t41.5 88.5t13 108v1020h192v-1020q0 -104 -28 -191t-82 -149t-135 -96.5t-185 -34.5q-117 0 -200.5 39.5t-135.5 100.5t-76.5 136.5t-24.5 147.5z" />
<glyph unicode="K" horiz-adv-x="1378" d="M171 0v1491h191v-743l735 743h271l-644 -650l644 -841h-244l-536 703l-226 -228v-475h-191z" />
<glyph unicode="L" horiz-adv-x="1132" d="M171 0v1491h191v-1300h739v-191h-930z" />
<glyph unicode="M" horiz-adv-x="2152" d="M171 0v1491h191l715 -1243l714 1243h192v-1491h-192v1097l-630 -1097h-169l-630 1097v-1097h-191z" />
<glyph unicode="N" horiz-adv-x="1632" d="M149 0v1491h192l952 -1184v1184h191v-1491h-191l-952 1182v-1182h-192z" />
<glyph unicode="O" horiz-adv-x="1703" d="M106 746q0 160 56.5 296t156.5 236t237 156.5t296 56.5q160 0 297 -56.5t236 -156.5t155.5 -236.5t56.5 -295.5q0 -160 -56.5 -296.5t-155.5 -236.5t-236 -156.5t-297 -56.5t-296.5 56.5t-236.5 156.5t-156.5 236.5t-56.5 296.5zM298 746q0 -120 42 -222t115 -175.5 t175.5 -115.5t221.5 -42t221 42t176 115.5t115.5 175.5t41.5 222q0 119 -41.5 221t-115.5 175.5t-176 115t-221 41.5q-120 0 -222 -41.5t-175 -115t-115 -176t-42 -220.5z" />
<glyph unicode="P" horiz-adv-x="1266" d="M171 0v1491h530q108 0 199.5 -38.5t158.5 -105.5t105.5 -158.5t38.5 -200.5q0 -108 -38.5 -200.5t-105.5 -159.5t-158.5 -104.5t-199.5 -37.5h-339v-486h-191zM362 677h339q63 0 121 23.5t99.5 65t66 97.5t24.5 125t-24.5 125t-66 97.5t-99.5 65t-121 23.5h-339v-622z " />
<glyph unicode="Q" horiz-adv-x="1778" d="M106 746q0 160 56.5 296t156.5 236t237 156.5t296 56.5q160 0 297 -56.5t236 -156.5t155.5 -236.5t56.5 -295.5q0 -137 -40.5 -255.5t-115.5 -213.5l380 -379l-134 -134l-382 381q-93 -69 -207 -107t-246 -38q-160 0 -296.5 56.5t-236.5 156.5t-156.5 236.5t-56.5 296.5z M298 746q0 -120 42 -222t115 -175.5t175 -115.5t222 -42q181 0 315 92l-417 418l134 134l419 -420q102 138 103 331q0 119 -41.5 221t-115.5 175.5t-176 115t-221 41.5q-120 0 -222 -41.5t-175 -115t-115 -176t-42 -220.5z" />
<glyph unicode="R" horiz-adv-x="1315" d="M171 0v1491h562q106 0 193.5 -35t150.5 -96t96.5 -146.5t33.5 -182.5q0 -86 -25.5 -159t-72 -132t-112.5 -99t-149 -58l404 -583h-244l-384 571h-262v-571h-191zM362 762h371q130 0 206.5 75.5t76.5 193.5q0 117 -77 192.5t-206 75.5h-371v-537z" />
<glyph unicode="S" horiz-adv-x="1104" d="M85 356l169 89q30 -124 104.5 -189t199.5 -65q116 0 183.5 56t67.5 160q0 59 -22.5 98.5t-59 67.5t-84 44.5t-98.5 34.5q-73 24 -151.5 54.5t-143.5 79.5t-106.5 123t-41.5 180q0 96 36.5 171t98 126t143.5 78t171 27q177 0 298.5 -96t170.5 -261l-181 -73 q-34 128 -108.5 183t-183.5 55q-126 0 -189.5 -62t-63.5 -151q0 -55 22.5 -92t61.5 -65t93.5 -48.5t116.5 -41.5q87 -30 163 -62.5t131 -80.5t87.5 -116t32.5 -167q0 -106 -36.5 -184t-97.5 -129t-140.5 -75.5t-166.5 -24.5q-69 0 -141.5 17t-137.5 57.5t-117 110t-80 171.5 z" />
<glyph unicode="T" horiz-adv-x="1386" d="M10 1299v192h1366v-192h-588v-1299h-192v1299h-586z" />
<glyph unicode="U" horiz-adv-x="1660" d="M149 681v810h192v-810q0 -104 37 -193.5t103 -155.5t155.5 -103.5t194.5 -37.5q104 0 193.5 37.5t155.5 103.5t103.5 155.5t37.5 193.5v810h191v-810q0 -144 -52 -269t-143.5 -216.5t-216 -143.5t-269.5 -52t-269.5 52t-216 143.5t-144 216.5t-52.5 269z" />
<glyph unicode="V" horiz-adv-x="1583" d="M10 1491h214l571 -1201l566 1201h213l-710 -1491h-144z" />
<glyph unicode="W" horiz-adv-x="2597" d="M21 1491h207l463 -1163l516 1163h183l518 -1163l462 1163h207l-592 -1491h-140l-546 1221l-545 -1221h-140z" />
<glyph unicode="X" horiz-adv-x="1516" d="M32 0l602 746l-602 745h245l481 -595l482 595h244l-602 -745l602 -746h-246l-480 592l-479 -592h-247z" />
<glyph unicode="Y" horiz-adv-x="1409" d="M10 1491h235l460 -664l460 664h235l-599 -863v-628h-192v628z" />
<glyph unicode="Z" horiz-adv-x="1409" d="M106 0v147l912 1152h-912v192h1197v-147l-911 -1153h911v-191h-1197z" />
<glyph unicode="[" horiz-adv-x="723" d="M234 -285v1906h426v-158h-255v-1591h255v-157h-426z" />
<glyph unicode="\" horiz-adv-x="1561" d="M43 1491l128 106l1318 -1601l-128 -106z" />
<glyph unicode="]" horiz-adv-x="723" d="M63 -128h256v1591h-256v158h427v-1906h-427v157z" />
<glyph unicode="^" horiz-adv-x="825" d="M43 1067l289 504h162l290 -504l-138 -73l-233 412l-232 -412z" />
<glyph unicode="_" horiz-adv-x="1272" d="M63 21h1147v-192h-1147v192z" />
<glyph unicode="`" horiz-adv-x="748" d="M106 1500l87 134l450 -290l-82 -128z" />
<glyph unicode="a" horiz-adv-x="1096" d="M96 309q0 75 25.5 132t72 98.5t108.5 66t137 30.5l300 31q69 6 68 57v28q0 79 -58 127t-178 48q-110 0 -184 -46t-91 -146l-162 88q30 119 132 193.5t297 74.5q221 0 324 -103.5t103 -294.5v-693h-183v151q-55 -81 -144.5 -126.5t-204.5 -45.5q-88 0 -155 25.5 t-112.5 69.5t-70 104t-24.5 131zM287 307q0 -69 50.5 -112.5t148.5 -43.5q77 0 136 25t100.5 65t63 89.5t21.5 100.5v78l-347 -42q-90 -10 -131.5 -55.5t-41.5 -104.5z" />
<glyph unicode="b" horiz-adv-x="1283" d="M149 0v1491h183v-582q65 81 156 131.5t219 50.5q108 0 203.5 -39.5t163.5 -112t107.5 -176t39.5 -231.5q0 -127 -39.5 -230.5t-107.5 -176t-163.5 -112t-203.5 -39.5q-130 0 -222.5 50.5t-152.5 128.5v-153h-183zM319 532q0 -176 96.5 -281.5t259.5 -105.5q83 0 149 29 t112 80t70.5 122t24.5 156q0 86 -24.5 157t-70.5 122t-112 80t-149 29q-164 0 -260 -105.5t-96 -282.5z" />
<glyph unicode="c" horiz-adv-x="1059" d="M63 530q0 120 39.5 222t113.5 178t177 118.5t231 42.5q124 0 218.5 -40.5t169.5 -115.5l-120 -140q-55 51 -122 85t-156 34q-77 0 -143 -27t-114 -76t-75.5 -119t-27.5 -160q0 -87 27.5 -157t75.5 -120t113 -77t142 -27q95 0 167.5 37.5t127.5 88.5l111 -143 q-68 -68 -168 -114t-236 -46q-126 0 -228.5 41.5t-174 116.5t-110 176t-38.5 222z" />
<glyph unicode="d" horiz-adv-x="1283" d="M63 532q0 128 39.5 231.5t108 176t163.5 112t203 39.5q128 0 218.5 -50.5t156.5 -131.5v582h184v-1491h-184v153q-60 -79 -152.5 -129t-222.5 -50q-108 0 -203 39.5t-163.5 112t-108 176t-39.5 230.5zM254 532q0 -85 24.5 -156t70 -122t111.5 -80t149 -29 q165 0 260.5 105.5t95.5 281.5q0 177 -95.5 282.5t-260.5 105.5q-83 0 -149 -29t-111.5 -80t-70 -122t-24.5 -157z" />
<glyph unicode="e" horiz-adv-x="1154" d="M63 524q0 118 37.5 221t106 180t165.5 121.5t218 44.5q126 0 221.5 -42.5t159.5 -118.5t97 -178t33 -220v-55h-851v-2q4 -81 33.5 -143t76.5 -103.5t108.5 -62.5t129.5 -21q118 0 201 48.5t138 115.5l96 -143q-33 -36 -75 -70.5t-95.5 -62t-117.5 -43.5t-138 -16 q-121 0 -220.5 38.5t-172 109.5t-112 173.5t-39.5 228.5zM258 624h643q-13 134 -88.5 215t-220.5 81q-151 0 -233 -81t-101 -215z" />
<glyph unicode="f" horiz-adv-x="766" d="M32 905v160h196v59q0 106 25.5 180t70 120t107.5 66t140 20q45 0 83.5 -4t80.5 -10v-169q-40 6 -74.5 10.5t-66.5 4.5q-98 0 -140.5 -47t-42.5 -171v-59h309v-160h-309v-905h-183v905h-196z" />
<glyph unicode="g" horiz-adv-x="1305" d="M85 532q0 128 39.5 231.5t110 176t165 112t205.5 39.5q134 0 228 -50.5t140 -120.5v145h183v-1008q0 -95 -21 -187t-78.5 -163t-157.5 -115.5t-256 -44.5q-100 0 -176.5 19t-134 53t-100.5 82.5t-72 107.5l143 112q51 -102 136 -157.5t219 -55.5q100 0 163 30t98.5 80 t48 113t12.5 126v88q-51 -75 -148 -123t-225 -48q-119 0 -215 39.5t-164 112t-105.5 176t-37.5 230.5zM275 532q0 -85 25.5 -156t72 -122t113.5 -80t150 -29q165 0 257.5 105.5t92.5 281.5q0 177 -92.5 282.5t-257.5 105.5q-83 0 -150 -29t-113.5 -80t-72 -122t-25.5 -157z " />
<glyph unicode="h" horiz-adv-x="1207" d="M149 0v1491h183v-566q121 166 347 166q102 0 178 -34.5t125 -95t73.5 -147t24.5 -188.5v-626h-188v634q0 132 -64 209t-185 77q-92 0 -152 -33t-95.5 -89t-49.5 -134t-14 -168v-496h-183z" />
<glyph unicode="i" horiz-adv-x="502" d="M106 1372q0 61 41.5 102.5t104.5 41.5q61 0 102.5 -41.5t41.5 -102.5q0 -62 -41.5 -103.5t-102.5 -41.5q-62 0 -104 41.5t-42 103.5zM160 0v1065h183v-1065h-183z" />
<glyph unicode="j" horiz-adv-x="542" d="M-63 -258h8q77 0 125 14t74.5 41.5t35.5 65t9 86.5v1116h183v-1116q0 -96 -22 -168.5t-72 -120.5t-132.5 -71.5t-200.5 -23.5h-8v177zM136 1372q0 61 41.5 102.5t103.5 41.5q61 0 103 -41.5t42 -102.5q0 -62 -41.5 -103.5t-103.5 -41.5t-103.5 41.5t-41.5 103.5z" />
<glyph unicode="k" horiz-adv-x="1096" d="M149 0v1491h183v-942l485 516h258l-459 -464l459 -601h-238l-345 475l-160 -162v-313h-183z" />
<glyph unicode="l" horiz-adv-x="484" d="M149 0v1491h188v-1491h-188z" />
<glyph unicode="m" horiz-adv-x="1971" d="M149 0v1065h177v-149q48 81 133.5 128t205.5 47q136 0 221 -57.5t128 -153.5q61 93 152.5 152t243.5 59q110 0 189.5 -34.5t129 -97.5t72 -150t22.5 -195v-614h-185v636q0 139 -62 211.5t-186 72.5q-91 0 -151.5 -33t-96.5 -89t-51.5 -134t-15.5 -168v-496h-183v636 q0 139 -63 211.5t-188 72.5q-92 0 -151 -33t-94.5 -90.5t-49.5 -135.5t-14 -165v-496h-183z" />
<glyph unicode="n" horiz-adv-x="1228" d="M149 0v1065h177v-143q63 90 156 129.5t197 39.5q102 0 178 -34.5t125 -95t73.5 -147t24.5 -188.5v-626h-188v634q0 141 -69 213.5t-182 72.5q-92 0 -151 -33t-94.5 -89t-49.5 -134t-14 -168v-496h-183z" />
<glyph unicode="o" horiz-adv-x="1243" d="M63 532q0 120 43 222t117.5 177t176.5 117.5t222 42.5t221.5 -42.5t176.5 -117.5t117.5 -177t42.5 -222q0 -119 -42.5 -221t-117.5 -177t-176.5 -117.5t-221.5 -42.5t-222 42.5t-176.5 117.5t-117.5 177t-43 221zM254 532q0 -83 26.5 -153t74 -120t116 -79t151.5 -29 t151 29t116 79t74.5 120t26.5 153q0 84 -26.5 154t-74.5 120t-116 79t-151 29t-151.5 -29t-116 -79t-74 -120t-26.5 -154z" />
<glyph unicode="p" horiz-adv-x="1283" d="M149 -426v1491h183v-153q59 79 152 129t223 50q108 0 203.5 -39.5t163.5 -112t107.5 -176t39.5 -231.5q0 -127 -39.5 -230.5t-107.5 -176t-163.5 -112t-203.5 -39.5q-128 0 -218.5 50.5t-156.5 131.5v-582h-183zM319 532q0 -176 96 -281.5t260 -105.5q83 0 149 29t112 80 t70.5 122t24.5 156q0 86 -24.5 157t-70.5 122t-112 80t-149 29q-164 0 -260 -105.5t-96 -282.5z" />
<glyph unicode="q" horiz-adv-x="1283" d="M63 532q0 128 39.5 231.5t108 176t163.5 112t203 39.5q130 0 222.5 -50.5t152.5 -128.5v153h184v-1491h-184v582q-66 -81 -156.5 -131.5t-218.5 -50.5q-108 0 -203 39.5t-163.5 112t-108 176t-39.5 230.5zM254 532q0 -85 24.5 -156t70 -122t111.5 -80t149 -29 q165 0 260.5 105.5t95.5 281.5q0 177 -96 282.5t-260 105.5q-83 0 -149 -29t-111.5 -80t-70 -122t-24.5 -157z" />
<glyph unicode="r" horiz-adv-x="793" d="M149 0v1065h177v-160q48 89 128.5 137.5t193.5 48.5q28 0 53 -3.5t51 -7.5v-194q-28 6 -52.5 9.5t-53.5 3.5q-90 0 -149.5 -29t-97 -82t-52.5 -127.5t-15 -164.5v-496h-183z" />
<glyph unicode="s" horiz-adv-x="985" d="M53 224l152 95q49 -100 137.5 -137t185.5 -37q104 0 163 36t59 111q0 41 -17 66.5t-48 42t-74.5 28.5t-96.5 22q-66 13 -136.5 33t-129.5 55.5t-97 91.5t-38 144q0 140 105 228t294 88q160 0 261 -62t160 -169l-151 -96q-34 66 -99 111t-177 45q-89 0 -149.5 -35 t-60.5 -99q0 -38 19.5 -62.5t53 -43t79.5 -30t101 -24.5q66 -14 134.5 -31.5t123.5 -51.5t90.5 -90.5t35.5 -147.5q0 -86 -30.5 -148.5t-86.5 -103.5t-130 -60t-162 -19q-75 0 -145 14t-132 44.5t-112 78t-82 113.5z" />
<glyph unicode="t" horiz-adv-x="772" d="M32 905v160h210v285h184v-285h292v-160h-292v-618q0 -61 26.5 -94t94.5 -33q51 0 90.5 4t82.5 13v-162q-43 -11 -87.5 -18t-95.5 -7q-147 0 -221 69t-74 239v607h-210z" />
<glyph unicode="u" horiz-adv-x="1213" d="M149 435v630h188v-630q0 -64 10.5 -117.5t38 -92t74 -59.5t119.5 -21q92 0 150.5 35t92.5 93.5t47 135.5t13 160v496h183v-1065h-177v153q-61 -90 -140 -134.5t-201 -44.5q-113 0 -188.5 35.5t-122.5 96t-67 145t-20 184.5z" />
<glyph unicode="v" horiz-adv-x="1124" d="M21 1065h215l327 -813l327 813h213l-469 -1065h-144z" />
<glyph unicode="w" horiz-adv-x="1843" d="M21 1065h209l302 -790l324 790h132l324 -790l302 790h209l-437 -1065h-140l-324 764l-324 -764h-140z" />
<glyph unicode="x" horiz-adv-x="1106" d="M21 0l420 532l-420 533h227l305 -390l307 390h226l-419 -533l419 -532h-226l-307 390l-305 -390h-227z" />
<glyph unicode="y" horiz-adv-x="1118" d="M21 1065h221l341 -711l331 711h194l-689 -1491h-197l264 566z" />
<glyph unicode="z" horiz-adv-x="966" d="M63 0v164l593 730h-573v171h799v-164l-592 -730h613v-171h-840z" />
<glyph unicode="{" horiz-adv-x="804" d="M128 592v158q106 6 168 57t62 140v342q0 178 94.5 255t252.5 77h57v-160h-67q-73 0 -122 -40.5t-49 -121.5v-356q0 -95 -37.5 -161t-132.5 -103q95 -36 132.5 -99.5t37.5 -160.5v-383q0 -81 49 -121.5t122 -40.5h67v-159h-57q-158 0 -252.5 76.5t-94.5 255.5v351 q0 90 -62 139t-168 55z" />
<glyph unicode="|" horiz-adv-x="585" d="M213 -285v1906h159v-1906h-159z" />
<glyph unicode="}" horiz-adv-x="804" d="M43 -126h67q73 0 122 40.5t49 121.5v383q0 96 37.5 160t132.5 100q-95 37 -132.5 103t-37.5 161v356q0 81 -49 121.5t-122 40.5h-67v160h57q79 0 143 -18t109.5 -58.5t70 -103.5t24.5 -152v-342q0 -89 62 -140t168 -57v-158q-106 -6 -168 -55t-62 -139v-351 q0 -90 -24.5 -152.5t-70 -103.5t-109.5 -58.5t-143 -17.5h-57v159z" />
<glyph unicode="~" horiz-adv-x="1453" d="M149 654q70 69 157.5 121t189.5 52q73 0 136 -26t120 -57t109.5 -56.5t101.5 -25.5q61 0 122 37.5t110 86.5l110 -115q-75 -71 -160.5 -126t-187.5 -55q-71 0 -133 25.5t-119 56.5t-110.5 56.5t-102.5 25.5q-61 0 -122 -37.5t-110 -86.5z" />
<glyph unicode="&#xa1;" horiz-adv-x="672" d="M171 899q0 70 47.5 118t118.5 48t119 -48t48 -118q0 -71 -48.5 -120t-118.5 -49q-71 0 -118.5 49.5t-47.5 119.5zM240 -426v1022h193v-1022h-193z" />
<glyph unicode="&#xa2;" horiz-adv-x="1059" d="M63 530q0 109 32.5 203t93.5 166t145.5 120t191.5 65v192h139v-187q108 -6 193 -45.5t154 -108.5l-120 -140q-49 42 -103 74t-124 40v-753q74 10 133.5 44t108.5 77l111 -143q-61 -61 -148.5 -105t-204.5 -53v-183h-139v188q-106 13 -192 59.5t-146 119t-92.5 167.5 t-32.5 203zM254 532q0 -148 75.5 -246.5t196.5 -125.5v745q-121 -28 -196.5 -124t-75.5 -249z" />
<glyph unicode="&#xa3;" horiz-adv-x="1305" d="M128 681v160h209v224q0 89 24.5 167t75.5 135.5t127.5 90.5t181.5 33q75 0 135 -21t107 -54.5t81 -76t53 -87.5l-161 -114q-26 75 -83.5 123.5t-131.5 48.5q-102 0 -160 -61.5t-58 -183.5v-224h415v-160h-415v-287q0 -96 -34 -146t-66 -67h415q114 0 194.5 53t127.5 130 l98 -171q-31 -40 -70 -75t-88.5 -61.5t-114.5 -41.5t-147 -15h-694v175q89 10 138.5 64.5t49.5 154.5v287h-209z" />
<glyph unicode="&#xa4;" horiz-adv-x="1158" d="M43 305l176 179q-42 55 -64.5 121t-22.5 141t22.5 143t64.5 123l-162 159l101 95l157 -160q55 42 122 64.5t142 22.5t142 -22.5t122 -64.5l159 160l97 -95l-162 -159q89 -116 89 -266q0 -75 -22 -141t-63 -121l175 -179l-94 -94l-176 177q-56 -43 -124 -65t-143 -22 t-142 22t-122 63l-179 -175zM313 746q0 -55 21.5 -103.5t57.5 -83.5t84 -56t103 -21q53 0 102 21t85.5 56t58 83.5t21.5 103.5t-21.5 102.5t-58 84t-85.5 58t-102 21.5q-55 0 -103 -21.5t-84 -58t-57.5 -84t-21.5 -102.5z" />
<glyph unicode="&#xa5;" horiz-adv-x="1409" d="M10 1491h235l460 -664l460 664h235l-495 -713h296v-150h-400v-146h400v-150h-400v-332h-192v332h-400v150h400v146h-400v150h295z" />
<glyph unicode="&#xa6;" horiz-adv-x="585" d="M213 -285v890h159v-890h-159zM213 795v826h159v-826h-159z" />
<glyph unicode="&#xa7;" horiz-adv-x="1098" d="M106 588q0 115 55.5 195.5t147.5 125.5q-53 43 -86.5 104.5t-33.5 151.5q0 81 29.5 146t81.5 110.5t122 70t153 24.5q124 0 221.5 -56t155.5 -174l-151 -95q-35 77 -97.5 116t-136.5 39q-92 0 -143.5 -48t-51.5 -123q0 -68 46 -109.5t115.5 -73t149 -62.5t149 -76 t115 -112t45.5 -173q0 -108 -51 -190.5t-146 -130.5q51 -43 82.5 -103t31.5 -149q0 -77 -26.5 -142t-75.5 -113t-120 -75.5t-161 -27.5q-126 0 -223.5 56t-155.5 174l151 96q35 -77 96.5 -116t135.5 -39q94 0 145 49.5t51 126.5q0 69 -46 111t-115 74.5t-148.5 62t-149 74.5 t-115.5 111t-46 170zM287 603q0 -55 31 -92.5t80 -66.5t112 -52.5t124 -50.5q73 30 125 83t52 127q0 55 -29.5 93.5t-78.5 68t-110 52t-122 50.5q-75 -30 -129.5 -83t-54.5 -129z" />
<glyph unicode="&#xa8;" horiz-adv-x="932" d="M106 1372q0 61 41.5 102.5t104.5 41.5q61 0 102.5 -41.5t41.5 -102.5q0 -62 -41.5 -103.5t-102.5 -41.5q-62 0 -104 41.5t-42 103.5zM537 1372q0 61 41.5 102.5t102.5 41.5q62 0 104 -41.5t42 -102.5q0 -62 -41.5 -103.5t-104.5 -41.5q-61 0 -102.5 41.5t-41.5 103.5z " />
<glyph unicode="&#xa9;" horiz-adv-x="1754" d="M106 746q0 164 59 305.5t161 245t243.5 161.5t308.5 58q166 0 307.5 -58t244 -161.5t160.5 -245.5t58 -305q0 -165 -58 -306.5t-160.5 -244.5t-244 -162t-307.5 -59q-167 0 -308.5 59t-243.5 162t-161 244.5t-59 306.5zM256 746q0 -134 46.5 -248t130 -197.5t197.5 -130 t248 -46.5t248 46.5t197 130t130 197.5t47 248t-47 248t-130 197t-197 130t-248 47t-248 -47t-197.5 -130t-130 -197t-46.5 -248zM456 754q0 89 32 165.5t88 133.5t133 88.5t167 31.5q91 0 165.5 -33.5t140.5 -100.5l-62 -134q-102 124 -246 124q-118 0 -195.5 -74.5 t-77.5 -200.5q0 -61 20 -112.5t57.5 -88.5t87 -57.5t112.5 -20.5q65 0 128 30t114 85l62 -134q-65 -62 -140 -93t-164 -31q-90 0 -168 32t-134 88.5t-88 134.5t-32 167z" />
<glyph unicode="&#xaa;" horiz-adv-x="939" d="M106 950q0 61 22.5 108.5t60 78t82 46.5t89.5 20l307 26q0 96 -39.5 135.5t-135.5 39.5q-83 0 -137 -32t-74 -109l-149 79q30 95 112 153t235 58q183 0 268.5 -84.5t85.5 -243.5v-522h-166v114q-41 -61 -109 -96.5t-160 -35.5q-134 0 -213 75t-79 190zM277 947 q0 -46 37.5 -75t107.5 -29q51 0 96 17.5t77.5 45t52 64t19.5 74.5v40l-281 -29q-55 -9 -82 -39t-27 -69z" />
<glyph unicode="&#xab;" horiz-adv-x="1199" d="M85 553l394 449l122 -112l-305 -337l305 -338l-122 -109zM516 553l393 449l122 -112l-305 -337l305 -338l-122 -109z" />
<glyph unicode="&#xac;" d="M193 605v192h976v-541h-193v349h-783z" />
<glyph unicode="&#xad;" horiz-adv-x="1124" d="M171 563v191h784v-191h-784z" />
<glyph unicode="&#xae;" horiz-adv-x="1754" d="M106 746q0 164 59 305.5t161 245t243.5 161.5t308.5 58q166 0 307.5 -58t244 -161.5t160.5 -245.5t58 -305q0 -165 -58 -306.5t-160.5 -244.5t-244 -162t-307.5 -59q-167 0 -308.5 59t-243.5 162t-161 244.5t-59 306.5zM256 746q0 -134 46.5 -248t130 -197.5t197.5 -130 t248 -46.5t248 46.5t197 130t130 197.5t47 248t-47 248t-130 197t-197 130t-248 47t-248 -47t-197.5 -130t-130 -197t-46.5 -248zM616 358v807h315q57 0 107.5 -19.5t86.5 -53t57 -81.5t21 -104q0 -104 -52 -166t-135 -81l185 -302h-160l-172 290l3 2h-124v-292h-132z M748 780h183q59 0 99.5 28t40.5 99q0 55 -40.5 91.5t-99.5 36.5h-183v-255z" />
<glyph unicode="&#xaf;" horiz-adv-x="851" d="M106 1315v148h640v-148h-640z" />
<glyph unicode="&#xb0;" horiz-adv-x="787" d="M106 1256q0 60 22.5 110t61 87.5t90.5 59t114 21.5t114.5 -21.5t90 -59t60 -87t22.5 -110.5q0 -59 -22.5 -109t-60 -87.5t-90 -58.5t-114.5 -21q-61 0 -113.5 21t-91 58.5t-61 87.5t-22.5 109zM230 1256q0 -70 44.5 -116.5t119.5 -46.5t119.5 46.5t44.5 116.5 q0 71 -44.5 118t-119.5 47t-119.5 -47t-44.5 -118z" />
<glyph unicode="&#xb1;" d="M179 181v187h1006v-187h-1006zM179 752v187h411v297h183v-297h412v-187h-412v-296h-183v296h-411z" />
<glyph unicode="&#xb2;" horiz-adv-x="758" d="M63 1553q17 32 44 67t65.5 63t87.5 45.5t110 17.5q130 0 212.5 -78.5t82.5 -204.5q0 -75 -29 -133t-71 -99l-220 -217h320v-162h-576v132l352 345q28 26 44.5 58t16.5 68q0 59 -38 94.5t-96 35.5q-63 0 -110 -40.5t-73 -93.5z" />
<glyph unicode="&#xb3;" horiz-adv-x="742" d="M69 1016l116 118q24 -58 71 -89t102 -31t90.5 27.5t35.5 76.5q0 47 -33.5 73.5t-88.5 29.5h-64v159h64q55 2 88.5 28.5t33.5 73.5q0 49 -35.5 76t-90.5 27t-101 -31t-72 -87l-116 120q34 66 108.5 112.5t176.5 46.5q134 0 213 -70t79 -178q0 -77 -36.5 -126t-81.5 -73 q49 -24 83.5 -72.5t34.5 -125.5q0 -115 -78 -182t-212 -67q-106 0 -181 47.5t-106 116.5z" />
<glyph unicode="&#xb4;" horiz-adv-x="748" d="M106 1344l450 290l87 -134l-454 -284z" />
<glyph unicode="&#xb5;" d="M224 -426v1491h187v-630q0 -64 11 -117.5t38.5 -92t74 -59.5t119.5 -21q92 0 150 35t92.5 93.5t47.5 135.5t13 160v496h183v-1065h-177v153q-61 -90 -140 -134.5t-201 -44.5q-132 0 -217 50v-450h-181z" />
<glyph unicode="&#xb6;" horiz-adv-x="1077" d="M63 1095q0 83 30.5 155.5t83.5 125.5t125 84t158 31h554v-1776h-166v1616h-222v-1616h-166v984q-86 0 -158 30.5t-125 84t-83.5 126t-30.5 155.5z" />
<glyph unicode="&#xb7;" horiz-adv-x="760" d="M213 737q0 71 48 119.5t119 48.5q70 0 118.5 -49t48.5 -119t-49 -118t-118 -48q-71 0 -119 48t-48 118z" />
<glyph unicode="&#xb8;" horiz-adv-x="506" d="M106 -211q24 -6 44.5 -10.5t36.5 -4.5q30 0 49.5 16.5t19.5 56.5q0 39 -25.5 92t-94.5 124h145q68 -72 93.5 -127.5t25.5 -108.5q0 -91 -55 -137t-130 -46q-24 0 -52.5 5.5t-56.5 15.5v124z" />
<glyph unicode="&#xb9;" horiz-adv-x="659" d="M55 1435l315 311h139v-894h-160v648l-183 -179z" />
<glyph unicode="&#xba;" horiz-adv-x="1102" d="M106 1118q0 89 35.5 169.5t95 138.5t140.5 92.5t174 34.5q92 0 174 -34.5t142 -92.5t94.5 -138.5t34.5 -169.5t-34.5 -169t-94.5 -138.5t-142 -93t-174 -34.5q-93 0 -174 34.5t-140.5 93t-95 138.5t-35.5 169zM287 1118q0 -55 19.5 -104t54.5 -85.5t84 -57.5t106 -21 t106.5 21t85 57.5t55 85.5t19.5 104t-19.5 104.5t-55 85.5t-84.5 57t-107 21q-57 0 -106 -21t-84 -57t-54.5 -85.5t-19.5 -104.5z" />
<glyph unicode="&#xbb;" horiz-adv-x="1201" d="M171 215l304 338l-304 337l121 112l393 -449l-393 -447zM601 215l304 338l-304 337l121 112l394 -449l-394 -447z" />
<glyph unicode="&#xbc;" horiz-adv-x="1854" d="M106 1180l316 311h139v-895h-161v648l-183 -179zM328 87l1113 1404l108 -85l-1114 -1406zM969 153v141l501 600h134v-581h144v-160h-144v-153h-163v153h-472zM1197 313h244v299z" />
<glyph unicode="&#xbd;" horiz-adv-x="1786" d="M106 1180l316 311h139v-895h-161v648l-183 -179zM272 87l1114 1404l107 -85l-1113 -1406zM1080 701q16 32 43 67t65.5 62.5t87.5 45.5t110 18q130 0 212.5 -78.5t82.5 -203.5q0 -75 -29 -134t-71 -98l-220 -218h320v-162h-575v132l351 345q28 26 44.5 58t16.5 68 q0 59 -38.5 94.5t-95.5 35.5q-63 0 -110 -40.5t-73 -94.5z" />
<glyph unicode="&#xbe;" horiz-adv-x="1839" d="M106 760l118 118q24 -57 70.5 -88.5t101.5 -31.5t90.5 27.5t35.5 76.5q0 47 -33 74t-89 29h-63v159h63q56 2 89 29t33 74q0 49 -35.5 75.5t-90.5 26.5t-100.5 -30.5t-71.5 -86.5l-118 119q34 66 109 113t177 47q134 0 212.5 -70.5t78.5 -178.5q0 -77 -35.5 -126 t-80.5 -72q49 -24 82.5 -73t33.5 -125q0 -116 -77.5 -183t-211.5 -67q-106 0 -181 48.5t-107 115.5zM366 87l1114 1404l107 -85l-1114 -1406zM955 153v141l500 600h134v-581h145v-160h-145v-153h-162v153h-472zM1182 313h245v299z" />
<glyph unicode="&#xbf;" horiz-adv-x="1173" d="M171 -17q0 66 16 119.5t44.5 98t66 83.5t78.5 78q29 26 53 50.5t41.5 51t26.5 57t9 71.5v54h193v-54q0 -73 -19.5 -129t-49 -102t-67 -83.5t-73.5 -68.5q-45 -38 -86.5 -88t-41.5 -131q0 -45 15 -85.5t44.5 -71.5t75.5 -49t108 -18q128 0 201.5 79.5t73.5 223.5h187 q0 -106 -30.5 -197t-90.5 -157.5t-146.5 -103.5t-196.5 -37q-98 0 -178 30t-136.5 84t-87 129t-30.5 166zM433 899q0 70 48.5 118t119.5 48t118 -48t47 -118q0 -71 -47 -120t-118 -49t-119.5 49.5t-48.5 119.5z" />
<glyph unicode="&#xc0;" horiz-adv-x="1630" d="M21 0l695 1491h200l694 -1491h-210l-122 262h-924l-122 -262h-211zM443 453h746l-374 805zM532 1798l88 134l449 -290l-83 -128z" />
<glyph unicode="&#xc1;" horiz-adv-x="1630" d="M21 0l695 1491h200l694 -1491h-210l-122 262h-924l-122 -262h-211zM443 453h746l-374 805zM581 1642l450 290l87 -134l-453 -284z" />
<glyph unicode="&#xc2;" horiz-adv-x="1630" d="M21 0l695 1491h200l694 -1491h-210l-122 262h-924l-122 -262h-211zM441 1634l374 321l376 -321l-100 -111l-276 239l-274 -239zM443 453h746l-374 805z" />
<glyph unicode="&#xc3;" horiz-adv-x="1630" d="M21 0l695 1491h200l694 -1491h-210l-122 262h-924l-122 -262h-211zM443 453h746l-374 805zM473 1685q21 26 47.5 52.5t55.5 46.5t60 33.5t63 13.5q38 0 73 -15.5t66 -33.5t57.5 -34t49.5 -16q31 0 60.5 25.5t59.5 57.5l102 -98q-21 -26 -47.5 -52.5t-55.5 -47t-60 -34.5 t-63 -14q-38 0 -73 16.5t-66 34.5t-57.5 34t-49.5 16q-30 0 -60 -26t-60 -57z" />
<glyph unicode="&#xc4;" horiz-adv-x="1630" d="M21 0l695 1491h200l694 -1491h-210l-122 262h-924l-122 -262h-211zM443 453h746l-374 805zM456 1706q0 61 41.5 103t103.5 42q61 0 103 -41.5t42 -103.5t-42 -103.5t-103 -41.5t-103 41.5t-42 103.5zM886 1706q0 61 41.5 103t103.5 42q61 0 102.5 -41.5t41.5 -103.5 t-41 -103.5t-103 -41.5t-103.5 41.5t-41.5 103.5z" />
<glyph unicode="&#xc5;" horiz-adv-x="1630" d="M21 0l658 1414q-45 31 -71.5 80.5t-26.5 113.5q0 102 66 169.5t168 67.5t168.5 -67t66.5 -170q0 -64 -27 -113.5t-71 -80.5l658 -1414h-210l-122 262h-924l-122 -262h-211zM443 453h746l-374 805zM703 1608q0 -51 30.5 -84t81.5 -33t82.5 33t31.5 84t-31 84t-83 33 q-51 0 -81.5 -33t-30.5 -84z" />
<glyph unicode="&#xc6;" horiz-adv-x="2091" d="M10 0l945 1491h104v-188l-537 -850h537v1038h915v-192h-724v-458h724v-191h-724v-459h724v-191h-915v262h-657l-166 -262h-226z" />
<glyph unicode="&#xc7;" horiz-adv-x="1424" d="M106 748q0 158 58 294t158 236t236.5 156.5t293.5 56.5q160 0 288 -56.5t232 -148.5l-88 -180q-81 81 -186.5 137t-251.5 56q-120 0 -220 -40.5t-172 -113t-114 -174.5t-42 -225q0 -124 42 -226.5t114 -175t171 -113t214 -40.5q153 0 264 57t192 134l87 -181 q-89 -81 -198 -131.5t-243 -65.5q39 -49 54 -91.5t15 -85.5q0 -91 -55 -137t-130 -46q-24 0 -52.5 5.5t-56.5 15.5v124q23 -6 43.5 -10.5t37.5 -4.5q30 0 48.5 16.5t18.5 56.5q0 30 -14.5 67t-50.5 86q-145 8 -271 68t-219.5 160t-148 233t-54.5 287z" />
<glyph unicode="&#xc8;" horiz-adv-x="1203" d="M171 0v1491h915v-192h-724v-458h724v-191h-724v-459h724v-191h-915zM343 1798l88 134l449 -290l-83 -128z" />
<glyph unicode="&#xc9;" horiz-adv-x="1203" d="M171 0v1491h915v-192h-724v-458h724v-191h-724v-459h724v-191h-915zM392 1642l449 290l88 -134l-454 -284z" />
<glyph unicode="&#xca;" horiz-adv-x="1203" d="M171 0v1491h915v-192h-724v-458h724v-191h-724v-459h724v-191h-915zM252 1634l374 321l376 -321l-101 -111l-275 239l-274 -239z" />
<glyph unicode="&#xcb;" horiz-adv-x="1203" d="M171 0v1491h915v-192h-724v-458h724v-191h-724v-459h724v-191h-915zM266 1706q0 61 41.5 103t103.5 42q61 0 103 -41.5t42 -103.5t-41.5 -103.5t-103.5 -41.5t-103.5 41.5t-41.5 103.5zM697 1706q0 61 41.5 103t102.5 42q62 0 103.5 -41.5t41.5 -103.5t-41.5 -103.5 t-103.5 -41.5q-61 0 -102.5 41.5t-41.5 103.5z" />
<glyph unicode="&#xcc;" horiz-adv-x="532" d="M-17 1798l88 134l449 -290l-83 -128zM171 0v1491h191v-1491h-191z" />
<glyph unicode="&#xcd;" horiz-adv-x="532" d="M32 1642l450 290l87 -134l-454 -284zM171 0v1491h191v-1491h-191z" />
<glyph unicode="&#xce;" horiz-adv-x="532" d="M-108 1634l374 321l375 -321l-100 -111l-275 239l-274 -239zM171 0v1491h191v-1491h-191z" />
<glyph unicode="&#xcf;" horiz-adv-x="532" d="M-94 1706q0 61 42 103t103 42t103 -41.5t42 -103.5t-41.5 -103.5t-103.5 -41.5q-61 0 -103 41.5t-42 103.5zM171 0v1491h191v-1491h-191zM337 1706q0 61 41 103t104 42q61 0 102.5 -41.5t41.5 -103.5t-41.5 -103.5t-102.5 -41.5q-62 0 -103.5 41.5t-41.5 103.5z" />
<glyph unicode="&#xd0;" horiz-adv-x="1530" d="M0 660v192h171v639h510q158 0 294.5 -56.5t236.5 -155.5t156.5 -235.5t56.5 -297.5q0 -163 -56.5 -299t-156.5 -235t-236.5 -155.5t-294.5 -56.5h-510v660h-171zM362 191h319q120 0 221.5 40.5t174.5 114t114.5 176t41.5 224.5q0 121 -41.5 222t-114.5 174.5t-174.5 115 t-221.5 41.5h-319v-447h362v-192h-362v-469z" />
<glyph unicode="&#xd1;" horiz-adv-x="1632" d="M149 0v1491h192l952 -1184v1184h191v-1491h-191l-952 1182v-1182h-192zM486 1685q20 26 47.5 52.5t56 46.5t59 33.5t62.5 13.5q39 0 74 -15.5t66 -33.5t57.5 -34t50.5 -16q30 0 59.5 25.5t58.5 57.5l103 -98q-20 -26 -47 -52.5t-56 -47t-59.5 -34.5t-62.5 -14 q-39 0 -74 16.5t-66 34.5t-58 34t-50 16q-30 0 -59.5 -26t-59.5 -57z" />
<glyph unicode="&#xd2;" horiz-adv-x="1703" d="M106 746q0 160 56.5 296t156.5 236t237 156.5t296 56.5q160 0 297 -56.5t236 -156.5t155.5 -236.5t56.5 -295.5q0 -160 -56.5 -296.5t-155.5 -236.5t-236 -156.5t-297 -56.5t-296.5 56.5t-236.5 156.5t-156.5 236.5t-56.5 296.5zM298 746q0 -120 42 -222t115 -175.5 t175.5 -115.5t221.5 -42t221 42t176 115.5t115.5 175.5t41.5 222q0 119 -41.5 221t-115.5 175.5t-176 115t-221 41.5q-120 0 -222 -41.5t-175 -115t-115 -176t-42 -220.5zM565 1798l87 134l449 -290l-83 -128z" />
<glyph unicode="&#xd3;" horiz-adv-x="1703" d="M106 746q0 160 56.5 296t156.5 236t237 156.5t296 56.5q160 0 297 -56.5t236 -156.5t155.5 -236.5t56.5 -295.5q0 -160 -56.5 -296.5t-155.5 -236.5t-236 -156.5t-297 -56.5t-296.5 56.5t-236.5 156.5t-156.5 236.5t-56.5 296.5zM298 746q0 -120 42 -222t115 -175.5 t175.5 -115.5t221.5 -42t221 42t176 115.5t115.5 175.5t41.5 222q0 119 -41.5 221t-115.5 175.5t-176 115t-221 41.5q-120 0 -222 -41.5t-175 -115t-115 -176t-42 -220.5zM614 1642l449 290l87 -134l-453 -284z" />
<glyph unicode="&#xd4;" horiz-adv-x="1703" d="M106 746q0 160 56.5 296t156.5 236t237 156.5t296 56.5q160 0 297 -56.5t236 -156.5t155.5 -236.5t56.5 -295.5q0 -160 -56.5 -296.5t-155.5 -236.5t-236 -156.5t-297 -56.5t-296.5 56.5t-236.5 156.5t-156.5 236.5t-56.5 296.5zM298 746q0 -120 42 -222t115 -175.5 t175.5 -115.5t221.5 -42t221 42t176 115.5t115.5 175.5t41.5 222q0 119 -41.5 221t-115.5 175.5t-176 115t-221 41.5q-120 0 -222 -41.5t-175 -115t-115 -176t-42 -220.5zM473 1634l375 321l375 -321l-101 -111l-274 239l-275 -239z" />
<glyph unicode="&#xd5;" horiz-adv-x="1703" d="M106 746q0 160 56.5 296t156.5 236t237 156.5t296 56.5q160 0 297 -56.5t236 -156.5t155.5 -236.5t56.5 -295.5q0 -160 -56.5 -296.5t-155.5 -236.5t-236 -156.5t-297 -56.5t-296.5 56.5t-236.5 156.5t-156.5 236.5t-56.5 296.5zM298 746q0 -120 42 -222t115 -175.5 t175.5 -115.5t221.5 -42t221 42t176 115.5t115.5 175.5t41.5 222q0 119 -41.5 221t-115.5 175.5t-176 115t-221 41.5q-120 0 -222 -41.5t-175 -115t-115 -176t-42 -220.5zM504 1685q21 26 48 52.5t55.5 46.5t60 33.5t62.5 13.5q39 0 74 -15.5t66 -33.5t58 -34t50 -16 q30 0 59.5 25.5t59.5 57.5l102 -98q-21 -26 -48 -52.5t-55.5 -47t-59 -34.5t-63.5 -14q-38 0 -73.5 16.5t-66 34.5t-57 34t-50.5 16q-30 0 -60 -26t-59 -57z" />
<glyph unicode="&#xd6;" horiz-adv-x="1703" d="M106 746q0 160 56.5 296t156.5 236t237 156.5t296 56.5q160 0 297 -56.5t236 -156.5t155.5 -236.5t56.5 -295.5q0 -160 -56.5 -296.5t-155.5 -236.5t-236 -156.5t-297 -56.5t-296.5 56.5t-236.5 156.5t-156.5 236.5t-56.5 296.5zM298 746q0 -120 42 -222t115 -175.5 t175.5 -115.5t221.5 -42t221 42t176 115.5t115.5 175.5t41.5 222q0 119 -41.5 221t-115.5 175.5t-176 115t-221 41.5q-120 0 -222 -41.5t-175 -115t-115 -176t-42 -220.5zM488 1706q0 61 41.5 103t102.5 42q62 0 104 -41.5t42 -103.5t-41.5 -103.5t-104.5 -41.5 q-61 0 -102.5 41.5t-41.5 103.5zM918 1706q0 61 42 103t103 42t102.5 -41.5t41.5 -103.5t-41.5 -103.5t-102.5 -41.5t-103 41.5t-42 103.5z" />
<glyph unicode="&#xd7;" d="M177 301l374 374l-374 377l128 128l374 -375l378 377l128 -130l-376 -377l376 -374l-128 -130l-378 376l-374 -374z" />
<glyph unicode="&#xd8;" horiz-adv-x="1703" d="M106 746q0 160 56.5 296t156.5 236t237 156.5t296 56.5q121 0 229 -32t197 -93l136 159l113 -98l-134 -157q95 -100 149.5 -233.5t54.5 -290.5q0 -160 -56.5 -296.5t-155.5 -236.5t-236 -156.5t-297 -56.5q-122 0 -230 33t-198 95l-137 -162l-114 95l136 163 q-96 99 -149.5 232.5t-53.5 289.5zM298 746q0 -114 36 -208.5t101 -167.5l717 848q-63 38 -139 59.5t-161 21.5q-120 0 -222 -41.5t-175 -115t-115 -175.5t-42 -221zM549 275q132 -84 303 -84q119 0 221 42t176 115.5t115.5 175.5t41.5 222q0 113 -36.5 207.5t-101.5 168.5z " />
<glyph unicode="&#xd9;" horiz-adv-x="1660" d="M149 681v810h192v-810q0 -104 37 -193.5t103 -155.5t155.5 -103.5t194.5 -37.5q104 0 193.5 37.5t155.5 103.5t103.5 155.5t37.5 193.5v810h191v-810q0 -144 -52 -269t-143.5 -216.5t-216 -143.5t-269.5 -52t-269.5 52t-216 143.5t-144 216.5t-52.5 269zM547 1798l87 134 l450 -290l-82 -128z" />
<glyph unicode="&#xda;" horiz-adv-x="1660" d="M149 681v810h192v-810q0 -104 37 -193.5t103 -155.5t155.5 -103.5t194.5 -37.5q104 0 193.5 37.5t155.5 103.5t103.5 155.5t37.5 193.5v810h191v-810q0 -144 -52 -269t-143.5 -216.5t-216 -143.5t-269.5 -52t-269.5 52t-216 143.5t-144 216.5t-52.5 269zM596 1642 l450 290l88 -134l-455 -284z" />
<glyph unicode="&#xdb;" horiz-adv-x="1660" d="M149 681v810h192v-810q0 -104 37 -193.5t103 -155.5t155.5 -103.5t194.5 -37.5q104 0 193.5 37.5t155.5 103.5t103.5 155.5t37.5 193.5v810h191v-810q0 -144 -52 -269t-143.5 -216.5t-216 -143.5t-269.5 -52t-269.5 52t-216 143.5t-144 216.5t-52.5 269zM456 1634 l375 321l374 -321l-99 -111l-275 239l-275 -239z" />
<glyph unicode="&#xdc;" horiz-adv-x="1660" d="M149 681v810h192v-810q0 -104 37 -193.5t103 -155.5t155.5 -103.5t194.5 -37.5q104 0 193.5 37.5t155.5 103.5t103.5 155.5t37.5 193.5v810h191v-810q0 -144 -52 -269t-143.5 -216.5t-216 -143.5t-269.5 -52t-269.5 52t-216 143.5t-144 216.5t-52.5 269zM471 1706 q0 61 41 103t104 42q61 0 102.5 -41.5t41.5 -103.5t-41.5 -103.5t-102.5 -41.5q-62 0 -103.5 41.5t-41.5 103.5zM901 1706q0 61 41.5 103t103.5 42t103.5 -41.5t41.5 -103.5t-41.5 -103.5t-103.5 -41.5q-61 0 -103 41.5t-42 103.5z" />
<glyph unicode="&#xdd;" horiz-adv-x="1409" d="M10 1491h235l460 -664l460 664h235l-599 -863v-628h-192v628zM471 1642l449 290l88 -134l-455 -284z" />
<glyph unicode="&#xde;" horiz-adv-x="1264" d="M171 0v1491h191v-264h284q106 0 196.5 -36.5t155.5 -100.5t102.5 -152t37.5 -192t-37.5 -193t-102.5 -152.5t-155.5 -100t-196.5 -36.5h-284v-264h-191zM362 456h284q59 0 113 21t94.5 59.5t64 91.5t23.5 118q0 63 -23.5 116.5t-64 91.5t-94.5 59.5t-113 21.5h-284v-579z " />
<glyph unicode="&#xdf;" horiz-adv-x="1219" d="M149 -160v1186q0 107 27 198t83 156t141.5 100.5t204.5 35.5q111 0 193 -29.5t136 -80.5t79.5 -119.5t25.5 -144.5q0 -51 -14.5 -101.5t-43.5 -92t-70.5 -72t-93.5 -43.5q71 -8 133 -39.5t107.5 -82.5t72 -121t26.5 -155q0 -108 -36 -192.5t-102 -141t-159 -86.5 t-205 -30q-63 0 -134 7v168q17 -2 36 -2q17 -2 36.5 -2h41.5q73 0 135 16.5t107.5 51t71 86.5t25.5 125q0 75 -28.5 130t-79 92.5t-118.5 55t-144 17.5h-71v171h71q124 0 188.5 64t64.5 177q0 91 -69 147.5t-191 56.5t-193 -80.5t-71 -239.5v-1186h-183z" />
<glyph unicode="&#xe0;" horiz-adv-x="1096" d="M96 309q0 75 25.5 132t72 98.5t108.5 66t137 30.5l300 31q69 6 68 57v28q0 79 -58 127t-178 48q-110 0 -184 -46t-91 -146l-162 88q30 119 132 193.5t297 74.5q221 0 324 -103.5t103 -294.5v-693h-183v151q-55 -81 -144.5 -126.5t-204.5 -45.5q-88 0 -155 25.5 t-112.5 69.5t-70 104t-24.5 131zM287 307q0 -69 50.5 -112.5t148.5 -43.5q77 0 136 25t100.5 65t63 89.5t21.5 100.5v78l-347 -42q-90 -10 -131.5 -55.5t-41.5 -104.5zM292 1500l88 134l449 -290l-83 -128z" />
<glyph unicode="&#xe1;" horiz-adv-x="1096" d="M96 309q0 75 25.5 132t72 98.5t108.5 66t137 30.5l300 31q69 6 68 57v28q0 79 -58 127t-178 48q-110 0 -184 -46t-91 -146l-162 88q30 119 132 193.5t297 74.5q221 0 324 -103.5t103 -294.5v-693h-183v151q-55 -81 -144.5 -126.5t-204.5 -45.5q-88 0 -155 25.5 t-112.5 69.5t-70 104t-24.5 131zM287 307q0 -69 50.5 -112.5t148.5 -43.5q77 0 136 25t100.5 65t63 89.5t21.5 100.5v78l-347 -42q-90 -10 -131.5 -55.5t-41.5 -104.5zM335 1344l449 290l88 -134l-455 -284z" />
<glyph unicode="&#xe2;" horiz-adv-x="1096" d="M96 309q0 75 25.5 132t72 98.5t108.5 66t137 30.5l300 31q69 6 68 57v28q0 79 -58 127t-178 48q-110 0 -184 -46t-91 -146l-162 88q30 119 132 193.5t297 74.5q221 0 324 -103.5t103 -294.5v-693h-183v151q-55 -81 -144.5 -126.5t-204.5 -45.5q-88 0 -155 25.5 t-112.5 69.5t-70 104t-24.5 131zM207 1315l374 321l376 -321l-101 -112l-275 238l-274 -238zM287 307q0 -69 50.5 -112.5t148.5 -43.5q77 0 136 25t100.5 65t63 89.5t21.5 100.5v78l-347 -42q-90 -10 -131.5 -55.5t-41.5 -104.5z" />
<glyph unicode="&#xe3;" horiz-adv-x="1096" d="M96 309q0 75 25.5 132t72 98.5t108.5 66t137 30.5l300 31q69 6 68 57v28q0 79 -58 127t-178 48q-110 0 -184 -46t-91 -146l-162 88q30 119 132 193.5t297 74.5q221 0 324 -103.5t103 -294.5v-693h-183v151q-55 -81 -144.5 -126.5t-204.5 -45.5q-88 0 -155 25.5 t-112.5 69.5t-70 104t-24.5 131zM234 1344q21 26 48 52.5t55.5 46.5t59.5 34t63 14q38 0 73.5 -16t66 -34t57 -34.5t50.5 -16.5q30 0 60 25.5t60 58.5l102 -98q-21 -26 -48 -52.5t-55.5 -47t-59.5 -34t-63 -13.5q-38 0 -73.5 15.5t-66.5 34t-57.5 34.5t-49.5 16 q-31 0 -60.5 -25.5t-58.5 -57.5zM287 307q0 -69 50.5 -112.5t148.5 -43.5q77 0 136 25t100.5 65t63 89.5t21.5 100.5v78l-347 -42q-90 -10 -131.5 -55.5t-41.5 -104.5z" />
<glyph unicode="&#xe4;" horiz-adv-x="1096" d="M96 309q0 75 25.5 132t72 98.5t108.5 66t137 30.5l300 31q69 6 68 57v28q0 79 -58 127t-178 48q-110 0 -184 -46t-91 -146l-162 88q30 119 132 193.5t297 74.5q221 0 324 -103.5t103 -294.5v-693h-183v151q-55 -81 -144.5 -126.5t-204.5 -45.5q-88 0 -155 25.5 t-112.5 69.5t-70 104t-24.5 131zM222 1372q0 61 41.5 102.5t102.5 41.5t103.5 -41.5t42.5 -102.5q0 -62 -42 -103.5t-104 -41.5q-61 0 -102.5 41.5t-41.5 103.5zM287 307q0 -69 50.5 -112.5t148.5 -43.5q77 0 136 25t100.5 65t63 89.5t21.5 100.5v78l-347 -42 q-90 -10 -131.5 -55.5t-41.5 -104.5zM652 1372q0 61 41.5 102.5t103.5 41.5q61 0 102.5 -41.5t41.5 -102.5q0 -62 -41.5 -103.5t-102.5 -41.5q-62 0 -103.5 41.5t-41.5 103.5z" />
<glyph unicode="&#xe5;" horiz-adv-x="1096" d="M96 309q0 75 25.5 132t72 98.5t108.5 66t137 30.5l300 31q69 6 68 57v28q0 79 -58 127t-178 48q-110 0 -184 -46t-91 -146l-162 88q30 119 132 193.5t297 74.5q221 0 324 -103.5t103 -294.5v-693h-183v151q-55 -81 -144.5 -126.5t-204.5 -45.5q-88 0 -155 25.5 t-112.5 69.5t-70 104t-24.5 131zM287 307q0 -69 50.5 -112.5t148.5 -43.5q77 0 136 25t100.5 65t63 89.5t21.5 100.5v78l-347 -42q-90 -10 -131.5 -55.5t-41.5 -104.5zM347 1455q0 102 66 169t168 67t168 -67t66 -169t-66 -168t-168 -66t-168 66t-66 168zM469 1455 q0 -51 30.5 -84.5t81.5 -33.5t82.5 33.5t31.5 84.5t-31.5 83.5t-82.5 32.5t-81.5 -32.5t-30.5 -83.5z" />
<glyph unicode="&#xe6;" horiz-adv-x="1896" d="M96 309q0 75 25.5 132t72 98.5t108.5 66t137 30.5l300 31q69 6 68 57v28q0 79 -58 127t-178 48q-110 0 -184 -46t-91 -146l-162 88q30 119 132 193.5t290 74.5q145 0 237.5 -48.5t141.5 -143.5q63 89 163.5 140.5t236.5 51.5q124 0 218.5 -42.5t159.5 -118.5t98.5 -178 t33.5 -220v-55h-853v-2q4 -81 34.5 -143t78 -103.5t109.5 -62.5t130 -21q117 0 200.5 51.5t136.5 112.5l95 -143q-32 -36 -73.5 -70.5t-93.5 -62t-117 -43.5t-146 -16q-156 0 -268.5 62t-176.5 177q-73 -108 -189 -171t-254 -63q-88 0 -155 25.5t-112.5 69.5t-70 104 t-24.5 131zM287 307q0 -69 50.5 -112.5t150.5 -43.5q75 0 133 25t99.5 65t64 89.5t22.5 100.5v78l-347 -42q-90 -10 -131.5 -55.5t-41.5 -104.5zM1002 624h642q-12 134 -88 215t-223 81q-146 0 -229.5 -81t-101.5 -215z" />
<glyph unicode="&#xe7;" horiz-adv-x="1059" d="M63 530q0 120 39.5 222t113.5 178t177 118.5t231 42.5q124 0 218.5 -40.5t169.5 -115.5l-120 -140q-55 51 -122 85t-156 34q-77 0 -143 -27t-114 -76t-75.5 -119t-27.5 -160q0 -87 27.5 -157t75.5 -120t113 -77t142 -27q95 0 167.5 37.5t127.5 88.5l111 -143 q-55 -55 -131 -95.5t-176 -57.5q31 -42 41 -79.5t10 -74.5q0 -91 -55 -137t-130 -46q-24 0 -52.5 5.5t-55.5 15.5v124q24 -6 43.5 -10.5t36.5 -4.5q30 0 49.5 16.5t19.5 56.5q0 26 -11 58t-36 71q-118 6 -211.5 51.5t-159.5 118.5t-101.5 171t-35.5 213z" />
<glyph unicode="&#xe8;" horiz-adv-x="1154" d="M63 524q0 118 37.5 221t106 180t165.5 121.5t218 44.5q126 0 221.5 -42.5t159.5 -118.5t97 -178t33 -220v-55h-851v-2q4 -81 33.5 -143t76.5 -103.5t108.5 -62.5t129.5 -21q118 0 201 48.5t138 115.5l96 -143q-33 -36 -75 -70.5t-95.5 -62t-117.5 -43.5t-138 -16 q-121 0 -220.5 38.5t-172 109.5t-112 173.5t-39.5 228.5zM258 624h643q-13 134 -88.5 215t-220.5 81q-151 0 -233 -81t-101 -215zM319 1500l88 134l449 -290l-83 -128z" />
<glyph unicode="&#xe9;" horiz-adv-x="1154" d="M63 524q0 118 37.5 221t106 180t165.5 121.5t218 44.5q126 0 221.5 -42.5t159.5 -118.5t97 -178t33 -220v-55h-851v-2q4 -81 33.5 -143t76.5 -103.5t108.5 -62.5t129.5 -21q118 0 201 48.5t138 115.5l96 -143q-33 -36 -75 -70.5t-95.5 -62t-117.5 -43.5t-138 -16 q-121 0 -220.5 38.5t-172 109.5t-112 173.5t-39.5 228.5zM258 624h643q-13 134 -88.5 215t-220.5 81q-151 0 -233 -81t-101 -215zM362 1344l449 290l88 -134l-454 -284z" />
<glyph unicode="&#xea;" horiz-adv-x="1154" d="M63 524q0 118 37.5 221t106 180t165.5 121.5t218 44.5q126 0 221.5 -42.5t159.5 -118.5t97 -178t33 -220v-55h-851v-2q4 -81 33.5 -143t76.5 -103.5t108.5 -62.5t129.5 -21q118 0 201 48.5t138 115.5l96 -143q-33 -36 -75 -70.5t-95.5 -62t-117.5 -43.5t-138 -16 q-121 0 -220.5 38.5t-172 109.5t-112 173.5t-39.5 228.5zM234 1315l375 321l375 -321l-100 -112l-275 238l-274 -238zM258 624h643q-13 134 -88.5 215t-220.5 81q-151 0 -233 -81t-101 -215z" />
<glyph unicode="&#xeb;" horiz-adv-x="1154" d="M63 524q0 118 37.5 221t106 180t165.5 121.5t218 44.5q126 0 221.5 -42.5t159.5 -118.5t97 -178t33 -220v-55h-851v-2q4 -81 33.5 -143t76.5 -103.5t108.5 -62.5t129.5 -21q118 0 201 48.5t138 115.5l96 -143q-33 -36 -75 -70.5t-95.5 -62t-117.5 -43.5t-138 -16 q-121 0 -220.5 38.5t-172 109.5t-112 173.5t-39.5 228.5zM250 1372q0 61 41 102.5t103 41.5t103.5 -41.5t41.5 -102.5q0 -62 -41.5 -103.5t-103.5 -41.5q-61 0 -102.5 41.5t-41.5 103.5zM258 624h643q-13 134 -88.5 215t-220.5 81q-151 0 -233 -81t-101 -215zM679 1372 q0 61 41.5 102.5t104.5 41.5q61 0 102.5 -41.5t41.5 -102.5q0 -62 -41.5 -103.5t-102.5 -41.5q-62 0 -104 41.5t-42 103.5z" />
<glyph unicode="&#xec;" horiz-adv-x="502" d="M-38 1500l87 134l449 -290l-83 -128zM160 0v1065h183v-1065h-183z" />
<glyph unicode="&#xed;" horiz-adv-x="502" d="M4 1344l449 290l88 -134l-454 -284zM160 0v1065h183v-1065h-183z" />
<glyph unicode="&#xee;" horiz-adv-x="502" d="M-124 1315l376 321l374 -321l-100 -112l-274 238l-276 -238zM160 0v1065h183v-1065h-183z" />
<glyph unicode="&#xef;" horiz-adv-x="502" d="M-108 1372q0 61 41 102.5t103 41.5t103.5 -41.5t41.5 -102.5q0 -62 -41.5 -103.5t-103.5 -41.5q-61 0 -102.5 41.5t-41.5 103.5zM160 0v1065h183v-1065h-183zM321 1372q0 61 42 102.5t104 41.5q61 0 103 -41.5t42 -102.5q0 -62 -42 -103.5t-103 -41.5t-103.5 41.5 t-42.5 103.5z" />
<glyph unicode="&#xf0;" horiz-adv-x="1264" d="M63 530q0 126 42 229t113.5 177t169.5 114.5t210 40.5q53 0 109.5 -11t111.5 -35.5t104.5 -66t88.5 -104.5v10q-24 149 -102.5 269.5t-198.5 212.5l-242 -165l-85 118l195 132q-53 30 -110.5 54t-119.5 46l64 144q185 -57 317 -140l171 115l85 -119l-128 -88 q132 -106 211 -256q61 -117 91.5 -254.5t30.5 -296.5q0 -166 -42.5 -294t-124.5 -217q-77 -84 -182 -127.5t-235 -43.5q-119 0 -219.5 41.5t-173 115.5t-112 176t-39.5 223zM254 537q0 -88 26.5 -158t74 -121t115 -79t146.5 -28q77 0 143 27t116 76t77.5 119t27.5 157 q0 82 -24.5 152t-72.5 121t-116 81t-153 30q-84 0 -151 -28t-113.5 -78t-71 -119t-24.5 -152z" />
<glyph unicode="&#xf1;" horiz-adv-x="1228" d="M149 0v1065h177v-143q63 90 156 129.5t197 39.5q102 0 178 -34.5t125 -95t73.5 -147t24.5 -188.5v-626h-188v634q0 141 -69 213.5t-182 72.5q-92 0 -151 -33t-94.5 -89t-49.5 -134t-14 -168v-496h-183zM268 1344q21 26 48 52.5t55.5 46.5t59.5 34t63 14q38 0 73.5 -16 t66.5 -34t57.5 -34.5t50.5 -16.5q30 0 59.5 25.5t58.5 58.5l103 -98q-21 -26 -48 -52.5t-55.5 -47t-59 -34t-63.5 -13.5q-38 0 -73.5 15.5t-66 34t-57 34.5t-50.5 16q-30 0 -60 -25.5t-60 -57.5z" />
<glyph unicode="&#xf2;" horiz-adv-x="1243" d="M63 532q0 120 43 222t117.5 177t176.5 117.5t222 42.5t221.5 -42.5t176.5 -117.5t117.5 -177t42.5 -222q0 -119 -42.5 -221t-117.5 -177t-176.5 -117.5t-221.5 -42.5t-222 42.5t-176.5 117.5t-117.5 177t-43 221zM254 532q0 -83 26.5 -153t74 -120t116 -79t151.5 -29 t151 29t116 79t74.5 120t26.5 153q0 84 -26.5 154t-74.5 120t-116 79t-151 29t-151.5 -29t-116 -79t-74 -120t-26.5 -154zM332 1500l87 134l450 -290l-83 -128z" />
<glyph unicode="&#xf3;" horiz-adv-x="1243" d="M63 532q0 120 43 222t117.5 177t176.5 117.5t222 42.5t221.5 -42.5t176.5 -117.5t117.5 -177t42.5 -222q0 -119 -42.5 -221t-117.5 -177t-176.5 -117.5t-221.5 -42.5t-222 42.5t-176.5 117.5t-117.5 177t-43 221zM254 532q0 -83 26.5 -153t74 -120t116 -79t151.5 -29 t151 29t116 79t74.5 120t26.5 153q0 84 -26.5 154t-74.5 120t-116 79t-151 29t-151.5 -29t-116 -79t-74 -120t-26.5 -154zM374 1344l451 290l87 -134l-454 -284z" />
<glyph unicode="&#xf4;" horiz-adv-x="1243" d="M63 532q0 120 43 222t117.5 177t176.5 117.5t222 42.5t221.5 -42.5t176.5 -117.5t117.5 -177t42.5 -222q0 -119 -42.5 -221t-117.5 -177t-176.5 -117.5t-221.5 -42.5t-222 42.5t-176.5 117.5t-117.5 177t-43 221zM248 1315l374 321l374 -321l-100 -112l-274 238 l-275 -238zM254 532q0 -83 26.5 -153t74 -120t116 -79t151.5 -29t151 29t116 79t74.5 120t26.5 153q0 84 -26.5 154t-74.5 120t-116 79t-151 29t-151.5 -29t-116 -79t-74 -120t-26.5 -154z" />
<glyph unicode="&#xf5;" horiz-adv-x="1243" d="M63 532q0 120 43 222t117.5 177t176.5 117.5t222 42.5t221.5 -42.5t176.5 -117.5t117.5 -177t42.5 -222q0 -119 -42.5 -221t-117.5 -177t-176.5 -117.5t-221.5 -42.5t-222 42.5t-176.5 117.5t-117.5 177t-43 221zM254 532q0 -83 26.5 -153t74 -120t116 -79t151.5 -29 t151 29t116 79t74.5 120t26.5 153q0 84 -26.5 154t-74.5 120t-116 79t-151 29t-151.5 -29t-116 -79t-74 -120t-26.5 -154zM275 1344q20 26 47 52.5t56 46.5t60 34t62 14q39 0 74 -16t66 -34t57.5 -34.5t50.5 -16.5q30 0 59.5 25.5t59.5 58.5l102 -98q-21 -26 -48 -52.5 t-55.5 -47t-59 -34t-62.5 -13.5q-39 0 -74.5 15.5t-66 34t-57 34.5t-50.5 16q-30 0 -59.5 -25.5t-60.5 -57.5z" />
<glyph unicode="&#xf6;" horiz-adv-x="1243" d="M63 532q0 120 43 222t117.5 177t176.5 117.5t222 42.5t221.5 -42.5t176.5 -117.5t117.5 -177t42.5 -222q0 -119 -42.5 -221t-117.5 -177t-176.5 -117.5t-221.5 -42.5t-222 42.5t-176.5 117.5t-117.5 177t-43 221zM254 532q0 -83 26.5 -153t74 -120t116 -79t151.5 -29 t151 29t116 79t74.5 120t26.5 153q0 84 -26.5 154t-74.5 120t-116 79t-151 29t-151.5 -29t-116 -79t-74 -120t-26.5 -154zM262 1372q0 61 41.5 102.5t103.5 41.5q61 0 102.5 -41.5t41.5 -102.5q0 -62 -41 -103.5t-103 -41.5t-103.5 41.5t-41.5 103.5zM693 1372 q0 61 41 102.5t103 41.5t103.5 -41.5t41.5 -102.5q0 -62 -41.5 -103.5t-103.5 -41.5q-61 0 -102.5 41.5t-41.5 103.5z" />
<glyph unicode="&#xf7;" d="M98 573v191h1168v-191h-1168zM494 277q0 70 48 119t118 49q71 0 120 -49t49 -119q0 -71 -49.5 -119t-119.5 -48t-118 48.5t-48 118.5zM494 1059q0 70 48 119t118 49q71 0 120 -49.5t49 -118.5q0 -71 -49.5 -119t-119.5 -48t-118 48t-48 119z" />
<glyph unicode="&#xf8;" horiz-adv-x="1243" d="M63 532q0 120 43 222t117.5 177t176.5 117.5t222 42.5q170 0 305 -85l79 93l112 -97l-77 -93q66 -75 102.5 -169t36.5 -208q0 -119 -42.5 -221t-117.5 -177t-176.5 -117.5t-221.5 -42.5q-171 0 -305 85l-79 -93l-114 95l79 95q-66 75 -103 169t-37 207zM254 532 q0 -136 69 -236l486 573q-40 21 -87 33t-100 12q-83 0 -151.5 -29t-116 -79t-74 -120t-26.5 -154zM435 196q40 -21 87 -33t100 -12q83 0 151 29t116 79t74.5 120t26.5 153q0 137 -70 237z" />
<glyph unicode="&#xf9;" horiz-adv-x="1213" d="M149 435v630h188v-630q0 -64 10.5 -117.5t38 -92t74 -59.5t119.5 -21q92 0 150.5 35t92.5 93.5t47 135.5t13 160v496h183v-1065h-177v153q-61 -90 -140 -134.5t-201 -44.5q-113 0 -188.5 35.5t-122.5 96t-67 145t-20 184.5zM317 1500l88 134l449 -290l-83 -128z" />
<glyph unicode="&#xfa;" horiz-adv-x="1213" d="M149 435v630h188v-630q0 -64 10.5 -117.5t38 -92t74 -59.5t119.5 -21q92 0 150.5 35t92.5 93.5t47 135.5t13 160v496h183v-1065h-177v153q-61 -90 -140 -134.5t-201 -44.5q-113 0 -188.5 35.5t-122.5 96t-67 145t-20 184.5zM360 1344l449 290l87 -134l-453 -284z" />
<glyph unicode="&#xfb;" horiz-adv-x="1213" d="M149 435v630h188v-630q0 -64 10.5 -117.5t38 -92t74 -59.5t119.5 -21q92 0 150.5 35t92.5 93.5t47 135.5t13 160v496h183v-1065h-177v153q-61 -90 -140 -134.5t-201 -44.5q-113 0 -188.5 35.5t-122.5 96t-67 145t-20 184.5zM232 1315l375 321l375 -321l-100 -112 l-275 238l-275 -238z" />
<glyph unicode="&#xfc;" horiz-adv-x="1213" d="M149 435v630h188v-630q0 -64 10.5 -117.5t38 -92t74 -59.5t119.5 -21q92 0 150.5 35t92.5 93.5t47 135.5t13 160v496h183v-1065h-177v153q-61 -90 -140 -134.5t-201 -44.5q-113 0 -188.5 35.5t-122.5 96t-67 145t-20 184.5zM248 1372q0 61 41 102.5t103 41.5 q61 0 103 -41.5t42 -102.5q0 -62 -42 -103.5t-103 -41.5t-102.5 41.5t-41.5 103.5zM677 1372q0 61 41.5 102.5t104.5 41.5q61 0 102.5 -41.5t41.5 -102.5q0 -62 -41.5 -103.5t-102.5 -41.5q-62 0 -104 41.5t-42 103.5z" />
<glyph unicode="&#xfd;" horiz-adv-x="1118" d="M21 1065h221l341 -711l331 711h194l-689 -1491h-197l264 566zM313 1344l449 290l88 -134l-454 -284z" />
<glyph unicode="&#xfe;" horiz-adv-x="1283" d="M149 -426v1917h183v-579q59 79 152 129t223 50q108 0 203.5 -39.5t163.5 -112t107.5 -176t39.5 -231.5q0 -127 -39.5 -230.5t-107.5 -176t-163.5 -112t-203.5 -39.5q-128 0 -218.5 50.5t-156.5 131.5v-582h-183zM319 532q0 -176 96 -281.5t260 -105.5q83 0 149 29t112 80 t70.5 122t24.5 156q0 86 -24.5 157t-70.5 122t-112 80t-149 29q-164 0 -260 -105.5t-96 -282.5z" />
<glyph unicode="&#xff;" horiz-adv-x="1118" d="M21 1065h221l341 -711l331 711h194l-689 -1491h-197l264 566zM201 1372q0 61 41 102.5t103 41.5t103.5 -41.5t41.5 -102.5q0 -62 -41.5 -103.5t-103.5 -41.5q-61 0 -102.5 41.5t-41.5 103.5zM630 1372q0 61 41.5 102.5t103.5 41.5q61 0 103 -41.5t42 -102.5 q0 -62 -41.5 -103.5t-103.5 -41.5t-103.5 41.5t-41.5 103.5z" />
<glyph unicode="&#x100;" horiz-adv-x="1630" d="M21 0l695 1491h200l694 -1491h-210l-122 262h-924l-122 -262h-211zM443 453h746l-374 805zM496 1612v150h640v-150h-640z" />
<glyph unicode="&#x101;" horiz-adv-x="1096" d="M96 309q0 75 25.5 132t72 98.5t108.5 66t137 30.5l300 31q69 6 68 57v28q0 79 -58 127t-178 48q-110 0 -184 -46t-91 -146l-162 88q30 119 132 193.5t297 74.5q221 0 324 -103.5t103 -294.5v-693h-183v151q-55 -81 -144.5 -126.5t-204.5 -45.5q-88 0 -155 25.5 t-112.5 69.5t-70 104t-24.5 131zM262 1315v148h639v-148h-639zM287 307q0 -69 50.5 -112.5t148.5 -43.5q77 0 136 25t100.5 65t63 89.5t21.5 100.5v78l-347 -42q-90 -10 -131.5 -55.5t-41.5 -104.5z" />
<glyph unicode="&#x102;" horiz-adv-x="1630" d="M21 0l695 1491h200l694 -1491h-210l-122 262h-924l-122 -262h-211zM443 453h746l-374 805zM514 1876h155q0 -85 38.5 -128.5t107.5 -43.5q71 0 109.5 43.5t38.5 128.5h155q0 -146 -79.5 -235.5t-223.5 -89.5q-142 0 -221.5 89.5t-79.5 235.5z" />
<glyph unicode="&#x103;" horiz-adv-x="1096" d="M96 309q0 75 25.5 132t72 98.5t108.5 66t137 30.5l300 31q69 6 68 57v28q0 79 -58 127t-178 48q-110 0 -184 -46t-91 -146l-162 88q30 119 132 193.5t297 74.5q221 0 324 -103.5t103 -294.5v-693h-183v151q-55 -81 -144.5 -126.5t-204.5 -45.5q-88 0 -155 25.5 t-112.5 69.5t-70 104t-24.5 131zM279 1557h156q0 -85 38.5 -129t107.5 -44q71 0 109 44t38 129h156q0 -147 -80 -236.5t-223 -89.5q-142 0 -222 89.5t-80 236.5zM287 307q0 -69 50.5 -112.5t148.5 -43.5q77 0 136 25t100.5 65t63 89.5t21.5 100.5v78l-347 -42 q-90 -10 -131.5 -55.5t-41.5 -104.5z" />
<glyph unicode="&#x104;" horiz-adv-x="1630" d="M21 0l695 1491h200l694 -1491h-140q-96 -102 -96 -164q0 -26 19 -44t60 -18q17 0 37 4.5t44 8.5v-124q-55 -19 -109 -19q-75 0 -130 46t-55 129q0 55 32.5 106t107.5 118l-102 219h-924l-122 -262h-211zM443 453h746l-374 805z" />
<glyph unicode="&#x105;" horiz-adv-x="1096" d="M96 309q0 75 25.5 132t72 98.5t108.5 66t137 30.5l300 31q69 6 68 57v28q0 79 -58 127t-178 48q-110 0 -184 -46t-91 -146l-162 88q30 119 132 193.5t297 74.5q221 0 324 -103.5t103 -294.5v-630h9q-2 -2 -4.5 -3t-4.5 -5v-55h-59q-96 -102 -96 -164q0 -26 19.5 -44 t59.5 -18q17 0 37 4.5t43 8.5v-124q-55 -19 -108 -19q-75 0 -130 46t-55 129q0 49 25.5 93.5t80.5 99.5v139q-55 -81 -144.5 -126.5t-204.5 -45.5q-88 0 -155 25.5t-112.5 69.5t-70 104t-24.5 131zM287 307q0 -69 50.5 -112.5t148.5 -43.5q77 0 136 25t100.5 65t63 89.5 t21.5 100.5v78l-347 -42q-90 -10 -131.5 -55.5t-41.5 -104.5z" />
<glyph unicode="&#x106;" horiz-adv-x="1424" d="M106 748q0 158 58 294t158 236t236.5 156.5t293.5 56.5q160 0 288 -56.5t232 -148.5l-88 -180q-81 81 -186.5 137t-251.5 56q-120 0 -220 -40.5t-172 -113t-114 -174.5t-42 -225q0 -124 42 -226.5t114 -175t171 -113t214 -40.5q153 0 264 57t192 134l87 -181 q-106 -96 -240 -148.5t-303 -52.5q-151 0 -285.5 56.5t-233 157.5t-156.5 237.5t-58 296.5zM616 1642l449 290l87 -134l-453 -284z" />
<glyph unicode="&#x107;" horiz-adv-x="1059" d="M63 530q0 120 39.5 222t113.5 178t177 118.5t231 42.5q124 0 218.5 -40.5t169.5 -115.5l-120 -140q-55 51 -122 85t-156 34q-77 0 -143 -27t-114 -76t-75.5 -119t-27.5 -160q0 -87 27.5 -157t75.5 -120t113 -77t142 -27q95 0 167.5 37.5t127.5 88.5l111 -143 q-68 -68 -168 -114t-236 -46q-126 0 -228.5 41.5t-174 116.5t-110 176t-38.5 222zM366 1344l449 290l88 -134l-454 -284z" />
<glyph unicode="&#x108;" horiz-adv-x="1424" d="M106 748q0 158 58 294t158 236t236.5 156.5t293.5 56.5q160 0 288 -56.5t232 -148.5l-88 -180q-81 81 -186.5 137t-251.5 56q-120 0 -220 -40.5t-172 -113t-114 -174.5t-42 -225q0 -124 42 -226.5t114 -175t171 -113t214 -40.5q153 0 264 57t192 134l87 -181 q-106 -96 -240 -148.5t-303 -52.5q-151 0 -285.5 56.5t-233 157.5t-156.5 237.5t-58 296.5zM475 1634l375 321l375 -321l-101 -111l-274 239l-275 -239z" />
<glyph unicode="&#x109;" horiz-adv-x="1059" d="M63 530q0 120 39.5 222t113.5 178t177 118.5t231 42.5q124 0 218.5 -40.5t169.5 -115.5l-120 -140q-55 51 -122 85t-156 34q-77 0 -143 -27t-114 -76t-75.5 -119t-27.5 -160q0 -87 27.5 -157t75.5 -120t113 -77t142 -27q95 0 167.5 37.5t127.5 88.5l111 -143 q-68 -68 -168 -114t-236 -46q-126 0 -228.5 41.5t-174 116.5t-110 176t-38.5 222zM238 1315l376 321l374 -321l-100 -112l-274 238l-275 -238z" />
<glyph unicode="&#x10a;" horiz-adv-x="1424" d="M106 748q0 158 58 294t158 236t236.5 156.5t293.5 56.5q160 0 288 -56.5t232 -148.5l-88 -180q-81 81 -186.5 137t-251.5 56q-120 0 -220 -40.5t-172 -113t-114 -174.5t-42 -225q0 -124 42 -226.5t114 -175t171 -113t214 -40.5q153 0 264 57t192 134l87 -181 q-106 -96 -240 -148.5t-303 -52.5q-151 0 -285.5 56.5t-233 157.5t-156.5 237.5t-58 296.5zM705 1691q0 61 41.5 103t103.5 42q61 0 102.5 -41.5t41.5 -103.5q0 -61 -41 -103t-103 -42t-103.5 42t-41.5 103z" />
<glyph unicode="&#x10b;" horiz-adv-x="1059" d="M63 530q0 120 39.5 222t113.5 178t177 118.5t231 42.5q124 0 218.5 -40.5t169.5 -115.5l-120 -140q-55 51 -122 85t-156 34q-77 0 -143 -27t-114 -76t-75.5 -119t-27.5 -160q0 -87 27.5 -157t75.5 -120t113 -77t142 -27q95 0 167.5 37.5t127.5 88.5l111 -143 q-68 -68 -168 -114t-236 -46q-126 0 -228.5 41.5t-174 116.5t-110 176t-38.5 222zM469 1372q0 61 41 102.5t104 41.5q61 0 102.5 -41.5t41.5 -102.5q0 -62 -41.5 -103.5t-102.5 -41.5q-62 0 -103.5 41.5t-41.5 103.5z" />
<glyph unicode="&#x10c;" horiz-adv-x="1424" d="M106 748q0 158 58 294t158 236t236.5 156.5t293.5 56.5q160 0 288 -56.5t232 -148.5l-88 -180q-81 81 -186.5 137t-251.5 56q-120 0 -220 -40.5t-172 -113t-114 -174.5t-42 -225q0 -124 42 -226.5t114 -175t171 -113t214 -40.5q153 0 264 57t192 134l87 -181 q-106 -96 -240 -148.5t-303 -52.5q-151 0 -285.5 56.5t-233 157.5t-156.5 237.5t-58 296.5zM475 1866l100 111l275 -239l274 239l101 -111l-375 -322z" />
<glyph unicode="&#x10d;" horiz-adv-x="1059" d="M63 530q0 120 39.5 222t113.5 178t177 118.5t231 42.5q124 0 218.5 -40.5t169.5 -115.5l-120 -140q-55 51 -122 85t-156 34q-77 0 -143 -27t-114 -76t-75.5 -119t-27.5 -160q0 -87 27.5 -157t75.5 -120t113 -77t142 -27q95 0 167.5 37.5t127.5 88.5l111 -143 q-68 -68 -168 -114t-236 -46q-126 0 -228.5 41.5t-174 116.5t-110 176t-38.5 222zM238 1504l101 110l275 -238l274 238l100 -110l-374 -322z" />
<glyph unicode="&#x10e;" horiz-adv-x="1530" d="M171 0v1491h510q158 0 294.5 -56.5t236.5 -155.5t156.5 -235.5t56.5 -297.5q0 -163 -56.5 -299t-156.5 -235t-236.5 -155.5t-294.5 -56.5h-510zM222 1866l99 111l275 -239l276 239l99 -111l-375 -322zM362 191h319q120 0 221.5 40.5t174.5 114t114.5 176t41.5 224.5 q0 121 -41.5 222t-114.5 174.5t-174.5 115t-221.5 41.5h-319v-1108z" />
<glyph unicode="&#x10f;" horiz-adv-x="1599" d="M63 532q0 128 39.5 231.5t108 176t163.5 112t203 39.5q128 0 218.5 -50.5t156.5 -131.5v582h184v-1491h-184v153q-60 -79 -152.5 -129t-222.5 -50q-108 0 -203 39.5t-163.5 112t-108 176t-39.5 230.5zM254 532q0 -85 24.5 -156t70 -122t111.5 -80t149 -29 q165 0 260.5 105.5t95.5 281.5q0 177 -95.5 282.5t-260.5 105.5q-83 0 -149 -29t-111.5 -80t-70 -122t-24.5 -157zM1242 945l151 260q-53 15 -86 57.5t-33 96.5q0 62 44.5 109.5t112.5 47.5q69 0 113.5 -47.5t44.5 -109.5q0 -42 -20 -75l-221 -398z" />
<glyph unicode="&#x110;" horiz-adv-x="1530" d="M0 660v192h171v639h510q158 0 294.5 -56.5t236.5 -155.5t156.5 -235.5t56.5 -297.5q0 -163 -56.5 -299t-156.5 -235t-236.5 -155.5t-294.5 -56.5h-510v660h-171zM362 191h319q120 0 221.5 40.5t174.5 114t114.5 176t41.5 224.5q0 121 -41.5 222t-114.5 174.5t-174.5 115 t-221.5 41.5h-319v-447h362v-192h-362v-469z" />
<glyph unicode="&#x111;" horiz-adv-x="1285" d="M63 532q0 128 39.5 231.5t108 176t163.5 112t203 39.5q128 0 218.5 -50.5t156.5 -131.5v337h-251v142h251v103h184v-103h140v-142h-140v-1246h-184v153q-60 -79 -152.5 -129t-222.5 -50q-108 0 -203 39.5t-163.5 112t-108 176t-39.5 230.5zM254 532q0 -85 24.5 -156 t70 -122t111.5 -80t149 -29q165 0 260.5 105.5t95.5 281.5q0 177 -95.5 282.5t-260.5 105.5q-83 0 -149 -29t-111.5 -80t-70 -122t-24.5 -157z" />
<glyph unicode="&#x112;" horiz-adv-x="1203" d="M171 0v1491h915v-192h-724v-458h724v-191h-724v-459h724v-191h-915zM307 1612v150h638v-150h-638z" />
<glyph unicode="&#x113;" horiz-adv-x="1154" d="M63 524q0 118 37.5 221t106 180t165.5 121.5t218 44.5q126 0 221.5 -42.5t159.5 -118.5t97 -178t33 -220v-55h-851v-2q4 -81 33.5 -143t76.5 -103.5t108.5 -62.5t129.5 -21q118 0 201 48.5t138 115.5l96 -143q-33 -36 -75 -70.5t-95.5 -62t-117.5 -43.5t-138 -16 q-121 0 -220.5 38.5t-172 109.5t-112 173.5t-39.5 228.5zM258 624h643q-13 134 -88.5 215t-220.5 81q-151 0 -233 -81t-101 -215zM290 1315v148h639v-148h-639z" />
<glyph unicode="&#x114;" horiz-adv-x="1203" d="M171 0v1491h915v-192h-724v-458h724v-191h-724v-459h724v-191h-915zM323 1876h156q0 -85 38.5 -128.5t108.5 -43.5q71 0 109 43.5t38 128.5h156q0 -146 -80 -235.5t-223 -89.5q-142 0 -222.5 89.5t-80.5 235.5z" />
<glyph unicode="&#x115;" horiz-adv-x="1154" d="M63 524q0 118 37.5 221t106 180t165.5 121.5t218 44.5q126 0 221.5 -42.5t159.5 -118.5t97 -178t33 -220v-55h-851v-2q4 -81 33.5 -143t76.5 -103.5t108.5 -62.5t129.5 -21q118 0 201 48.5t138 115.5l96 -143q-33 -36 -75 -70.5t-95.5 -62t-117.5 -43.5t-138 -16 q-121 0 -220.5 38.5t-172 109.5t-112 173.5t-39.5 228.5zM258 624h643q-13 134 -88.5 215t-220.5 81q-151 0 -233 -81t-101 -215zM307 1557h155q0 -85 38.5 -129t108.5 -44q71 0 109 44t38 129h156q0 -147 -80 -236.5t-223 -89.5q-142 0 -222 89.5t-80 236.5z" />
<glyph unicode="&#x116;" horiz-adv-x="1203" d="M171 0v1491h915v-192h-724v-458h724v-191h-724v-459h724v-191h-915zM482 1691q0 61 41.5 103t102.5 42t103 -41.5t42 -103.5q0 -61 -41.5 -103t-103.5 -42q-61 0 -102.5 42t-41.5 103z" />
<glyph unicode="&#x117;" horiz-adv-x="1154" d="M63 524q0 118 37.5 221t106 180t165.5 121.5t218 44.5q126 0 221.5 -42.5t159.5 -118.5t97 -178t33 -220v-55h-851v-2q4 -81 33.5 -143t76.5 -103.5t108.5 -62.5t129.5 -21q118 0 201 48.5t138 115.5l96 -143q-33 -36 -75 -70.5t-95.5 -62t-117.5 -43.5t-138 -16 q-121 0 -220.5 38.5t-172 109.5t-112 173.5t-39.5 228.5zM258 624h643q-13 134 -88.5 215t-220.5 81q-151 0 -233 -81t-101 -215zM464 1372q0 61 41.5 102.5t103.5 41.5t103.5 -41.5t41.5 -102.5q0 -62 -41.5 -103.5t-103.5 -41.5q-61 0 -103 41.5t-42 103.5z" />
<glyph unicode="&#x118;" horiz-adv-x="1203" d="M171 0v1491h915v-192h-724v-458h724v-191h-724v-459h724v-191h-90q-95 -102 -95 -164q0 -26 19 -44t60 -18q16 0 36.5 4.5t44.5 8.5v-124q-55 -19 -109 -19q-75 0 -130.5 46t-55.5 129q0 47 22.5 89.5t71.5 91.5h-689z" />
<glyph unicode="&#x119;" horiz-adv-x="1154" d="M63 524q0 118 37.5 221t106 180t165.5 121.5t218 44.5q126 0 221.5 -42.5t159.5 -118.5t97 -178t33 -220v-55h-851v-2q4 -81 33.5 -143t76.5 -103.5t108.5 -62.5t129.5 -21q118 0 201 48.5t138 115.5l96 -143q-24 -28 -53.5 -53.5t-65.5 -49.5q-87 -74 -125.5 -132.5 t-38.5 -94.5q0 -26 19 -44t60 -18q17 0 37 4.5t43 8.5v-124q-55 -19 -108 -19q-75 0 -130 46t-55 129q0 43 17 81.5t58 80.5q-43 -6 -84 -7q-121 0 -220.5 38.5t-172 109.5t-112 173.5t-39.5 228.5zM258 624h643q-13 134 -88.5 215t-220.5 81q-151 0 -233 -81t-101 -215z " />
<glyph unicode="&#x11a;" horiz-adv-x="1203" d="M171 0v1491h915v-192h-724v-458h724v-191h-724v-459h724v-191h-915zM252 1866l100 111l274 -239l275 239l101 -111l-376 -322z" />
<glyph unicode="&#x11b;" horiz-adv-x="1154" d="M63 524q0 118 37.5 221t106 180t165.5 121.5t218 44.5q126 0 221.5 -42.5t159.5 -118.5t97 -178t33 -220v-55h-851v-2q4 -81 33.5 -143t76.5 -103.5t108.5 -62.5t129.5 -21q118 0 201 48.5t138 115.5l96 -143q-33 -36 -75 -70.5t-95.5 -62t-117.5 -43.5t-138 -16 q-121 0 -220.5 38.5t-172 109.5t-112 173.5t-39.5 228.5zM234 1504l101 110l274 -238l275 238l100 -110l-375 -322zM258 624h643q-13 134 -88.5 215t-220.5 81q-151 0 -233 -81t-101 -215z" />
<glyph unicode="&#x11c;" horiz-adv-x="1618" d="M106 746q0 160 56.5 296t156.5 236t238 156.5t299 56.5q160 0 287 -56.5t231 -148.5l-88 -180q-81 81 -186.5 137t-251.5 56q-120 0 -221 -40.5t-174 -113t-114 -174.5t-41 -225q0 -124 41 -226.5t114 -175t174 -113t223 -40.5q104 0 192 30.5t154.5 86.5t108 134 t54.5 174h-569v191h787v-8q0 -177 -48.5 -323t-140 -252t-224.5 -165t-302 -59q-166 0 -304.5 56.5t-238.5 156.5t-156.5 236.5t-56.5 296.5zM473 1634l375 321l375 -321l-101 -111l-274 239l-275 -239z" />
<glyph unicode="&#x11d;" horiz-adv-x="1305" d="M85 532q0 128 39.5 231.5t110 176t165 112t205.5 39.5q134 0 228 -50.5t140 -120.5v145h183v-1008q0 -95 -21 -187t-78.5 -163t-157.5 -115.5t-256 -44.5q-100 0 -176.5 19t-134 53t-100.5 82.5t-72 107.5l143 112q51 -102 136 -157.5t219 -55.5q100 0 163 30t98.5 80 t48 113t12.5 126v88q-51 -75 -148 -123t-225 -48q-119 0 -215 39.5t-164 112t-105.5 176t-37.5 230.5zM275 532q0 -85 25.5 -156t72 -122t113.5 -80t150 -29q165 0 257.5 105.5t92.5 281.5q0 177 -92.5 282.5t-257.5 105.5q-83 0 -150 -29t-113.5 -80t-72 -122t-25.5 -157z M279 1315l375 321l375 -321l-100 -112l-275 238l-274 -238z" />
<glyph unicode="&#x11e;" horiz-adv-x="1618" d="M106 746q0 160 56.5 296t156.5 236t238 156.5t299 56.5q160 0 287 -56.5t231 -148.5l-88 -180q-81 81 -186.5 137t-251.5 56q-120 0 -221 -40.5t-174 -113t-114 -174.5t-41 -225q0 -124 41 -226.5t114 -175t174 -113t223 -40.5q104 0 192 30.5t154.5 86.5t108 134 t54.5 174h-569v191h787v-8q0 -177 -48.5 -323t-140 -252t-224.5 -165t-302 -59q-166 0 -304.5 56.5t-238.5 156.5t-156.5 236.5t-56.5 296.5zM545 1876h156q0 -85 38.5 -128.5t108.5 -43.5t108 43.5t38 128.5h156q0 -146 -80 -235.5t-222 -89.5q-143 0 -223 89.5t-80 235.5z " />
<glyph unicode="&#x11f;" horiz-adv-x="1305" d="M85 532q0 128 39.5 231.5t110 176t165 112t205.5 39.5q134 0 228 -50.5t140 -120.5v145h183v-1008q0 -95 -21 -187t-78.5 -163t-157.5 -115.5t-256 -44.5q-100 0 -176.5 19t-134 53t-100.5 82.5t-72 107.5l143 112q51 -102 136 -157.5t219 -55.5q100 0 163 30t98.5 80 t48 113t12.5 126v88q-51 -75 -148 -123t-225 -48q-119 0 -215 39.5t-164 112t-105.5 176t-37.5 230.5zM275 532q0 -85 25.5 -156t72 -122t113.5 -80t150 -29q165 0 257.5 105.5t92.5 281.5q0 177 -92.5 282.5t-257.5 105.5q-83 0 -150 -29t-113.5 -80t-72 -122t-25.5 -157z M352 1557h154q0 -85 38.5 -129t109.5 -44t109 44t38 129h156q0 -147 -80 -236.5t-223 -89.5q-142 0 -222 89.5t-80 236.5z" />
<glyph unicode="&#x120;" horiz-adv-x="1618" d="M106 746q0 160 56.5 296t156.5 236t238 156.5t299 56.5q160 0 287 -56.5t231 -148.5l-88 -180q-81 81 -186.5 137t-251.5 56q-120 0 -221 -40.5t-174 -113t-114 -174.5t-41 -225q0 -124 41 -226.5t114 -175t174 -113t223 -40.5q104 0 192 30.5t154.5 86.5t108 134 t54.5 174h-569v191h787v-8q0 -177 -48.5 -323t-140 -252t-224.5 -165t-302 -59q-166 0 -304.5 56.5t-238.5 156.5t-156.5 236.5t-56.5 296.5zM703 1691q0 61 41.5 103t103.5 42q61 0 102.5 -41.5t41.5 -103.5q0 -61 -41.5 -103t-102.5 -42q-62 0 -103.5 42t-41.5 103z" />
<glyph unicode="&#x121;" horiz-adv-x="1305" d="M85 532q0 128 39.5 231.5t110 176t165 112t205.5 39.5q134 0 228 -50.5t140 -120.5v145h183v-1008q0 -95 -21 -187t-78.5 -163t-157.5 -115.5t-256 -44.5q-100 0 -176.5 19t-134 53t-100.5 82.5t-72 107.5l143 112q51 -102 136 -157.5t219 -55.5q100 0 163 30t98.5 80 t48 113t12.5 126v88q-51 -75 -148 -123t-225 -48q-119 0 -215 39.5t-164 112t-105.5 176t-37.5 230.5zM275 532q0 -85 25.5 -156t72 -122t113.5 -80t150 -29q165 0 257.5 105.5t92.5 281.5q0 177 -92.5 282.5t-257.5 105.5q-83 0 -150 -29t-113.5 -80t-72 -122t-25.5 -157z M509 1372q0 61 41.5 102.5t103.5 41.5t103.5 -41.5t41.5 -102.5q0 -62 -41.5 -103.5t-103.5 -41.5q-61 0 -103 41.5t-42 103.5z" />
<glyph unicode="&#x122;" horiz-adv-x="1618" d="M106 746q0 160 56.5 296t156.5 236t238 156.5t299 56.5q160 0 287 -56.5t231 -148.5l-88 -180q-81 81 -186.5 137t-251.5 56q-120 0 -221 -40.5t-174 -113t-114 -174.5t-41 -225q0 -124 41 -226.5t114 -175t174 -113t223 -40.5q104 0 192 30.5t154.5 86.5t108 134 t54.5 174h-569v191h787v-8q0 -177 -48.5 -323t-140 -252t-224.5 -165t-302 -59q-166 0 -304.5 56.5t-238.5 156.5t-156.5 236.5t-56.5 296.5zM677 -201q0 55 38.5 93.5t93.5 38.5t93.5 -38t38.5 -94q0 -16 -5 -33.5t-14 -31.5l-156 -275l-87 49l99 164q-43 11 -72 45.5 t-29 81.5z" />
<glyph unicode="&#x123;" horiz-adv-x="1305" d="M85 532q0 128 39.5 231.5t110 176t165 112t205.5 39.5q134 0 228 -50.5t140 -120.5v145h183v-1008q0 -95 -21 -187t-78.5 -163t-157.5 -115.5t-256 -44.5q-100 0 -176.5 19t-134 53t-100.5 82.5t-72 107.5l143 112q51 -102 136 -157.5t219 -55.5q100 0 163 30t98.5 80 t48 113t12.5 126v88q-51 -75 -148 -123t-225 -48q-119 0 -215 39.5t-164 112t-105.5 176t-37.5 230.5zM275 532q0 -85 25.5 -156t72 -122t113.5 -80t150 -29q165 0 257.5 105.5t92.5 281.5q0 177 -92.5 282.5t-257.5 105.5q-83 0 -150 -29t-113.5 -80t-72 -122t-25.5 -157z M469 1325q0 17 5 34t14 31l155 276l87 -50l-98 -163q43 -11 72 -46t29 -82q0 -55 -38.5 -93.5t-93.5 -38.5t-93.5 38.5t-38.5 93.5z" />
<glyph unicode="&#x124;" horiz-adv-x="1575" d="M171 0v1491h191v-650h852v650h192v-1491h-192v650h-852v-650h-191zM413 1634l375 321l375 -321l-100 -111l-275 239l-274 -239z" />
<glyph unicode="&#x125;" horiz-adv-x="1207" d="M-126 1634l376 321l374 -321l-100 -111l-274 239l-276 -239zM149 0v1491h183v-566q121 166 347 166q102 0 178 -34.5t125 -95t73.5 -147t24.5 -188.5v-626h-188v634q0 132 -64 209t-185 77q-92 0 -152 -33t-95.5 -89t-49.5 -134t-14 -168v-496h-183z" />
<glyph unicode="&#x126;" horiz-adv-x="1575" d="M63 1059v191h108v241h191v-241h852v241h192v-241h106v-191h-106v-1059h-192v650h-852v-650h-191v1059h-108zM362 841h852v218h-852v-218z" />
<glyph unicode="&#x127;" horiz-adv-x="1207" d="M4 1246v142h145v103h183v-103h231v-142h-231v-321q121 166 347 166q102 0 178 -34.5t125 -95t73.5 -147t24.5 -188.5v-626h-188v634q0 132 -64 209t-185 77q-92 0 -152 -33t-95.5 -89t-49.5 -134t-14 -168v-496h-183v1246h-145z" />
<glyph unicode="&#x128;" horiz-adv-x="532" d="M-77 1685q21 26 48 52.5t55.5 46.5t60 33.5t62.5 13.5q38 0 73.5 -15.5t66 -33.5t57 -34t50.5 -16q30 0 60 25.5t60 57.5l102 -98q-21 -26 -48 -52.5t-55.5 -47t-59.5 -34.5t-63 -14q-38 0 -73.5 16.5t-66 34.5t-57.5 34t-50 16q-31 0 -60.5 -26t-58.5 -57zM171 0v1491 h191v-1491h-191z" />
<glyph unicode="&#x129;" horiz-adv-x="502" d="M-96 1344q21 26 48 52.5t55.5 46.5t59.5 34t63 14q38 0 73 -16t66.5 -34t58 -34.5t48.5 -16.5q31 0 61 25.5t59 58.5l102 -98q-21 -26 -47.5 -52.5t-55 -47t-59.5 -34t-64 -13.5q-38 0 -73 15.5t-65.5 34t-57.5 34.5t-50 16q-30 0 -60 -25.5t-60 -57.5zM160 0v1065h183 v-1065h-183z" />
<glyph unicode="&#x12a;" horiz-adv-x="532" d="M-53 1612v150h639v-150h-639zM171 0v1491h191v-1491h-191z" />
<glyph unicode="&#x12b;" horiz-adv-x="502" d="M-69 1315v148h640v-148h-640zM160 0v1065h183v-1065h-183z" />
<glyph unicode="&#x12c;" horiz-adv-x="532" d="M-36 1876h156q0 -85 38 -128.5t108 -43.5q71 0 109 43.5t38 128.5h156q0 -146 -80 -235.5t-223 -89.5q-142 0 -222 89.5t-80 235.5zM171 0v1491h191v-1491h-191z" />
<glyph unicode="&#x12d;" horiz-adv-x="502" d="M-51 1557h155q0 -85 38.5 -129t109.5 -44q70 0 108 44t38 129h155q0 -147 -79.5 -236.5t-221.5 -89.5q-143 0 -223 89.5t-80 236.5zM160 0v1065h183v-1065h-183z" />
<glyph unicode="&#x12e;" horiz-adv-x="532" d="M57 -181q0 51 25.5 98t88.5 102v1472h191v-1491h-75q-96 -102 -96 -164q0 -26 19.5 -44t59.5 -18q17 0 37.5 4.5t44.5 8.5v-124q-56 -19 -110 -19q-75 0 -130 46t-55 129z" />
<glyph unicode="&#x12f;" horiz-adv-x="502" d="M45 -181q0 51 26.5 98t88.5 104v1044h183v-1065h-68q-96 -102 -96 -164q0 -26 19 -44t60 -18q17 0 37 4.5t44 8.5v-124q-55 -19 -109 -19q-75 0 -130 46t-55 129zM106 1372q0 61 41.5 102.5t104.5 41.5q61 0 102.5 -41.5t41.5 -102.5q0 -62 -41.5 -103.5t-102.5 -41.5 q-62 0 -104 41.5t-42 103.5z" />
<glyph unicode="&#x130;" horiz-adv-x="532" d="M122 1691q0 61 41.5 103t102.5 42q62 0 103.5 -41.5t41.5 -103.5q0 -61 -41.5 -103t-103.5 -42q-61 0 -102.5 42t-41.5 103zM171 0v1491h191v-1491h-191z" />
<glyph unicode="&#x131;" horiz-adv-x="502" d="M160 0v1065h183v-1065h-183z" />
<glyph unicode="&#x134;" horiz-adv-x="1047" d="M32 424l177 88q0 -64 14.5 -123t47 -103t81 -69.5t117.5 -25.5q63 0 109 22.5t74.5 61t41.5 88.5t13 108v1020h192v-1020q0 -104 -28 -191t-82 -149t-135 -96.5t-185 -34.5q-117 0 -200.5 39.5t-135.5 100.5t-76.5 136.5t-24.5 147.5zM428 1634l375 321l375 -321 l-101 -111l-274 239l-275 -239z" />
<glyph unicode="&#x135;" horiz-adv-x="542" d="M-96 1293l375 321l375 -321l-101 -111l-274 239l-275 -239zM-63 -258h8q77 0 125 14t74.5 41.5t35.5 65t9 86.5v1116h183v-1116q0 -96 -22 -168.5t-72 -120.5t-132.5 -71.5t-200.5 -23.5h-8v177z" />
<glyph unicode="&#x136;" horiz-adv-x="1378" d="M171 0v1491h191v-743l735 743h271l-644 -650l644 -841h-244l-536 703l-226 -228v-475h-191zM558 -201q0 55 38 93.5t95 38.5q55 0 93.5 -38t38.5 -94q0 -16 -6 -33.5t-14 -31.5l-155 -275l-87 49l97 164q-42 11 -71 45.5t-29 81.5z" />
<glyph unicode="&#x137;" horiz-adv-x="1096" d="M149 0v1491h183v-942l485 516h258l-459 -464l459 -601h-238l-345 475l-160 -162v-313h-183zM417 -201q0 55 38.5 93.5t93.5 38.5t93.5 -38t38.5 -94q0 -16 -5 -33.5t-14 -31.5l-156 -275l-87 49l99 164q-43 11 -72 45.5t-29 81.5z" />
<glyph unicode="&#x138;" horiz-adv-x="1096" d="M149 0v1065h183v-516l485 516h258l-459 -464l459 -601h-238l-345 475l-160 -162v-313h-183z" />
<glyph unicode="&#x139;" horiz-adv-x="1132" d="M171 0v1491h191v-1300h739v-191h-930zM198 1642l450 290l87 -134l-454 -284z" />
<glyph unicode="&#x13a;" horiz-adv-x="484" d="M8 1642l450 290l87 -134l-453 -284zM149 0v1491h188v-1491h-188z" />
<glyph unicode="&#x13b;" horiz-adv-x="1132" d="M171 0v1491h191v-1300h739v-191h-930zM435 -201q0 55 38.5 93.5t93.5 38.5t93.5 -38t38.5 -94q0 -16 -5.5 -33.5t-14.5 -31.5l-155 -275l-87 49l98 164q-43 11 -71.5 45.5t-28.5 81.5z" />
<glyph unicode="&#x13c;" horiz-adv-x="484" d="M110 -201q0 55 38.5 93.5t93.5 38.5t93.5 -38t38.5 -94q0 -16 -5 -33.5t-13 -31.5l-155 -275l-88 49l98 164q-43 11 -72 45.5t-29 81.5zM149 0v1491h188v-1491h-188z" />
<glyph unicode="&#x13d;" horiz-adv-x="1132" d="M171 0v1491h191v-1300h739v-191h-930zM641 947l151 260q-53 15 -86 57.5t-33 96.5q0 62 44.5 109.5t113.5 47.5t113 -47.5t44 -109.5q0 -42 -19 -75l-221 -398z" />
<glyph unicode="&#x13e;" horiz-adv-x="783" d="M149 0v1491h188v-1491h-188zM426 945l151 260q-53 15 -86 57.5t-33 96.5q0 62 44.5 109.5t113.5 47.5q68 0 112.5 -47.5t44.5 -109.5q0 -42 -19 -75l-222 -398z" />
<glyph unicode="&#x13f;" horiz-adv-x="1132" d="M171 0v1491h191v-1300h739v-191h-930zM614 931q0 71 47.5 119.5t118.5 48.5t119 -48.5t48 -119.5t-48.5 -119t-118.5 -48q-71 0 -118.5 48t-47.5 119z" />
<glyph unicode="&#x140;" horiz-adv-x="752" d="M149 0v1491h188v-1491h-188zM443 843q0 62 41.5 103.5t103.5 41.5q61 0 103 -41.5t42 -103.5q0 -61 -41.5 -102.5t-103.5 -41.5t-103.5 41.5t-41.5 102.5z" />
<glyph unicode="&#x141;" horiz-adv-x="1132" d="M-28 616l199 83v792h191v-713l402 165l67 -157l-469 -194v-401h739v-191h-930v514l-133 -56z" />
<glyph unicode="&#x142;" horiz-adv-x="484" d="M-118 754l267 120v617h188v-534l204 91l62 -132l-266 -119v-797h-188v713l-204 -91z" />
<glyph unicode="&#x143;" horiz-adv-x="1632" d="M149 0v1491h192l952 -1184v1184h191v-1491h-191l-952 1182v-1182h-192zM594 1642l450 290l86 -134l-453 -284z" />
<glyph unicode="&#x144;" horiz-adv-x="1228" d="M149 0v1065h177v-143q63 90 156 129.5t197 39.5q102 0 178 -34.5t125 -95t73.5 -147t24.5 -188.5v-626h-188v634q0 141 -69 213.5t-182 72.5q-92 0 -151 -33t-94.5 -89t-49.5 -134t-14 -168v-496h-183zM368 1344l449 290l88 -134l-454 -284z" />
<glyph unicode="&#x145;" horiz-adv-x="1632" d="M149 0v1491h192l952 -1184v1184h191v-1491h-191l-952 1182v-1182h-192zM632 -201q0 55 38.5 93.5t93.5 38.5q56 0 94 -38t38 -94q0 -16 -5 -33.5t-13 -31.5l-156 -275l-88 49l99 164q-42 11 -71.5 45.5t-29.5 81.5z" />
<glyph unicode="&#x146;" horiz-adv-x="1228" d="M149 0v1065h177v-143q63 90 156 129.5t197 39.5q102 0 178 -34.5t125 -95t73.5 -147t24.5 -188.5v-626h-188v634q0 141 -69 213.5t-182 72.5q-92 0 -151 -33t-94.5 -89t-49.5 -134t-14 -168v-496h-183zM484 -201q0 55 38.5 93.5t93.5 38.5t93.5 -38t38.5 -94 q0 -16 -5.5 -33.5t-14.5 -31.5l-155 -275l-87 49l97 164q-42 11 -70.5 45.5t-28.5 81.5z" />
<glyph unicode="&#x147;" horiz-adv-x="1632" d="M149 0v1491h192l952 -1184v1184h191v-1491h-191l-952 1182v-1182h-192zM453 1866l100 111l276 -239l274 239l100 -111l-374 -322z" />
<glyph unicode="&#x148;" horiz-adv-x="1228" d="M149 0v1065h177v-143q63 90 156 129.5t197 39.5q102 0 178 -34.5t125 -95t73.5 -147t24.5 -188.5v-626h-188v634q0 141 -69 213.5t-182 72.5q-92 0 -151 -33t-94.5 -89t-49.5 -134t-14 -168v-496h-183zM240 1504l101 110l275 -238l274 238l100 -110l-374 -322z" />
<glyph unicode="&#x149;" horiz-adv-x="1380" d="M10 945l152 260q-53 15 -86 57.5t-33 96.5q0 62 44.5 109.5t113.5 47.5q68 0 112.5 -47.5t44.5 -109.5q0 -42 -19 -75l-221 -398zM301 0v1065h176v-143q64 90 156.5 129.5t197.5 39.5q102 0 177.5 -34.5t124.5 -95t73.5 -147t24.5 -188.5v-626h-187v634 q0 141 -69.5 213.5t-182.5 72.5q-91 0 -151 -33t-94.5 -89t-48.5 -134t-14 -168v-496h-183z" />
<glyph unicode="&#x14a;" horiz-adv-x="1632" d="M149 0v1491h192l952 -1184v1184h191v-1546q0 -205 -89.5 -290.5t-235.5 -85.5q-31 0 -63.5 3.5t-71.5 8.5v165q41 -4 61.5 -5t50.5 -1q81 0 121 42.5t40 162.5v55h-4l-952 1182v-1182h-192z" />
<glyph unicode="&#x14b;" horiz-adv-x="1217" d="M149 0v1065h177v-143q63 90 156 129.5t197 39.5q102 0 178 -34.5t125 -95t73.5 -147t24.5 -188.5v-692q0 -99 -22.5 -169t-61.5 -112.5t-96 -63t-125 -20.5q-30 0 -63 3.5t-71 8.5v165q40 -4 60.5 -5t50.5 -1q71 0 105.5 40.5t34.5 153.5v700q0 141 -69 213.5t-182 72.5 q-92 0 -151 -33t-94.5 -89t-49.5 -134t-14 -168v-496h-183z" />
<glyph unicode="&#x14c;" horiz-adv-x="1703" d="M106 746q0 160 56.5 296t156.5 236t237 156.5t296 56.5q160 0 297 -56.5t236 -156.5t155.5 -236.5t56.5 -295.5q0 -160 -56.5 -296.5t-155.5 -236.5t-236 -156.5t-297 -56.5t-296.5 56.5t-236.5 156.5t-156.5 236.5t-56.5 296.5zM298 746q0 -120 42 -222t115 -175.5 t175.5 -115.5t221.5 -42t221 42t176 115.5t115.5 175.5t41.5 222q0 119 -41.5 221t-115.5 175.5t-176 115t-221 41.5q-120 0 -222 -41.5t-175 -115t-115 -176t-42 -220.5zM528 1612v150h639v-150h-639z" />
<glyph unicode="&#x14d;" horiz-adv-x="1243" d="M63 532q0 120 43 222t117.5 177t176.5 117.5t222 42.5t221.5 -42.5t176.5 -117.5t117.5 -177t42.5 -222q0 -119 -42.5 -221t-117.5 -177t-176.5 -117.5t-221.5 -42.5t-222 42.5t-176.5 117.5t-117.5 177t-43 221zM254 532q0 -83 26.5 -153t74 -120t116 -79t151.5 -29 t151 29t116 79t74.5 120t26.5 153q0 84 -26.5 154t-74.5 120t-116 79t-151 29t-151.5 -29t-116 -79t-74 -120t-26.5 -154zM303 1315v148h638v-148h-638z" />
<glyph unicode="&#x14e;" horiz-adv-x="1703" d="M106 746q0 160 56.5 296t156.5 236t237 156.5t296 56.5q160 0 297 -56.5t236 -156.5t155.5 -236.5t56.5 -295.5q0 -160 -56.5 -296.5t-155.5 -236.5t-236 -156.5t-297 -56.5t-296.5 56.5t-236.5 156.5t-156.5 236.5t-56.5 296.5zM298 746q0 -120 42 -222t115 -175.5 t175.5 -115.5t221.5 -42t221 42t176 115.5t115.5 175.5t41.5 222q0 119 -41.5 221t-115.5 175.5t-176 115t-221 41.5q-120 0 -222 -41.5t-175 -115t-115 -176t-42 -220.5zM545 1876h156q0 -85 38.5 -128.5t108.5 -43.5t108 43.5t38 128.5h156q0 -146 -80 -235.5t-222 -89.5 q-143 0 -223 89.5t-80 235.5z" />
<glyph unicode="&#x14f;" horiz-adv-x="1243" d="M63 532q0 120 43 222t117.5 177t176.5 117.5t222 42.5t221.5 -42.5t176.5 -117.5t117.5 -177t42.5 -222q0 -119 -42.5 -221t-117.5 -177t-176.5 -117.5t-221.5 -42.5t-222 42.5t-176.5 117.5t-117.5 177t-43 221zM254 532q0 -83 26.5 -153t74 -120t116 -79t151.5 -29 t151 29t116 79t74.5 120t26.5 153q0 84 -26.5 154t-74.5 120t-116 79t-151 29t-151.5 -29t-116 -79t-74 -120t-26.5 -154zM319 1557h156q0 -85 38 -129t109 -44t109 44t38 129h156q0 -147 -80.5 -236.5t-222.5 -89.5q-143 0 -223 89.5t-80 236.5z" />
<glyph unicode="&#x150;" horiz-adv-x="1703" d="M106 746q0 160 56.5 296t156.5 236t237 156.5t296 56.5q160 0 297 -56.5t236 -156.5t155.5 -236.5t56.5 -295.5q0 -160 -56.5 -296.5t-155.5 -236.5t-236 -156.5t-297 -56.5t-296.5 56.5t-236.5 156.5t-156.5 236.5t-56.5 296.5zM298 746q0 -120 42 -222t115 -175.5 t175.5 -115.5t221.5 -42t221 42t176 115.5t115.5 175.5t41.5 222q0 119 -41.5 221t-115.5 175.5t-176 115t-221 41.5q-120 0 -222 -41.5t-175 -115t-115 -176t-42 -220.5zM577 1626l236 351l130 -87l-240 -348zM903 1604l237 351l130 -87l-241 -348z" />
<glyph unicode="&#x151;" horiz-adv-x="1243" d="M63 532q0 120 43 222t117.5 177t176.5 117.5t222 42.5t221.5 -42.5t176.5 -117.5t117.5 -177t42.5 -222q0 -119 -42.5 -221t-117.5 -177t-176.5 -117.5t-221.5 -42.5t-222 42.5t-176.5 117.5t-117.5 177t-43 221zM254 532q0 -83 26.5 -153t74 -120t116 -79t151.5 -29 t151 29t116 79t74.5 120t26.5 153q0 84 -26.5 154t-74.5 120t-116 79t-151 29t-151.5 -29t-116 -79t-74 -120t-26.5 -154zM317 1305l236 352l130 -88l-240 -346zM643 1284l237 352l130 -87l-241 -348z" />
<glyph unicode="&#x152;" horiz-adv-x="1884" d="M106 746q0 160 56.5 296t156.5 236t237 156.5t296 56.5v-192q-120 0 -222 -41.5t-175 -115t-115 -176t-42 -220.5q0 -120 42 -222t115 -175.5t175.5 -115.5t221.5 -42v1300h916v-192h-724v-458h724v-191h-724v-459h724v-191h-916q-160 0 -296.5 56.5t-236.5 156.5 t-156.5 236.5t-56.5 296.5z" />
<glyph unicode="&#x153;" horiz-adv-x="2080" d="M63 532q0 120 43 222t117.5 177t176.5 117.5t222 42.5q160 0 277 -68t183 -186q61 116 169 185t265 69q126 0 222 -42.5t159.5 -118.5t97 -178t33.5 -220v-55h-853v-2q4 -81 34.5 -143t77 -103.5t108.5 -62.5t130 -21q117 0 200.5 48.5t138.5 115.5l95 -143 q-32 -36 -74 -70.5t-95.5 -62t-117 -43.5t-138.5 -16q-162 0 -277 64t-177 184q-69 -116 -184.5 -182t-273.5 -66q-120 0 -222 42.5t-176.5 117.5t-117.5 177t-43 221zM254 532q0 -83 26.5 -153t74 -120t116 -79t151.5 -29t151 29t116 79t74.5 120t26.5 153q0 84 -26.5 154 t-74.5 120t-116 79t-151 29t-151.5 -29t-116 -79t-74 -120t-26.5 -154zM1185 624h642q-12 134 -88 215t-221 81q-150 0 -232.5 -81t-100.5 -215z" />
<glyph unicode="&#x154;" horiz-adv-x="1315" d="M171 0v1491h562q106 0 193.5 -35t150.5 -96t96.5 -146.5t33.5 -182.5q0 -86 -25.5 -159t-72 -132t-112.5 -99t-149 -58l404 -583h-244l-384 571h-262v-571h-191zM362 762h371q130 0 206.5 75.5t76.5 193.5q0 117 -77 192.5t-206 75.5h-371v-537zM424 1642l450 290 l87 -134l-455 -284z" />
<glyph unicode="&#x155;" horiz-adv-x="793" d="M149 0v1065h177v-160q48 89 128.5 137.5t193.5 48.5q28 0 53 -3.5t51 -7.5v-194q-28 6 -52.5 9.5t-53.5 3.5q-90 0 -149.5 -29t-97 -82t-52.5 -127.5t-15 -164.5v-496h-183zM151 1344l450 290l87 -134l-454 -284z" />
<glyph unicode="&#x156;" horiz-adv-x="1315" d="M171 0v1491h562q106 0 193.5 -35t150.5 -96t96.5 -146.5t33.5 -182.5q0 -86 -25.5 -159t-72 -132t-112.5 -99t-149 -58l404 -583h-244l-384 571h-262v-571h-191zM362 762h371q130 0 206.5 75.5t76.5 193.5q0 117 -77 192.5t-206 75.5h-371v-537zM526 -201q0 55 38.5 93.5 t93.5 38.5t93.5 -38t38.5 -94q0 -16 -5 -33.5t-14 -31.5l-155 -275l-88 49l98 164q-43 11 -71.5 45.5t-28.5 81.5z" />
<glyph unicode="&#x157;" horiz-adv-x="793" d="M96 -201q0 55 38.5 93.5t93.5 38.5t93.5 -38t38.5 -94q0 -16 -5.5 -33.5t-13.5 -31.5l-156 -275l-87 49l98 164q-43 11 -71.5 45.5t-28.5 81.5zM149 0v1065h177v-160q48 89 128.5 137.5t193.5 48.5q28 0 53 -3.5t51 -7.5v-194q-28 6 -52.5 9.5t-53.5 3.5 q-90 0 -149.5 -29t-97 -82t-52.5 -127.5t-15 -164.5v-496h-183z" />
<glyph unicode="&#x158;" horiz-adv-x="1315" d="M171 0v1491h562q106 0 193.5 -35t150.5 -96t96.5 -146.5t33.5 -182.5q0 -86 -25.5 -159t-72 -132t-112.5 -99t-149 -58l404 -583h-244l-384 571h-262v-571h-191zM283 1866l101 111l274 -239l275 239l100 -111l-375 -322zM362 762h371q130 0 206.5 75.5t76.5 193.5 q0 117 -77 192.5t-206 75.5h-371v-537z" />
<glyph unicode="&#x159;" horiz-adv-x="793" d="M24 1504l100 110l274 -238l275 238l100 -110l-375 -322zM149 0v1065h177v-160q48 89 128.5 137.5t193.5 48.5q28 0 53 -3.5t51 -7.5v-194q-28 6 -52.5 9.5t-53.5 3.5q-90 0 -149.5 -29t-97 -82t-52.5 -127.5t-15 -164.5v-496h-183z" />
<glyph unicode="&#x15a;" horiz-adv-x="1104" d="M85 356l169 89q30 -124 104.5 -189t199.5 -65q116 0 183.5 56t67.5 160q0 59 -22.5 98.5t-59 67.5t-84 44.5t-98.5 34.5q-73 24 -151.5 54.5t-143.5 79.5t-106.5 123t-41.5 180q0 96 36.5 171t98 126t143.5 78t171 27q177 0 298.5 -96t170.5 -261l-181 -73 q-34 128 -108.5 183t-183.5 55q-126 0 -189.5 -62t-63.5 -151q0 -55 22.5 -92t61.5 -65t93.5 -48.5t116.5 -41.5q87 -30 163 -62.5t131 -80.5t87.5 -116t32.5 -167q0 -106 -36.5 -184t-97.5 -129t-140.5 -75.5t-166.5 -24.5q-69 0 -141.5 17t-137.5 57.5t-117 110t-80 171.5 zM319 1642l450 290l87 -134l-454 -284z" />
<glyph unicode="&#x15b;" horiz-adv-x="985" d="M53 224l152 95q49 -100 137.5 -137t185.5 -37q104 0 163 36t59 111q0 41 -17 66.5t-48 42t-74.5 28.5t-96.5 22q-66 13 -136.5 33t-129.5 55.5t-97 91.5t-38 144q0 140 105 228t294 88q160 0 261 -62t160 -169l-151 -96q-34 66 -99 111t-177 45q-89 0 -149.5 -35 t-60.5 -99q0 -38 19.5 -62.5t53 -43t79.5 -30t101 -24.5q66 -14 134.5 -31.5t123.5 -51.5t90.5 -90.5t35.5 -147.5q0 -86 -30.5 -148.5t-86.5 -103.5t-130 -60t-162 -19q-75 0 -145 14t-132 44.5t-112 78t-82 113.5zM266 1344l450 290l87 -134l-454 -284z" />
<glyph unicode="&#x15c;" horiz-adv-x="1104" d="M85 356l169 89q30 -124 104.5 -189t199.5 -65q116 0 183.5 56t67.5 160q0 59 -22.5 98.5t-59 67.5t-84 44.5t-98.5 34.5q-73 24 -151.5 54.5t-143.5 79.5t-106.5 123t-41.5 180q0 96 36.5 171t98 126t143.5 78t171 27q177 0 298.5 -96t170.5 -261l-181 -73 q-34 128 -108.5 183t-183.5 55q-126 0 -189.5 -62t-63.5 -151q0 -55 22.5 -92t61.5 -65t93.5 -48.5t116.5 -41.5q87 -30 163 -62.5t131 -80.5t87.5 -116t32.5 -167q0 -106 -36.5 -184t-97.5 -129t-140.5 -75.5t-166.5 -24.5q-69 0 -141.5 17t-137.5 57.5t-117 110t-80 171.5 zM179 1634l374 321l376 -321l-100 -111l-276 239l-274 -239z" />
<glyph unicode="&#x15d;" horiz-adv-x="985" d="M53 224l152 95q49 -100 137.5 -137t185.5 -37q104 0 163 36t59 111q0 41 -17 66.5t-48 42t-74.5 28.5t-96.5 22q-66 13 -136.5 33t-129.5 55.5t-97 91.5t-38 144q0 140 105 228t294 88q160 0 261 -62t160 -169l-151 -96q-34 66 -99 111t-177 45q-89 0 -149.5 -35 t-60.5 -99q0 -38 19.5 -62.5t53 -43t79.5 -30t101 -24.5q66 -14 134.5 -31.5t123.5 -51.5t90.5 -90.5t35.5 -147.5q0 -86 -30.5 -148.5t-86.5 -103.5t-130 -60t-162 -19q-75 0 -145 14t-132 44.5t-112 78t-82 113.5zM138 1315l376 321l374 -321l-100 -112l-274 238 l-276 -238z" />
<glyph unicode="&#x15e;" horiz-adv-x="1104" d="M85 356l169 89q30 -124 104.5 -189t199.5 -65q116 0 183.5 56t67.5 160q0 59 -22.5 98.5t-59 67.5t-84 44.5t-98.5 34.5q-73 24 -151.5 54.5t-143.5 79.5t-106.5 122.5t-41.5 180.5q0 96 36.5 171t98 126t143.5 78t171 27q177 0 298.5 -96t170.5 -261l-181 -73 q-34 128 -108.5 183t-183.5 55q-126 0 -189.5 -62t-63.5 -151q0 -55 22.5 -92t61.5 -65t93.5 -48.5t116.5 -41.5q87 -30 163 -62.5t131 -80.5t87.5 -116t32.5 -167q0 -94 -29.5 -166t-79.5 -123t-117 -81.5t-144 -38.5q39 -49 54 -91.5t15 -85.5q0 -91 -55 -137t-130 -46 q-24 0 -52.5 5.5t-56.5 15.5v124q24 -6 44 -10.5t37 -4.5q30 0 49 16.5t19 56.5q0 30 -15 69t-53 88q-62 6 -123.5 28.5t-116.5 64t-97.5 105.5t-65.5 154z" />
<glyph unicode="&#x15f;" horiz-adv-x="985" d="M53 224l152 95q49 -100 137.5 -137t185.5 -37q104 0 163 36t59 111q0 41 -17 66.5t-48 42t-74.5 28.5t-96.5 22q-66 13 -136.5 33t-129.5 55.5t-97 92t-38 143.5q0 140 105 228t294 88q160 0 261 -62t160 -169l-151 -96q-34 66 -99 111t-177 45q-89 0 -149.5 -35 t-60.5 -99q0 -38 19.5 -62.5t53 -43t79.5 -30t101 -24.5q66 -14 134.5 -31.5t123.5 -51.5t90.5 -90.5t35.5 -147.5q0 -77 -24.5 -134.5t-69 -98t-106.5 -64t-135 -29.5q28 -42 39 -78.5t11 -73.5q0 -91 -55.5 -137t-130.5 -46q-24 0 -52 5.5t-56 15.5v124q24 -6 43.5 -10.5 t37.5 -4.5q30 0 48.5 16.5t18.5 56.5q0 26 -10 58t-39 74q-127 11 -236 70t-164 175z" />
<glyph unicode="&#x160;" horiz-adv-x="1104" d="M85 356l169 89q30 -124 104.5 -189t199.5 -65q116 0 183.5 56t67.5 160q0 59 -22.5 98.5t-59 67.5t-84 44.5t-98.5 34.5q-73 24 -151.5 54.5t-143.5 79.5t-106.5 123t-41.5 180q0 96 36.5 171t98 126t143.5 78t171 27q177 0 298.5 -96t170.5 -261l-181 -73 q-34 128 -108.5 183t-183.5 55q-126 0 -189.5 -62t-63.5 -151q0 -55 22.5 -92t61.5 -65t93.5 -48.5t116.5 -41.5q87 -30 163 -62.5t131 -80.5t87.5 -116t32.5 -167q0 -106 -36.5 -184t-97.5 -129t-140.5 -75.5t-166.5 -24.5q-69 0 -141.5 17t-137.5 57.5t-117 110t-80 171.5 zM179 1866l100 111l274 -239l276 239l100 -111l-376 -322z" />
<glyph unicode="&#x161;" horiz-adv-x="985" d="M53 224l152 95q49 -100 137.5 -137t185.5 -37q104 0 163 36t59 111q0 41 -17 66.5t-48 42t-74.5 28.5t-96.5 22q-66 13 -136.5 33t-129.5 55.5t-97 91.5t-38 144q0 140 105 228t294 88q160 0 261 -62t160 -169l-151 -96q-34 66 -99 111t-177 45q-89 0 -149.5 -35 t-60.5 -99q0 -38 19.5 -62.5t53 -43t79.5 -30t101 -24.5q66 -14 134.5 -31.5t123.5 -51.5t90.5 -90.5t35.5 -147.5q0 -86 -30.5 -148.5t-86.5 -103.5t-130 -60t-162 -19q-75 0 -145 14t-132 44.5t-112 78t-82 113.5zM138 1504l100 110l276 -238l274 238l100 -110l-374 -322z " />
<glyph unicode="&#x162;" horiz-adv-x="1386" d="M10 1299v192h1366v-192h-588v-1299h-192v1299h-586zM563 -201q0 55 38 93.5t94 38.5q55 0 93.5 -38t38.5 -94q0 -16 -6 -33.5t-14 -31.5l-155 -275l-87 49l97 164q-42 11 -70.5 45.5t-28.5 81.5z" />
<glyph unicode="&#x163;" horiz-adv-x="772" d="M32 905v160h210v285h184v-285h292v-160h-292v-618q0 -61 26.5 -94t94.5 -33q51 0 90.5 4t82.5 13v-162q-43 -11 -87.5 -18t-95.5 -7q-147 0 -221 69t-74 239v607h-210zM362 -201q0 55 38.5 93.5t93.5 38.5t93.5 -38t38.5 -94q0 -16 -5 -33.5t-14 -31.5l-156 -275l-87 49 l98 164q-43 11 -71.5 45.5t-28.5 81.5z" />
<glyph unicode="&#x164;" horiz-adv-x="1386" d="M10 1299v192h1366v-192h-588v-1299h-192v1299h-586zM319 1866l100 111l276 -239l274 239l100 -111l-374 -322z" />
<glyph unicode="&#x165;" horiz-adv-x="1151" d="M32 905v160h210v285h184v-285h292v-160h-292v-618q0 -61 26.5 -94t94.5 -33q51 0 90.5 4t82.5 13v-162q-43 -11 -87.5 -18t-95.5 -7q-147 0 -221 69t-74 239v607h-210zM795 945l150 260q-53 15 -85.5 57.5t-32.5 96.5q0 62 44.5 109.5t112.5 47.5t113 -47.5t45 -109.5 q0 -42 -20 -75l-221 -398z" />
<glyph unicode="&#x166;" horiz-adv-x="1386" d="M10 1299v192h1366v-192h-588v-405h267v-191h-267v-703h-192v703h-266v191h266v405h-586z" />
<glyph unicode="&#x167;" horiz-adv-x="772" d="M32 905v160h210v285h184v-285h292v-160h-292v-212h253v-165h-253v-241q0 -61 26.5 -94t94.5 -33q51 0 90.5 4t82.5 13v-162q-43 -11 -87.5 -18t-95.5 -7q-147 0 -221 69t-74 239v230h-171v165h171v212h-210z" />
<glyph unicode="&#x168;" horiz-adv-x="1660" d="M149 681v810h192v-810q0 -104 37 -193.5t103 -155.5t155.5 -103.5t194.5 -37.5q104 0 193.5 37.5t155.5 103.5t103.5 155.5t37.5 193.5v810h191v-810q0 -144 -52 -269t-143.5 -216.5t-216 -143.5t-269.5 -52t-269.5 52t-216 143.5t-144 216.5t-52.5 269zM488 1685 q21 26 48 52.5t55.5 46.5t59 33.5t62.5 13.5q39 0 74.5 -15.5t66 -33.5t57 -34t50.5 -16q30 0 59.5 25.5t59.5 57.5l102 -98q-20 -26 -47 -52.5t-56 -47t-59.5 -34.5t-62.5 -14q-39 0 -74 16.5t-66 34.5t-57.5 34t-50.5 16q-30 0 -59.5 -26t-59.5 -57z" />
<glyph unicode="&#x169;" horiz-adv-x="1213" d="M149 435v630h188v-630q0 -64 10.5 -117.5t38 -92t74 -59.5t119.5 -21q92 0 150.5 35t92.5 93.5t47 135.5t13 160v496h183v-1065h-177v153q-61 -90 -140 -134.5t-201 -44.5q-113 0 -188.5 35.5t-122.5 96t-67 145t-20 184.5zM260 1344q21 26 48 52.5t55.5 46.5t59 34 t63.5 14q38 0 73 -16t66 -34t57.5 -34.5t50.5 -16.5q30 0 60 25.5t59 58.5l103 -98q-21 -26 -48 -52.5t-55.5 -47t-60 -34t-63.5 -13.5q-38 0 -73 15.5t-66 34t-58 34.5t-49 16q-31 0 -60.5 -25.5t-59.5 -57.5z" />
<glyph unicode="&#x16a;" horiz-adv-x="1660" d="M149 681v810h192v-810q0 -104 37 -193.5t103 -155.5t155.5 -103.5t194.5 -37.5q104 0 193.5 37.5t155.5 103.5t103.5 155.5t37.5 193.5v810h191v-810q0 -144 -52 -269t-143.5 -216.5t-216 -143.5t-269.5 -52t-269.5 52t-216 143.5t-144 216.5t-52.5 269zM512 1612v150 h638v-150h-638z" />
<glyph unicode="&#x16b;" horiz-adv-x="1213" d="M149 435v630h188v-630q0 -64 10.5 -117.5t38 -92t74 -59.5t119.5 -21q92 0 150.5 35t92.5 93.5t47 135.5t13 160v496h183v-1065h-177v153q-61 -90 -140 -134.5t-201 -44.5q-113 0 -188.5 35.5t-122.5 96t-67 145t-20 184.5zM287 1315v148h640v-148h-640z" />
<glyph unicode="&#x16c;" horiz-adv-x="1660" d="M149 681v810h192v-810q0 -104 37 -193.5t103 -155.5t155.5 -103.5t194.5 -37.5q104 0 193.5 37.5t155.5 103.5t103.5 155.5t37.5 193.5v810h191v-810q0 -144 -52 -269t-143.5 -216.5t-216 -143.5t-269.5 -52t-269.5 52t-216 143.5t-144 216.5t-52.5 269zM528 1876h155 q0 -85 38.5 -128.5t109.5 -43.5t109 43.5t38 128.5h156q0 -146 -80.5 -235.5t-222.5 -89.5q-143 0 -223 89.5t-80 235.5z" />
<glyph unicode="&#x16d;" horiz-adv-x="1213" d="M149 435v630h188v-630q0 -64 10.5 -117.5t38 -92t74 -59.5t119.5 -21q92 0 150.5 35t92.5 93.5t47 135.5t13 160v496h183v-1065h-177v153q-61 -90 -140 -134.5t-201 -44.5q-113 0 -188.5 35.5t-122.5 96t-67 145t-20 184.5zM305 1557h155q0 -85 38.5 -129t108.5 -44 q71 0 109 44t38 129h155q0 -147 -79.5 -236.5t-222.5 -89.5q-142 0 -222 89.5t-80 236.5z" />
<glyph unicode="&#x16e;" horiz-adv-x="1660" d="M149 681v810h192v-810q0 -104 37 -193.5t103 -155.5t155.5 -103.5t194.5 -37.5q104 0 193.5 37.5t155.5 103.5t103.5 155.5t37.5 193.5v810h191v-810q0 -144 -52 -269t-143.5 -216.5t-216 -143.5t-269.5 -52t-269.5 52t-216 143.5t-144 216.5t-52.5 269zM596 1608 q0 102 66 169.5t169 67.5q102 0 168 -67t66 -170q0 -102 -66 -168t-168 -66t-168.5 66t-66.5 168zM718 1608q0 -51 31 -84t82 -33t81.5 33t30.5 84t-30.5 84t-81.5 33t-82 -33t-31 -84z" />
<glyph unicode="&#x16f;" horiz-adv-x="1213" d="M149 435v630h188v-630q0 -64 10.5 -117.5t38 -92t74 -59.5t119.5 -21q92 0 150.5 35t92.5 93.5t47 135.5t13 160v496h183v-1065h-177v153q-61 -90 -140 -134.5t-201 -44.5q-113 0 -188.5 35.5t-122.5 96t-67 145t-20 184.5zM372 1455q0 102 66 169t169 67q102 0 168 -67 t66 -169t-66 -168t-168 -66t-168.5 66t-66.5 168zM494 1455q0 -51 31 -84.5t82 -33.5t82 33.5t31 84.5t-31 83.5t-82 32.5t-82 -32.5t-31 -83.5z" />
<glyph unicode="&#x170;" horiz-adv-x="1660" d="M149 681v810h192v-810q0 -104 37 -193.5t103 -155.5t155.5 -103.5t194.5 -37.5q104 0 193.5 37.5t155.5 103.5t103.5 155.5t37.5 193.5v810h191v-810q0 -144 -52 -269t-143.5 -216.5t-216 -143.5t-269.5 -52t-269.5 52t-216 143.5t-144 216.5t-52.5 269zM561 1626 l236 351l130 -87l-242 -348zM886 1604l236 351l130 -87l-240 -348z" />
<glyph unicode="&#x171;" horiz-adv-x="1213" d="M149 435v630h188v-630q0 -64 10.5 -117.5t38 -92t74 -59.5t119.5 -21q92 0 150.5 35t92.5 93.5t47 135.5t13 160v496h183v-1065h-177v153q-61 -90 -140 -134.5t-201 -44.5q-113 0 -188.5 35.5t-122.5 96t-67 145t-20 184.5zM303 1305l236 352l130 -88l-241 -346z M628 1284l236 352l130 -87l-240 -348z" />
<glyph unicode="&#x172;" horiz-adv-x="1660" d="M149 681v810h192v-810q0 -104 37 -193.5t103 -155.5t155.5 -103.5t194.5 -37.5q104 0 193.5 37.5t155.5 103.5t103.5 155.5t37.5 193.5v810h191v-810q0 -134 -43.5 -249t-122 -204.5t-185 -146.5t-234.5 -75q-53 -55 -77.5 -97.5t-24.5 -72.5q0 -26 18.5 -44t59.5 -18 q16 0 37 4.5t44 8.5v-124q-55 -19 -108 -19q-75 0 -130 46t-55 129q0 47 22 90.5t71 92.5q-136 8 -252.5 63t-201.5 145.5t-133 210.5t-48 260z" />
<glyph unicode="&#x173;" horiz-adv-x="1213" d="M149 435v630h188v-630q0 -64 10.5 -117.5t38 -92t74 -59.5t119.5 -21q92 0 150.5 35t92.5 93.5t47 135.5t13 160v496h183v-1065h-73q-96 -102 -96 -164q0 -26 19.5 -44t60.5 -18q16 0 36.5 4.5t44.5 8.5v-124q-55 -19 -110 -19q-74 0 -129.5 46t-55.5 129q0 55 29 103 t97 108v123q-61 -90 -140 -134.5t-201 -44.5q-113 0 -188.5 35.5t-122.5 96t-67 145t-20 184.5z" />
<glyph unicode="&#x174;" horiz-adv-x="2597" d="M21 1491h207l463 -1163l516 1163h183l518 -1163l462 1163h207l-592 -1491h-140l-546 1221l-545 -1221h-140zM925 1634l374 321l375 -321l-100 -111l-275 239l-275 -239z" />
<glyph unicode="&#x175;" horiz-adv-x="1843" d="M21 1065h209l302 -790l324 790h132l324 -790l302 790h209l-437 -1065h-140l-324 764l-324 -764h-140zM547 1315l375 321l375 -321l-100 -112l-275 238l-274 -238z" />
<glyph unicode="&#x176;" horiz-adv-x="1409" d="M10 1491h235l460 -664l460 664h235l-599 -863v-628h-192v628zM330 1634l375 321l375 -321l-100 -111l-275 239l-274 -239z" />
<glyph unicode="&#x177;" horiz-adv-x="1118" d="M21 1065h221l341 -711l331 711h194l-689 -1491h-197l264 566zM185 1315l376 321l374 -321l-100 -112l-274 238l-276 -238z" />
<glyph unicode="&#x178;" horiz-adv-x="1409" d="M10 1491h235l460 -664l460 664h235l-599 -863v-628h-192v628zM345 1706q0 61 41.5 103t103.5 42q61 0 102.5 -41.5t41.5 -103.5t-41.5 -103.5t-102.5 -41.5q-62 0 -103.5 41.5t-41.5 103.5zM775 1706q0 61 41.5 103t103.5 42t103.5 -41.5t41.5 -103.5t-41.5 -103.5 t-103.5 -41.5q-61 0 -103 41.5t-42 103.5z" />
<glyph unicode="&#x179;" horiz-adv-x="1409" d="M106 0v147l912 1152h-912v192h1197v-147l-911 -1153h911v-191h-1197zM471 1642l449 290l88 -134l-455 -284z" />
<glyph unicode="&#x17a;" horiz-adv-x="966" d="M63 0v164l593 730h-573v171h799v-164l-592 -730h613v-171h-840zM236 1344l449 290l88 -134l-454 -284z" />
<glyph unicode="&#x17b;" horiz-adv-x="1409" d="M106 0v147l912 1152h-912v192h1197v-147l-911 -1153h911v-191h-1197zM561 1691q0 61 41 103t103 42q61 0 103 -41.5t42 -103.5q0 -61 -42 -103t-103 -42t-102.5 42t-41.5 103z" />
<glyph unicode="&#x17c;" horiz-adv-x="966" d="M63 0v164l593 730h-573v171h799v-164l-592 -730h613v-171h-840zM339 1372q0 61 41.5 102.5t103.5 41.5q61 0 102.5 -41.5t41.5 -102.5q0 -62 -41.5 -103.5t-102.5 -41.5q-62 0 -103.5 41.5t-41.5 103.5z" />
<glyph unicode="&#x17d;" horiz-adv-x="1409" d="M106 0v147l912 1152h-912v192h1197v-147l-911 -1153h911v-191h-1197zM330 1866l101 111l274 -239l275 239l100 -111l-375 -322z" />
<glyph unicode="&#x17e;" horiz-adv-x="966" d="M63 0v164l593 730h-573v171h799v-164l-592 -730h613v-171h-840zM108 1504l101 110l275 -238l274 238l100 -110l-374 -322z" />
<glyph unicode="&#x192;" horiz-adv-x="874" d="M32 -256q43 -4 62 -5t48 -1q71 0 106 40.5t35 152.5v974h-196v160h196v59q0 209 93 297.5t250 88.5q30 0 76 -4t88 -10v-167q-44 6 -76.5 8.5t-63.5 2.5q-94 0 -138.5 -45t-44.5 -171v-59h308v-160h-308v-974q0 -99 -21.5 -168.5t-61 -112t-94.5 -63t-124 -20.5 q-30 0 -62.5 3.5t-71.5 7.5v166z" />
<glyph unicode="&#x1fc;" horiz-adv-x="2091" d="M10 0l945 1491h104v-188l-537 -850h537v1038h915v-192h-724v-458h724v-191h-724v-459h724v-191h-915v262h-657l-166 -262h-226zM1331 1642l449 290l88 -134l-454 -284z" />
<glyph unicode="&#x1fd;" horiz-adv-x="1896" d="M96 309q0 75 25.5 132t72 98.5t108.5 66t137 30.5l300 31q69 6 68 57v28q0 79 -58 127t-178 48q-110 0 -184 -46t-91 -146l-162 88q30 119 132 193.5t290 74.5q145 0 237.5 -48.5t141.5 -143.5q63 89 163.5 140.5t236.5 51.5q124 0 218.5 -42.5t159.5 -118.5t98.5 -178 t33.5 -220v-55h-853v-2q4 -81 34.5 -143t78 -103.5t109.5 -62.5t130 -21q117 0 200.5 51.5t136.5 112.5l95 -143q-32 -36 -73.5 -70.5t-93.5 -62t-117 -43.5t-146 -16q-156 0 -268.5 62t-176.5 177q-73 -108 -189 -171t-254 -63q-88 0 -155 25.5t-112.5 69.5t-70 104 t-24.5 131zM287 307q0 -69 50.5 -112.5t150.5 -43.5q75 0 133 25t99.5 65t64 89.5t22.5 100.5v78l-347 -42q-90 -10 -131.5 -55.5t-41.5 -104.5zM675 1344l449 290l88 -134l-454 -284zM1002 624h642q-12 134 -88 215t-223 81q-146 0 -229.5 -81t-101.5 -215z" />
<glyph unicode="&#x1fe;" horiz-adv-x="1703" d="M106 746q0 160 56.5 296t156.5 236t237 156.5t296 56.5q121 0 229 -32t197 -93l136 159l113 -98l-134 -157q95 -100 149.5 -233.5t54.5 -290.5q0 -160 -56.5 -296.5t-155.5 -236.5t-236 -156.5t-297 -56.5q-122 0 -230 33t-198 95l-137 -162l-114 95l136 163 q-96 99 -149.5 232.5t-53.5 289.5zM298 746q0 -114 36 -208.5t101 -167.5l717 848q-63 38 -139 59.5t-161 21.5q-120 0 -222 -41.5t-175 -115t-115 -175.5t-42 -221zM549 275q132 -84 303 -84q119 0 221 42t176 115.5t115.5 175.5t41.5 222q0 113 -36.5 207.5t-101.5 168.5z M616 1642l449 290l87 -134l-453 -284z" />
<glyph unicode="&#x1ff;" horiz-adv-x="1243" d="M63 532q0 120 43 222t117.5 177t176.5 117.5t222 42.5q170 0 305 -85l79 93l112 -97l-77 -93q66 -75 102.5 -169t36.5 -208q0 -119 -42.5 -221t-117.5 -177t-176.5 -117.5t-221.5 -42.5q-171 0 -305 85l-79 -93l-114 95l79 95q-66 75 -103 169t-37 207zM254 532 q0 -136 69 -236l486 573q-40 21 -87 33t-100 12q-83 0 -151.5 -29t-116 -79t-74 -120t-26.5 -154zM374 1344l451 290l87 -134l-454 -284zM435 196q40 -21 87 -33t100 -12q83 0 151 29t116 79t74.5 120t26.5 153q0 137 -70 237z" />
<glyph unicode="&#x218;" horiz-adv-x="1104" d="M85 356l169 89q30 -124 104.5 -189t199.5 -65q116 0 183.5 56t67.5 160q0 59 -22.5 98.5t-59 67.5t-84 44.5t-98.5 34.5q-73 24 -151.5 54.5t-143.5 79.5t-106.5 123t-41.5 180q0 96 36.5 171t98 126t143.5 78t171 27q177 0 298.5 -96t170.5 -261l-181 -73 q-34 128 -108.5 183t-183.5 55q-126 0 -189.5 -62t-63.5 -151q0 -55 22.5 -92t61.5 -65t93.5 -48.5t116.5 -41.5q87 -30 163 -62.5t131 -80.5t87.5 -116t32.5 -167q0 -106 -36.5 -184t-97.5 -129t-140.5 -75.5t-166.5 -24.5q-69 0 -141.5 17t-137.5 57.5t-117 110t-80 171.5 zM422 -201q0 55 38 93.5t93 38.5t93.5 -38t38.5 -94q0 -16 -5 -33.5t-13 -31.5l-155 -275l-88 49l98 164q-43 11 -71.5 45.5t-28.5 81.5z" />
<glyph unicode="&#x219;" horiz-adv-x="985" d="M53 224l152 95q49 -100 137.5 -137t185.5 -37q104 0 163 36t59 111q0 41 -17 66.5t-48 42t-74.5 28.5t-96.5 22q-66 13 -136.5 33t-129.5 55.5t-97 91.5t-38 144q0 140 105 228t294 88q160 0 261 -62t160 -169l-151 -96q-34 66 -99 111t-177 45q-89 0 -149.5 -35 t-60.5 -99q0 -38 19.5 -62.5t53 -43t79.5 -30t101 -24.5q66 -14 134.5 -31.5t123.5 -51.5t90.5 -90.5t35.5 -147.5q0 -86 -30.5 -148.5t-86.5 -103.5t-130 -60t-162 -19q-75 0 -145 14t-132 44.5t-112 78t-82 113.5zM368 -201q0 55 38.5 93.5t93.5 38.5t93.5 -38t38.5 -94 q0 -16 -5 -33.5t-13 -31.5l-156 -275l-88 49l99 164q-43 11 -72 45.5t-29 81.5z" />
<glyph unicode="&#x21a;" horiz-adv-x="1386" d="M10 1299v192h1366v-192h-588v-1299h-192v1299h-586zM563 -201q0 55 38 93.5t94 38.5q55 0 93.5 -38t38.5 -94q0 -16 -6 -33.5t-14 -31.5l-155 -275l-87 49l97 164q-42 11 -70.5 45.5t-28.5 81.5z" />
<glyph unicode="&#x21b;" horiz-adv-x="772" d="M32 905v160h210v285h184v-285h292v-160h-292v-618q0 -61 26.5 -94t94.5 -33q51 0 90.5 4t82.5 13v-162q-43 -11 -87.5 -18t-95.5 -7q-147 0 -221 69t-74 239v607h-210zM362 -201q0 55 38.5 93.5t93.5 38.5t93.5 -38t38.5 -94q0 -16 -5 -33.5t-14 -31.5l-156 -275l-87 49 l98 164q-43 11 -71.5 45.5t-28.5 81.5z" />
<glyph unicode="&#x2c6;" horiz-adv-x="961" d="M106 1315l376 321l374 -321l-100 -112l-274 238l-275 -238z" />
<glyph unicode="&#x2c7;" horiz-adv-x="961" d="M106 1504l101 110l275 -238l274 238l100 -110l-374 -322z" />
<glyph unicode="&#x2d8;" horiz-adv-x="817" d="M106 1557h156q0 -85 38.5 -129t108.5 -44t108.5 44t38.5 129h155q0 -147 -80 -236.5t-222 -89.5q-143 0 -223 89.5t-80 236.5z" />
<glyph unicode="&#x2d9;" horiz-adv-x="502" d="M106 1372q0 61 41.5 102.5t104.5 41.5q61 0 102.5 -41.5t41.5 -102.5q0 -62 -41.5 -103.5t-102.5 -41.5q-62 0 -104 41.5t-42 103.5z" />
<glyph unicode="&#x2da;" horiz-adv-x="681" d="M106 1455q0 102 66 169t169 67q102 0 168 -67t66 -169t-66 -168t-168 -66t-168.5 66t-66.5 168zM228 1455q0 -51 31 -84.5t82 -33.5t81.5 33.5t30.5 84.5t-30.5 83.5t-81.5 32.5t-82 -32.5t-31 -83.5z" />
<glyph unicode="&#x2db;" horiz-adv-x="510" d="M106 -181q0 61 37.5 116t126.5 128h135q-88 -74 -126.5 -132.5t-38.5 -94.5q0 -26 19.5 -44t59.5 -18q17 0 37 4.5t44 8.5v-124q-55 -19 -108 -19q-75 0 -130.5 46t-55.5 129z" />
<glyph unicode="&#x2dc;" horiz-adv-x="906" d="M106 1344q21 26 48 52.5t55.5 46.5t60 34t62.5 14q38 0 73.5 -16t66 -34t57.5 -34.5t50 -16.5q30 0 60 25.5t60 58.5l102 -98q-21 -26 -48 -52.5t-55.5 -47t-59.5 -34t-63 -13.5q-38 0 -73 15.5t-66 34t-57.5 34.5t-50.5 16q-31 0 -60.5 -25.5t-58.5 -57.5z" />
<glyph unicode="&#x2dd;" horiz-adv-x="904" d="M106 1305l237 352l130 -88l-241 -346zM433 1284l236 352l130 -87l-241 -348z" />
<glyph unicode="&#x3a9;" horiz-adv-x="1575" d="M43 775q0 164 56.5 300.5t156.5 234.5t236 152t296 54t296.5 -54t236.5 -152t156.5 -234.5t56.5 -300.5q0 -106 -23.5 -195.5t-65 -164t-98 -135.5t-120.5 -109h277v-171h-610v171q92 48 171 108t138.5 133.5t93.5 164t34 198.5q0 119 -40.5 220.5t-112.5 175t-172.5 114 t-217.5 40.5t-217 -40.5t-172.5 -114t-113 -175t-40.5 -220.5q0 -108 34 -198.5t93 -164t138.5 -133.5t170.5 -108v-171h-608v171h276q-63 48 -119.5 109t-98.5 135.5t-65 164t-23 195.5z" />
<glyph unicode="&#x3c0;" d="M92 843v159q40 20 115.5 41.5t182.5 21.5h880v-191h-190v-874h-188v874h-317l-185 -874h-197l187 874q-111 0 -179.5 -10t-108.5 -21z" />
<glyph unicode="&#x1e80;" horiz-adv-x="2597" d="M21 1491h207l463 -1163l516 1163h183l518 -1163l462 1163h207l-592 -1491h-140l-546 1221l-545 -1221h-140zM1016 1798l87 134l450 -290l-83 -128z" />
<glyph unicode="&#x1e81;" horiz-adv-x="1843" d="M21 1065h209l302 -790l324 790h132l324 -790l302 790h209l-437 -1065h-140l-324 764l-324 -764h-140zM632 1500l88 134l449 -290l-83 -128z" />
<glyph unicode="&#x1e82;" horiz-adv-x="2597" d="M21 1491h207l463 -1163l516 1163h183l518 -1163l462 1163h207l-592 -1491h-140l-546 1221l-545 -1221h-140zM1065 1642l449 290l88 -134l-454 -284z" />
<glyph unicode="&#x1e83;" horiz-adv-x="1843" d="M21 1065h209l302 -790l324 790h132l324 -790l302 790h209l-437 -1065h-140l-324 764l-324 -764h-140zM675 1344l449 290l88 -134l-454 -284z" />
<glyph unicode="&#x1e84;" horiz-adv-x="2597" d="M21 1491h207l463 -1163l516 1163h183l518 -1163l462 1163h207l-592 -1491h-140l-546 1221l-545 -1221h-140zM939 1706q0 61 41.5 103t103.5 42q61 0 103 -41.5t42 -103.5t-41.5 -103.5t-103.5 -41.5t-103.5 41.5t-41.5 103.5zM1370 1706q0 61 41.5 103t102.5 42 q62 0 103.5 -41.5t41.5 -103.5t-41 -103.5t-104 -41.5q-61 0 -102.5 41.5t-41.5 103.5z" />
<glyph unicode="&#x1e85;" horiz-adv-x="1843" d="M21 1065h209l302 -790l324 790h132l324 -790l302 790h209l-437 -1065h-140l-324 764l-324 -764h-140zM563 1372q0 61 41.5 102.5t102.5 41.5q62 0 103.5 -41.5t41.5 -102.5q0 -62 -41.5 -103.5t-103.5 -41.5q-61 0 -102.5 41.5t-41.5 103.5zM992 1372q0 61 41.5 102.5 t104.5 41.5q61 0 102.5 -41.5t41.5 -102.5q0 -62 -41.5 -103.5t-102.5 -41.5q-62 0 -104 41.5t-42 103.5z" />
<glyph unicode="&#x1ef2;" horiz-adv-x="1409" d="M10 1491h235l460 -664l460 664h235l-599 -863v-628h-192v628zM422 1798l87 134l450 -290l-83 -128z" />
<glyph unicode="&#x1ef3;" horiz-adv-x="1118" d="M21 1065h221l341 -711l331 711h194l-689 -1491h-197l264 566zM270 1500l88 134l449 -290l-83 -128z" />
<glyph unicode="&#x2000;" horiz-adv-x="987" />
<glyph unicode="&#x2001;" horiz-adv-x="1977" />
<glyph unicode="&#x2002;" horiz-adv-x="987" />
<glyph unicode="&#x2003;" horiz-adv-x="1977" />
<glyph unicode="&#x2004;" horiz-adv-x="658" />
<glyph unicode="&#x2005;" horiz-adv-x="493" />
<glyph unicode="&#x2006;" horiz-adv-x="328" />
<glyph unicode="&#x2007;" horiz-adv-x="328" />
<glyph unicode="&#x2008;" horiz-adv-x="246" />
<glyph unicode="&#x2009;" horiz-adv-x="395" />
<glyph unicode="&#x200a;" horiz-adv-x="109" />
<glyph unicode="&#x2010;" horiz-adv-x="1337" d="M171 563v191h996v-191h-996z" />
<glyph unicode="&#x2011;" horiz-adv-x="1337" d="M171 563v191h996v-191h-996z" />
<glyph unicode="&#x2012;" horiz-adv-x="1337" d="M171 563v191h996v-191h-996z" />
<glyph unicode="&#x2013;" horiz-adv-x="1975" d="M149 563v191h1678v-191h-1678z" />
<glyph unicode="&#x2014;" horiz-adv-x="2934" d="M149 563v191h2637v-191h-2637z" />
<glyph unicode="&#x2018;" horiz-adv-x="516" d="M85 1044q0 43 19 74l222 398l107 -59l-152 -260q53 -15 86 -57.5t33 -95.5q0 -61 -44.5 -109.5t-113.5 -48.5q-68 0 -112.5 48t-44.5 110z" />
<glyph unicode="&#x2019;" horiz-adv-x="516" d="M85 945l151 260q-53 15 -85.5 57.5t-32.5 96.5q0 62 44.5 109.5t112.5 47.5t113 -47.5t45 -109.5q0 -42 -20 -75l-222 -398z" />
<glyph unicode="&#x201a;" horiz-adv-x="516" d="M85 -256l151 260q-53 15 -85.5 57.5t-32.5 96.5q0 61 44.5 109t112.5 48t113 -48t45 -109q0 -43 -20 -75l-222 -398z" />
<glyph unicode="&#x201c;" horiz-adv-x="915" d="M85 1044q0 43 19 74l222 398l107 -59l-152 -260q53 -15 86 -57.5t33 -95.5q0 -61 -44.5 -109.5t-113.5 -48.5q-68 0 -112.5 48t-44.5 110zM484 1044q0 43 18 74l222 398l107 -59l-152 -260q53 -15 86.5 -57.5t33.5 -95.5q0 -61 -45 -109.5t-113 -48.5q-69 0 -113 48 t-44 110z" />
<glyph unicode="&#x201d;" horiz-adv-x="915" d="M85 945l151 260q-53 15 -85.5 57.5t-32.5 96.5q0 62 44.5 109.5t112.5 47.5t113 -47.5t45 -109.5q0 -42 -20 -75l-222 -398zM484 945l150 260q-53 15 -85.5 57.5t-32.5 96.5q0 62 44.5 109.5t112.5 47.5q69 0 113.5 -47.5t44.5 -109.5q0 -42 -20 -75l-221 -398z" />
<glyph unicode="&#x201e;" horiz-adv-x="915" d="M85 -256l151 260q-53 15 -85.5 57.5t-32.5 96.5q0 61 44.5 109t112.5 48t113 -48t45 -109q0 -43 -20 -75l-222 -398zM484 -256l150 260q-53 15 -85.5 57.5t-32.5 96.5q0 61 44.5 109t112.5 48q69 0 113.5 -48t44.5 -109q0 -43 -20 -75l-221 -398z" />
<glyph unicode="&#x2020;" horiz-adv-x="1036" d="M32 894v171h405v514h164v-514h405v-171h-405v-1095h-164v1095h-405z" />
<glyph unicode="&#x2021;" horiz-adv-x="1036" d="M32 313v171h405v475h-405v169h405v451h164v-451h405v-169h-405v-475h405v-171h-405v-514h-164v514h-405z" />
<glyph unicode="&#x2022;" horiz-adv-x="911" d="M191 681q0 116 75 190t190 74t189.5 -74t74.5 -190q0 -115 -74.5 -189.5t-189.5 -74.5q-116 0 -190.5 74.5t-74.5 189.5z" />
<glyph unicode="&#x2026;" horiz-adv-x="2063" d="M213 166q0 71 48 120t119 49q70 0 118.5 -49.5t48.5 -119.5t-49 -118t-118 -48q-71 0 -119 48t-48 118zM864 166q0 71 48 120t119 49q70 0 119 -49.5t49 -119.5t-49 -118t-119 -48q-71 0 -119 48t-48 118zM1516 166q0 71 48 120t119 49q70 0 119 -49.5t49 -119.5 t-49 -118t-119 -48q-71 0 -119 48t-48 118z" />
<glyph unicode="&#x202f;" horiz-adv-x="395" />
<glyph unicode="&#x2030;" horiz-adv-x="2327" d="M75 1163q0 70 24.5 129.5t69 104t104 69.5t129.5 25q71 0 130.5 -25t104 -69.5t69 -104t24.5 -129.5q0 -71 -24.5 -130.5t-69 -104t-104 -69t-130.5 -24.5q-70 0 -129.5 24.5t-104 69t-69 104t-24.5 130.5zM156 87l1114 1404l106 -85l-1114 -1406zM215 1163 q0 -83 52 -135t135 -52q84 0 136 52t52 135t-52 135t-136 52q-83 0 -135 -52t-52 -135zM795 328q0 70 24 130t69 104.5t104.5 69t129.5 24.5q71 0 130.5 -24.5t104.5 -69t69.5 -104.5t24.5 -130q0 -71 -24.5 -130.5t-69.5 -104t-104.5 -69t-130.5 -24.5t-130 24.5t-104 69 t-69 104t-24 130.5zM935 328q0 -84 52 -136t135 -52t135.5 52t52.5 136q0 83 -52.5 135.5t-135.5 52.5t-135 -52.5t-52 -135.5zM1597 328q0 70 24.5 130t69.5 104.5t104.5 69t129.5 24.5q71 0 130.5 -24.5t104.5 -69t69.5 -104.5t24.5 -130q0 -71 -24.5 -130.5t-69.5 -104 t-104.5 -69t-130.5 -24.5t-130 24.5t-104 69t-69.5 104t-24.5 130.5zM1738 328q0 -84 52.5 -136t134.5 -52q83 0 135.5 52t52.5 136q0 83 -52.5 135.5t-135.5 52.5t-135 -52.5t-52 -135.5z" />
<glyph unicode="&#x2039;" horiz-adv-x="791" d="M85 553l394 449l122 -112l-305 -337l305 -338l-122 -109z" />
<glyph unicode="&#x203a;" horiz-adv-x="791" d="M191 215l305 338l-305 337l122 112l394 -449l-394 -447z" />
<glyph unicode="&#x2044;" horiz-adv-x="282" d="M-469 87l1115 1404l106 -85l-1114 -1406z" />
<glyph unicode="&#x205f;" horiz-adv-x="493" />
<glyph unicode="&#x20a4;" horiz-adv-x="1321" d="M106 543v175l215 66v166l-215 -66v175l215 65v367h193v-309l429 133v-175l-429 -132v-167l429 132v-174l-429 -132v-476q119 0 221 42t175.5 115.5t115 175.5t41.5 222h191q0 -160 -56 -296.5t-155.5 -236.5t-236.5 -156.5t-296 -56.5h-193v609z" />
<glyph unicode="&#x20ac;" horiz-adv-x="1435" d="M63 516l69 149h130q-2 18 -2 38.5v42.5v33.5t2 33.5h-177l68 150h130q30 128 94 225.5t151.5 165t194 102.5t220.5 35q132 0 247 -41.5t224 -128.5l-81 -181q-79 77 -180 118t-216 41q-166 0 -283 -92.5t-168 -243.5h768l-67 -150h-734q0 -16 -1 -33.5t-1 -33.5 q0 -21 1 -42t4 -39h658l-68 -149h-556q51 -147 166 -236t277 -89q59 0 118 15.5t134 51.5l31 -197q-88 -34 -148 -47.5t-129 -13.5q-115 0 -219 34.5t-189.5 100.5t-148.5 161.5t-95 219.5h-224z" />
<glyph unicode="&#x20b9;" horiz-adv-x="1134" d="M149 571v191h258q110 0 184 59t90 155h-532v160h518q-31 75 -98 119t-162 44h-258v192h922l-106 -160h-187q73 -85 94 -195h199l-106 -160h-85q-11 -90 -48 -163.5t-98 -128t-143 -84t-178 -29.5l542 -571h-274z" />
<glyph unicode="&#x20bd;" horiz-adv-x="1268" d="M149 317v160h132v104h-132v192h132v718h467q102 0 187 -35t145 -96t92.5 -145.5t32.5 -179.5q0 -98 -32.5 -181t-92.5 -143.5t-145 -95t-187 -34.5h-275v-104h573v-160h-573v-317h-192v317h-132zM473 773h275q119 0 192.5 73.5t73.5 188.5q0 113 -73.5 188.5t-192.5 75.5 h-275v-526z" />
<glyph unicode="&#x2122;" horiz-adv-x="2067" d="M106 1342v149h763v-149h-306v-680h-150v680h-307zM961 662v829h142l360 -629l354 629h144v-829h-148v518l-295 -518h-114l-294 518v-518h-149z" />
<glyph unicode="&#x2202;" d="M171 456q0 115 39.5 208.5t106.5 160.5t155.5 104.5t183.5 37.5q114 0 198.5 -42.5t139.5 -89.5q-6 143 -37.5 245t-85.5 168.5t-122 96t-146 29.5q-98 0 -178 -36.5t-133 -71.5l-87 161q65 49 169.5 88.5t230.5 39.5q122 0 228 -47t186 -141.5t127 -239.5t47 -343 q0 -168 -36.5 -316.5t-107.5 -258t-177 -172.5t-246 -63q-113 0 -198 39.5t-142.5 106.5t-86 153.5t-28.5 182.5zM368 451q0 -63 20.5 -117.5t55.5 -93.5t85 -61.5t110 -22.5q74 0 133 34t101.5 94.5t70 144t40.5 183.5q-24 32 -57 62.5t-73.5 55t-87 40.5t-97.5 16 q-64 0 -118.5 -26.5t-95 -71.5t-64 -105.5t-23.5 -131.5z" />
<glyph unicode="&#x2206;" horiz-adv-x="1506" d="M43 0l658 1587h106l658 -1587h-1422zM313 138h886l-443 1102z" />
<glyph unicode="&#x220f;" horiz-adv-x="1453" d="M43 1335v181h1369v-181h-237v-1524h-191v1524h-513v-1524h-192v1524h-236z" />
<glyph unicode="&#x2211;" d="M162 -85l523 745l-498 710v121h982v-188h-690l446 -643l-476 -686h750v-187h-1037v128z" />
<glyph unicode="&#x221a;" d="M87 967l324 136l375 -935l334 1791l156 -18l-392 -2061h-154l-421 1021l-162 -70z" />
<glyph unicode="&#x221e;" horiz-adv-x="1563" d="M43 636q0 77 28.5 141t77.5 110t114 72.5t137 26.5q60 0 113.5 -18t100 -50t88.5 -73.5t80 -86.5q39 45 80 86.5t87.5 73.5t99 50t114.5 18q73 0 138 -26.5t113.5 -72.5t77 -110t28.5 -141q0 -74 -28.5 -137.5t-77 -110.5t-113.5 -72.5t-138 -25.5q-62 0 -114.5 18 t-99 50t-88 72.5t-79.5 85.5q-38 -45 -80 -85.5t-88.5 -72.5t-100 -50t-113.5 -18q-72 0 -137 25.5t-114 72.5t-77.5 111t-28.5 137zM205 636q0 -89 58 -145t137 -56q41 0 78.5 16t71 43.5t66.5 64.5t67 77q-68 84 -134.5 144.5t-148.5 60.5q-38 0 -74 -15t-63 -42.5 t-42.5 -65t-15.5 -82.5zM880 636q65 -81 133.5 -141t149.5 -60q79 0 137.5 56t58.5 145q0 45 -16 82.5t-42.5 65t-63 42.5t-74.5 15q-81 0 -148.5 -60.5t-134.5 -144.5z" />
<glyph unicode="&#x222b;" d="M384 -232q36 -6 60.5 -9.5t57.5 -3.5q84 0 84 96v1710q0 132 66 198t159 66q41 0 83.5 -5t85.5 -16v-178q-37 6 -61.5 9t-58.5 3q-83 0 -82 -96v-1710q0 -66 -18 -116.5t-49.5 -83t-72 -49t-87.5 -16.5q-40 0 -82.5 5.5t-84.5 16.5v179z" />
<glyph unicode="&#x2248;" d="M108 413q69 69 155 118.5t182 49.5q73 0 135.5 -25.5t120 -57t110.5 -57.5t107 -26q60 0 119.5 36.5t114.5 87.5l102 -147q-36 -34 -74 -66t-80.5 -58t-88.5 -40.5t-93 -14.5q-75 0 -140 26.5t-122.5 57.5t-108.5 58t-102 27q-61 0 -121 -37.5t-115 -88.5zM108 867 q69 69 155 118.5t182 49.5q73 0 135.5 -25.5t120 -57.5t110.5 -57.5t107 -25.5q60 0 119.5 36t114.5 87l102 -146q-36 -35 -74 -66.5t-80.5 -57t-88.5 -40.5t-93 -15q-75 0 -140 26.5t-122.5 57.5t-108.5 57.5t-102 26.5q-61 0 -121 -37.5t-115 -88.5z" />
<glyph unicode="&#x2260;" d="M164 294v192h315l141 266h-456v191h558l126 235l142 -75l-85 -160h294v-191h-396l-143 -266h539v-192h-641l-125 -235l-143 71l86 164h-212z" />
<glyph unicode="&#x2264;" d="M187 705v149l923 294l51 -177l-635 -191l635 -192l-51 -177zM203 115v188h972v-188h-972z" />
<glyph unicode="&#x2265;" d="M187 115v188h974v-188h-974zM203 588l634 192l-634 191l51 177l921 -294v-149l-921 -294z" />
<glyph unicode="&#x25ca;" d="M166 705l441 899h149l441 -899l-441 -896h-149zM347 705l334 -707l335 707l-335 709z" />
<glyph unicode="&#x25fc;" horiz-adv-x="1066" d="M0 1066h1066v-1066h-1066v1066z" />
<glyph unicode="&#xf8ff;" horiz-adv-x="1841" d="M106 1439q0 35 22.5 56t56.5 21q32 0 55.5 -21t23.5 -56q0 -20 -9.5 -40.5t-28.5 -30.5v-51q38 14 85 30t97 28.5t99 21.5t94 9q41 0 80 -11t71 -32t51.5 -55t19.5 -79v-54q36 9 95.5 17.5t120.5 8.5q53 0 105.5 -7t94 -27.5t68 -55t26.5 -87.5v-102q39 11 80.5 18 t84.5 7q132 0 185 -47.5t53 -119.5v-512q-66 41 -124.5 55t-113.5 14q-62 0 -122.5 -21.5t-129.5 -21.5q-102 0 -102 98v183q-49 11 -105 11q-75 0 -150.5 -19.5t-155.5 -19.5q-49 0 -76 27t-27 72v144h-29q-45 0 -95 -9.5t-101 -23t-98 -31t-81 -29.5v-697h-84v1370 q-36 23 -36 69zM226 760q95 37 190.5 63.5t184.5 26.5q37 0 80 -6.5t79 -23.5v409q0 33 -15 54.5t-37.5 35.5t-51 20.5t-55.5 6.5q-43 0 -92 -9.5t-100 -23.5t-98 -30.5t-85 -32.5v-490zM323 1236h73l98 -137l96 137h72l-136 -203v-145h-64v145zM685 641q0 -35 48 -34 q75 0 150.5 18t155.5 18q63 0 125.5 -13.5t109.5 -39.5v420q0 16 -4 38.5t-26.5 44t-71 35.5t-135.5 14q-85 0 -214 -26v-364q0 -26 -21.5 -39.5t-47.5 -22.5t-47.5 -19.5t-21.5 -29.5zM691 716q18 10 42.5 15.5t24.5 18.5q0 10 -19 20t-48 14v-68zM852 882q0 75 46.5 122.5 t121.5 47.5q77 0 125 -47.5t48 -122.5t-48 -124t-125 -49q-75 0 -121.5 49t-46.5 124zM912 882q0 -49 30.5 -80t77.5 -31q49 0 81.5 31t32.5 80t-32.5 78.5t-81.5 29.5q-47 0 -77.5 -29.5t-30.5 -78.5zM1201 386q0 -34 45 -34q61 0 124 22t130 22q49 0 93.5 -8t85.5 -24v414 q0 65 -50 86.5t-131 21.5q-62 0 -165 -26v-356q0 -30 -20 -43.5t-45.5 -23t-46 -20t-20.5 -31.5zM1201 462q24 16 48.5 23t24.5 21q0 24 -21.5 34.5t-51.5 22.5v-101zM1429 492q0 40 43 40q40 0 40 -40q0 -43 -40 -43q-43 0 -43 43zM1439 581v214h63v-214h-63z" />
</font>
</defs>
</svg>
