<svg id="output_text"  data-mode="PATTERNS__MODE" data-proc_number="0" width="100%" height="100%" version="1.1" xmlns="http://www.w3.org/2000/svg" xmlns:xlink="http://www.w3.org/1999/xlink" viewBox="0 35 456 170" preserveAspectRatio="xMidYMid meet" style="background-color:#fff;" >
<style type="text/css">
.st1 {
  fill: #B81E24;
  font-size: 1.75rem;
  letter-spacing: 0px;
  font-family: 'arial'; }

.st2 {
  font-size: 0.75rem;
  fill: #0B162E; }

.st3 {
  font-size: 1.25rem;
  fill: #B81E24; }
</style>
                        <defs>
                            <path id="SVGID_x5F_1_x5F_" stroke="red" d="M78.351,132.461c20.599-24.142,81.252-40.653,149.34-40.653c66,0,125.239,15.513,147.501,38.626" />
                        </defs>
    <g id="group4scale">
                        <text class="st1" text-anchor="middle" >
                            <textPath xlink:href="#SVGID_x5F_1_x5F_" startOffset="50%" id="toptext" class="changeable__text_place" style="font-family: avenir;" letter-spacing="0">IMAGINATION</textPath>
                        </text>
                        <text id="midtext" class="st0 st2 changeable__text_place" x="227" y="200" text-anchor="middle" style="font-family: avenir;">is more important than</text>
                        <text id="bottomtext" class="st0 st3 changeable__text_place" x="227" y="240" text-anchor="middle" style="font-family: avenir;">KNOWLEDGE</text>
        <g transform="matrix(0.4, 0,0,0.4, 150,90)">
        <path fill="#5790BC" d="M53.7,132.7c-3.1,1,0.9,3.9,3.3,4.5c1.7,0.5,3.6,0.5,5.4,0.5c3.7,0,7.7-0.8,11.3,0c3.7,0.9,7.5,1.5,11.4,1.8
		c7.9,0.6,14.8-1.5,20.9-6.4c2.1-1.7,4.1-2.3,6.7-1.5c0.7,0.2,1.5,0.3,2.3,0.4c0.8,0.1,1.7,0.3,2.1-0.6c0.4-0.9-0.4-1.5-1.1-1.8
		c-2.4-1.1-4.3-2.7-5.5-5.1c-0.6-1.3-2-1.9-3.4-2.2c-2.2-0.6-2.9-2.1-2.2-4.1c1.3-4,3-7.6,6-10.7c7.5-7.7,15.4-15,22-23.5
		c4.2-5.5,7.5-11.5,9.8-18.1c1.9-5.3,1.6-10.7,1.7-16.1c0-0.7-0.2-1.4-0.9-1.7c-0.8-0.3-1.3,0.3-1.7,0.8c-1,1.1-1.9,2.3-2.8,3.5
		c-0.8,1.4-1.6,2.8-2.5,4.2c-10.2,17.8-24.6,32.3-38.4,47.3c-0.9,1-1.8,2-2.7,3c-1.8,2.1-3.6,4.2-5.3,6.3c-0.8,1.2-1.5,2.4-2.1,3.6
		c-0.9,1.7-1.9,2.1-3.5,1.5c-6.8-2.8-14.1-4.5-20.3-8.9c-2.7-2-6-2.7-9.5-2.8c-11.2-0.1-22.3-0.9-33.3-3.5
		c-4.7-1.1-9.3-2.5-13.8-4.4c-0.8-0.3-1.9-1.3-2.5-0.2c-0.5,1,0.9,1.5,1.6,2c2.9,2,6.2,2.9,9.4,4.2c10.5,4.2,21.1,8.4,31.7,12.5
		c2.4,0.9,4.8,1.8,7.4,2c2.9,0.3,5.3,2.2,8.1,3.1c2.4,0.7,4.5,2.1,7,2.7c0.9,0.2,1.9,0.8,0.6,1.6c-2.7,1.8-5.3,4.5-8.5,5.2
		c-2.4,0.6-5,0.1-7.5,0.4C154.3,132.5,154,132.6,153.7,132.7z"/>
        <path fill="#5790BC" d="M339.4,165.4c2.1-0.3,0.6,2.6-0.6,3.6c-0.9,0.8-2,1.3-3,1.8c-2.2,1.1-4.8,1.7-6.7,3.2c-1.9,1.6-4,3-6.2,4.3
		c-4.5,2.6-9.2,3.4-14.2,2.2c-1.7-0.4-3.1-0.2-4.3,1c-0.4,0.3-0.8,0.6-1.2,0.9c-0.4,0.3-0.9,0.6-1.4,0.2c-0.5-0.4-0.2-1,0.1-1.4
		c1.1-1.4,1.8-2.8,1.8-4.6c0-0.9,0.6-1.7,1.3-2.3c1.1-1,1.1-2.1,0.1-3.1c-1.9-2-3.9-3.6-6.6-4.6c-6.6-2.4-13.4-4.5-19.7-7.6
		c-4.1-2-7.7-4.7-10.9-7.9c-2.6-2.6-4-5.9-5.6-9c-0.2-0.4-0.3-0.9,0.1-1.3c0.4-0.4,0.9-0.2,1.3,0c0.9,0.4,1.8,0.8,2.7,1.3
		c0.9,0.6,1.8,1.2,2.7,1.8c11.1,7.6,23.8,12,36.2,16.9c0.8,0.3,1.6,0.7,2.5,1c1.7,0.7,3.3,1.4,5,2.2c0.8,0.5,1.5,1,2.3,1.5
		c1,0.8,1.7,0.7,2.5-0.1c3.2-3.6,7.1-6.7,9.4-11c1.1-1.9,2.8-3.3,4.8-4.4c6.6-3.3,12.9-6.9,18.6-11.6c2.5-2,4.8-4.1,6.9-6.5
		c0.4-0.4,0.8-1.3,1.4-0.8c0.6,0.5-0.1,1.1-0.4,1.6c-1.1,2-2.8,3.5-4.3,5.2c-5,5.5-10,11-15.1,16.4c-1.1,1.2-2.3,2.4-3.8,3.3
		c-1.6,1-2.5,2.9-3.9,4.2c-1.2,1.1-2.1,2.5-3.3,3.6c-0.5,0.4-0.9,1,0.1,1.2c2.1,0.3,4.4,1.2,6.5,0.7c1.6-0.4,3-1.4,4.5-1.9
		C339,265.5,339.2,265.4,339.4,265.4z"/>
        </g>
    </g>
</svg>
