<svg id="output_text"  data-mode="PATTERNS__MODE" data-proc_number="1" width="100%" height="100%" viewBox="0 35 456 270"  version="1.1" xmlns="http://www.w3.org/2000/svg" xmlns:xlink="http://www.w3.org/1999/xlink" preserveAspectRatio="xMidYMid meet" style="background-color:#fff;" >
<style type="text/css">
    .st1 {
        fill: #150; }
.st2 {
  font-size: 2.5rem;
  fill: #150; }

.st3 {
  font-size: 2.5rem;
  fill: #910; }
</style>
    <g id="group4scale" text-anchor="middle" >
        <text id="toptext" class="st0 st3 changeable__text_place" x="164" y="20"  style="font-family: avenir;">IMAGINATION is</text>
        <text id="midtext0" class="st0 st2 changeable__text_place" x="164" y="90"  style="font-family: avenir;">more important</text>
        <text id="midtext1" class="st0 st2 changeable__text_place" x="164" y="170" style="font-family: avenir;">than</text>
        <text id="bottomtext" class="st0 st3 changeable__text_place" x="164" y="240" style="font-family: avenir;">KNOWLEDGE</text>
        <g id="static_decoration">
            <path transform="matrix(1,0,0,-1,-65,300)" class="st1" d="M150.9,370.9c8.6,1.5,17.3-0.2,25.9-1.7c9.4-1.7,18.6-0.9,27.9,1.2c3.6,0.8,7.2,1.5,10.5,3.3    c0.8,0.4,1.5,0.5,2.1-0.4c3.4-5.3,9.1-6.7,14.6-7.9c9.4-2.1,18.7-1.1,27.9,1.2c11.5,2.9,22.9,5.8,34.6,8c4.8,0.9,9.7,1.2,14.4-1    c1.6-0.7,3.7-4.8,3.3-6.7c-0.5-2.4-2.1-3.9-4.4-4.7c-1.7-0.6-2.7,0.6-3.4,1.9c-0.7,1.2-0.7,2.3,0.7,3.1c1.2,0.7,2,1.9,1,3    c-1.1,1.2-2.6,1-3.9,0c-2.5-1.8-2.8-6.4-0.7-9.2c2.3-3.1,6.2-3.9,8.9-1.8c8,6,5.9,16.5-1.2,20c-5.2,2.5-10.5,4.1-16.4,4.1    c-11.2,0.2-21.8-3-32.4-5.7c-11.9-3.1-23.8-3-35.8-0.8c-0.7,0.1-1.4,0.3-2.1,0.5c-3.4,1.4-3.5,1.6-1.2,4.4c3.2,3.8,4.3,8,2.6,12.8    c-1.1,3.2-3.9,5.3-6.5,5.1c-3.3-0.3-5.9-2.7-6.4-6.3c-0.6-3.8-0.2-7.6,1.1-11.2c0.8-2,0.1-2.7-1.7-3.2c-3.9-1-7.8-1.4-11.8-1.3    c-12.4,0.5-24.8,1.8-37.2,3.5c-5.7,0.8-11.6,1.2-17.4,0c-8.4-1.8-13.5-7.3-16.4-15c-1.7-4.6,1.7-10.6,6.8-13.1    c3.5-1.7,10.1,0.3,12.3,3.9c1.2,2,0.9,4.2-0.4,6c-1.6,2.2-3.9,2.9-6.2,2c-1-0.4-1.6-0.9-1.6-1.9c0-1.2,0.8-1.5,1.8-1.8    c0.6-0.1,1.2-0.1,1.8-0.3c1.6-0.6,2.1-1.7,0.7-3c-1.9-1.8-4.2-2.8-6.7-1.8c-2.7,1-4.4,3.2-5.2,6c-0.4,1.5,1,2.1,1.9,2.8    c4.2,3.3,9.1,4.9,14.3,5.4C148.3,370.8,149.5,370.8,150.9,370.9z M249.8,368.1c-3.9-0.6-8.1-0.2-12.2,0.3    c-3.5,0.4-6.8,1.4-9.9,2.8c-0.3,0.1-0.8,0.2-0.7,0.7c0,0.1,0.5,0.2,0.8,0.2c0.6,0,1.2-0.1,1.8-0.1c7.6-0.5,15.1-0.4,22.6,0.9    c9.5,1.6,18.8,4.5,28.4,5.9c4.7,0.7,9.5,1.5,14.3,0.7c0.6-0.1,1.7,0.1,1.7-0.8c0-0.9-1.1-0.7-1.7-0.8c-8-1.3-15.7-3.4-23.6-5.2    C264.2,371.1,257.4,368.3,249.8,368.1z M150.1,378.6c5.5-0.2,10.7-0.4,15.8-1.2c10.9-1.8,21.9-3.2,33-3c0.6,0,1.2,0,1.6-0.7    c-0.5-0.2-0.9-0.4-1.4-0.5c-7.7-1.2-15.4-1.4-23.1,0c-10.4,1.8-20.8,2.6-31.3,1c-2.8-0.4-5.6-1-8.3-2c-0.3-0.1-1-0.2-1.1,0    c-0.3,0.4,0.1,0.7,0.4,1c2,1.9,3.9,3.9,6.9,4.3C145.2,378,147.8,378.3,150.1,378.6z M214.7,388.8c-0.3,1.5-0.2,2.9,0.1,4.3    c0.3,1.2,0.6,2.1,1.9,2.4c1.3,0.3,2.1-0.4,2.8-1.3c2.5-2.9,1.3-9.7-2-11.3c-1-0.5-1.6,0.2-1.8,1    C215.2,385.5,214.7,387.1,214.7,388.8z M202.5,374c0.1,0.2,0.2,0.3,0.4,0.5c0.2,0.1,0.4,0,0.3-0.2c0-0.1-0.2-0.3-0.3-0.4    C202.8,373.8,202.7,374,202.5,374z"/>
            <path transform="matrix(1,0,0,1,-65,-80)" class="st1" d="M150.9,370.9c8.6,1.5,17.3-0.2,25.9-1.7c9.4-1.7,18.6-0.9,27.9,1.2c3.6,0.8,7.2,1.5,10.5,3.3    c0.8,0.4,1.5,0.5,2.1-0.4c3.4-5.3,9.1-6.7,14.6-7.9c9.4-2.1,18.7-1.1,27.9,1.2c11.5,2.9,22.9,5.8,34.6,8c4.8,0.9,9.7,1.2,14.4-1    c1.6-0.7,3.7-4.8,3.3-6.7c-0.5-2.4-2.1-3.9-4.4-4.7c-1.7-0.6-2.7,0.6-3.4,1.9c-0.7,1.2-0.7,2.3,0.7,3.1c1.2,0.7,2,1.9,1,3    c-1.1,1.2-2.6,1-3.9,0c-2.5-1.8-2.8-6.4-0.7-9.2c2.3-3.1,6.2-3.9,8.9-1.8c8,6,5.9,16.5-1.2,20c-5.2,2.5-10.5,4.1-16.4,4.1    c-11.2,0.2-21.8-3-32.4-5.7c-11.9-3.1-23.8-3-35.8-0.8c-0.7,0.1-1.4,0.3-2.1,0.5c-3.4,1.4-3.5,1.6-1.2,4.4c3.2,3.8,4.3,8,2.6,12.8    c-1.1,3.2-3.9,5.3-6.5,5.1c-3.3-0.3-5.9-2.7-6.4-6.3c-0.6-3.8-0.2-7.6,1.1-11.2c0.8-2,0.1-2.7-1.7-3.2c-3.9-1-7.8-1.4-11.8-1.3    c-12.4,0.5-24.8,1.8-37.2,3.5c-5.7,0.8-11.6,1.2-17.4,0c-8.4-1.8-13.5-7.3-16.4-15c-1.7-4.6,1.7-10.6,6.8-13.1    c3.5-1.7,10.1,0.3,12.3,3.9c1.2,2,0.9,4.2-0.4,6c-1.6,2.2-3.9,2.9-6.2,2c-1-0.4-1.6-0.9-1.6-1.9c0-1.2,0.8-1.5,1.8-1.8    c0.6-0.1,1.2-0.1,1.8-0.3c1.6-0.6,2.1-1.7,0.7-3c-1.9-1.8-4.2-2.8-6.7-1.8c-2.7,1-4.4,3.2-5.2,6c-0.4,1.5,1,2.1,1.9,2.8    c4.2,3.3,9.1,4.9,14.3,5.4C148.3,370.8,149.5,370.8,150.9,370.9z M249.8,368.1c-3.9-0.6-8.1-0.2-12.2,0.3    c-3.5,0.4-6.8,1.4-9.9,2.8c-0.3,0.1-0.8,0.2-0.7,0.7c0,0.1,0.5,0.2,0.8,0.2c0.6,0,1.2-0.1,1.8-0.1c7.6-0.5,15.1-0.4,22.6,0.9    c9.5,1.6,18.8,4.5,28.4,5.9c4.7,0.7,9.5,1.5,14.3,0.7c0.6-0.1,1.7,0.1,1.7-0.8c0-0.9-1.1-0.7-1.7-0.8c-8-1.3-15.7-3.4-23.6-5.2    C264.2,371.1,257.4,368.3,249.8,368.1z M150.1,378.6c5.5-0.2,10.7-0.4,15.8-1.2c10.9-1.8,21.9-3.2,33-3c0.6,0,1.2,0,1.6-0.7    c-0.5-0.2-0.9-0.4-1.4-0.5c-7.7-1.2-15.4-1.4-23.1,0c-10.4,1.8-20.8,2.6-31.3,1c-2.8-0.4-5.6-1-8.3-2c-0.3-0.1-1-0.2-1.1,0    c-0.3,0.4,0.1,0.7,0.4,1c2,1.9,3.9,3.9,6.9,4.3C145.2,378,147.8,378.3,150.1,378.6z M214.7,388.8c-0.3,1.5-0.2,2.9,0.1,4.3    c0.3,1.2,0.6,2.1,1.9,2.4c1.3,0.3,2.1-0.4,2.8-1.3c2.5-2.9,1.3-9.7-2-11.3c-1-0.5-1.6,0.2-1.8,1    C215.2,385.5,214.7,387.1,214.7,388.8z M202.5,374c0.1,0.2,0.2,0.3,0.4,0.5c0.2,0.1,0.4,0,0.3-0.2c0-0.1-0.2-0.3-0.3-0.4    C202.8,373.8,202.7,374,202.5,374z"/>
        </g>
    </g>

</svg>
