<?xml version="1.0" encoding="utf-8"?>
<!-- Generator: Adobe Illustrator 21.0.1, SVG Export Plug-In . SVG Version: 6.00 Build 0)  -->
<svg version="1.1" id="Calque_1" xmlns="http://www.w3.org/2000/svg" xmlns:xlink="http://www.w3.org/1999/xlink" x="0px" y="0px"
	 viewBox="0 0 432 432" style="enable-background:new 0 0 432 432;" xml:space="preserve">
<style type="text/css">
	.st0{fill:#DA4D7C;}
	.st1{fill:#C87B33;}
	.st2{fill:#DA1C5C;}
	.st3{fill:#C29347;}
	.st4{fill:#010101;}
	.st5{fill:#9B8579;}
	.st6{fill:#5790BC;}
</style>
<g>
	<g>
		<path d="M218.1,224.3c-0.6,0.6-1.2,1.1-1.7,1.7c-3.4,3.2-7.3,3.8-11.7,2.7c-2.7-0.7-4.6-2.6-5.8-5c-1.3-2.7-1.9-5.5-2-8.5
			c0-0.7,0-1.4-0.2-2.1c-0.2,0.3-0.4,0.5-0.5,0.8c-1.6,2.8-3.2,5.5-5.2,7.9c-0.8,0.9-1.6,1.9-2.6,2.7c-3.7,3.1-7.8,3.4-12.2,1.8
			c-0.5-0.2-1-0.5-1.4-0.8c-0.6-0.5-1.2-0.6-1.9-0.5c-3.8,0.6-7.6,0.1-11.3-0.9c-3.6-1-6.9-2.6-10-4.6c-4.5-2.9-7.1-7.2-8.5-12.3
			c-0.8-2.8-1.1-5.7-1.2-8.7c0-0.4,0-0.9,0-1.3c-0.9,0.1-3.4,1.1-5.1,2.1c0.2,1.1,0.5,2.3,0.8,3.5c1.4,8,0.3,15.8-3,23.2
			c-1.1,2.4-2.3,4.6-3.9,6.7c-4,5.3-11.3,6.9-16.7,5.3c-4.5-1.3-7.1-4.7-7.1-9.4c0-4.7,1.4-9.1,3.7-13.1c4.1-7,9.7-12.3,16.8-16.2
			c0.5-0.2,0.9-0.5,1.4-0.8c0-0.2,0-0.4-0.1-0.5c-1.3-3.7-3.1-7.1-6-9.8c-1-0.9-2.1-1.7-3.3-2.4c-2.1-1.2-4.3-1.2-6.5-0.5
			c-4.6,1.3-8.1,4.1-10.8,7.9c-0.6,0.8-1,1.8-1.4,2.8c-0.4,0.9-1.1,1.5-2.1,1.6c-1,0.1-2,0.1-3-0.1c-1.2-0.3-1.6-0.9-1.4-2.1
			c0.3-1.5,0.6-3,1-4.4c1.7-6.4,3.6-12.7,5.2-19.1c1.6-6.1,2.7-12.3,3.2-18.5c0.4-5.6,0.4-11.2,0-16.8c-0.3-3.3-0.6-6.5-1.6-9.7
			c-0.3-1.2-0.8-2.3-1.3-3.6c-0.4,0.3-0.7,0.5-0.9,0.8c-1,1.3-2.1,2.6-3,4c-2.8,4.4-4.7,9.2-6.4,14.2c-2.7,8-4.4,16.2-5.4,24.5
			c-0.8,7.4-1.2,14.7-1.3,22.1c0,0.7,0.1,1.4,0.2,2.1c3.3,12.1,5.9,24.3,8.1,36.6c0.8,4.6,1.5,9.3,2.3,14c0.1,0.7,0.1,1.4,0.1,2
			c0.1,1.1-0.4,1.8-1.3,2.2c-0.9,0.4-1.9,0.6-2.9,0.8c-1.4,0.2-2.7,0-4-0.4c-1.2-0.4-2-1.2-2.4-2.3c-0.8-2.3-1.7-4.5-2.3-6.8
			c-1.7-6.9-3.3-13.9-4.9-20.9c-3-12.9-6.2-25.8-9.6-38.6c-1.5-5.7-2.9-11.4-4.3-17.1c-0.6-2.4-0.9-5-0.9-7.5c0.1-2.6,1-3.4,3.5-3.4
			c1.5,0,2.7,0.5,3.5,1.8c0.6,1,1.3,2,1.8,3.1c3.1,6.8,6,13.7,8.4,20.8c0.2,0.6,0.4,1.1,0.8,1.7c0.1-0.3,0.1-0.6,0.2-1
			c0.5-4.7,0.9-9.4,1.5-14.1c1.6-11.2,4.6-21.9,9.9-31.9c1.1-2,2.5-3.9,3.8-5.8c0.4-0.5,0.8-1,1.3-1.4c2.5-2.8,7.5-2.6,9.9,0.1
			c1.4,1.5,2.4,3.2,3.2,5.1c1.4,3.1,2.1,6.4,2.7,9.7c0.9,5.6,1.3,11.2,1,16.9c-0.3,5.2-1.2,10.4-2.7,15.4c-1.5,4.9-3.2,9.8-4.8,14.7
			c-0.1,0.4-0.2,0.7-0.4,1.3c0.6-0.3,0.9-0.5,1.3-0.7c6-3.1,12.1-3.5,18.3-0.7c4.5,2,7.6,5.5,9.9,9.7c0.2,0.4,0.4,0.8,0.7,1.3
			c2.3-1,4.5-2.1,6.7-3c0.5-2.5,0.8-4.9,1.3-7.3c1.3-5.8,3.2-11.3,6.2-16.4c1.3-2.2,2.7-4.1,4.5-5.9c3.9-3.7,8.5-4.8,13.6-3.7
			c4.7,1,7,4.7,6.2,9.5c-0.4,2.2-1.1,4.3-2.2,6.3c-2.4,4.5-5.7,8.2-9.8,11.2c-1.7,1.3-3.5,2.4-5.3,3.5c-0.4,0.2-0.7,0.5-0.7,1
			c-0.3,6,0.1,11.8,1.9,17.6c0.8,2.4,1.8,4.7,3.3,6.8c2.2,3.1,5.3,4.8,8.9,5.7c0.5,0.1,1,0.2,1.5-0.2c-0.2-1.4-0.4-2.8-0.6-4.1
			c-0.4-4.5,0.2-8.9,1.2-13.2c1.8-7.9,4.8-15.2,9.4-21.9c1.6-2.3,3.3-4.5,5.6-6.2c3.4-2.7,7.3-3.7,11.6-2.8c1,0.2,1.9,0.6,2.8,1.1
			c1.3,0.7,1.8,1.5,2.2,3.1c-0.9,0.8-1.7,0.8-2.5,0c-0.7-0.7-1.5-1.2-2.4-1.5c-0.9-0.3-1.8-0.3-2.6,0.4c-0.7,0.7-1.5,1.3-2.1,2.1
			c-1.6,1.9-2.8,4.1-3.9,6.3c-3.9,7.7-6.3,15.9-7.7,24.4c-0.5,3.4-0.8,6.7-0.7,10.2c0.1,1.8,0.3,2.9,0.8,4c0.3-0.3,0.6-0.5,0.9-0.7
			c1.9-1.7,3.5-3.7,5-5.8c3.4-4.9,5.9-10.3,8.2-15.8c0.7-1.8,1.4-3.7,2.2-5.5c1.4-3.4,2.2-7.1,3.1-10.7c0.2-0.9,0.6-1.8,0.9-2.7
			c0.2-0.8,0.8-1.3,1.5-1.6c2.1-0.8,4.2-0.8,6.3,0.1c0.9,0.4,1.3,1,1.3,2c-0.1,1.8-0.2,3.7-0.4,5.5c-0.9,7.3-1.8,14.7-2.7,22
			c-0.5,3.9-0.8,7.8-0.3,11.7c0.2,1.5,0.4,2.9,1.3,4.3c0.6-0.5,1.3-0.9,1.8-1.4c2.5-2,4.5-4.4,6.3-7c0.3-0.5,0.5-1.1,0.5-1.7
			c0.5-4.7,1.5-9.2,2.7-13.7c1.9-6.7,4.4-13.1,7.9-19.1c2-3.3,4.4-6.3,7.5-8.6c4.5-3.3,9.4-4.4,14.9-2.9c4,1.1,6,4,5.9,8.1
			c-0.1,1.5-0.4,2.9-0.9,4.3c-0.3,0.9-1.7,1.3-2.4,0.6c-0.2-0.2-0.2-0.7-0.3-1c-0.6-3.2-2.2-5.8-4.9-7.7c-0.2-0.1-0.4-0.2-0.8-0.4
			c-0.7,0.6-1.4,1.2-2,1.8c-1.7,1.8-3,3.9-4.2,6.1c-2.5,4.7-4.4,9.8-6,14.9c-2.1,6.8-3.6,13.8-4.5,20.8c-0.5,3.6-0.7,7.2-0.1,10.8
			c0.2,1.1,0.5,2.2,0.9,3.2c0.2,0.6,0.6,1.2,1.1,1.9c1-0.6,2-1.1,2.9-1.7c3.2-2.2,5.8-5,8.3-8c4.4-5.3,8-11.2,11.6-17.1
			c1.9-3.2,3.8-6.4,5.6-9.6c0.5-0.9,0.9-1.9,1.2-2.9c2.8-10.4,5.5-20.9,8.9-31.1c3.8-11.8,8.2-23.4,12.9-34.8
			c0.9-2.1,2.1-4.2,3.1-6.2c0.7-1.4,2-1.8,3.4-1.5c1,0.1,1.4,0.6,1.4,1.6c-0.1,1.6-0.3,3.3-0.6,4.9c-1.4,9.4-3.7,18.6-6,27.8
			c-2.7,11.3-5.4,22.5-8.2,33.8c-0.1,0.2-0.1,0.4-0.1,0.7c0.1,0.1,0.2,0.1,0.3,0.2c0.3-0.4,0.5-0.7,0.8-1c2.8-3,5.8-5.6,9.3-7.7
			c1.2-0.7,2.5-1.3,3.9-1.5c1.1-0.2,2.2-0.1,3.3,0.2c1.1,0.4,2,1.1,2.3,2.2c0.3,1.1,0.6,2.3,0.7,3.5c0.2,4.8-0.1,9.7-0.9,14.5
			c-0.9,5.7-2.1,11.3-3.1,17c-0.8,4.5-1.5,9.1-1.6,13.7c-0.1,2,0,4,0.5,6c0.3,1.3,0.8,2.5,1.6,3.6c1,1.3,2.2,1.9,3.9,1.7
			c3.5-0.4,6.5-1.8,9.3-3.8c4.6-3.3,7.8-7.8,10.1-12.9c1.2-2.7,2.1-5.5,2.3-8.5c0.3-4.7-1.5-8.4-5.2-11.3c-0.2-0.2-0.5-0.3-0.7-0.5
			c-0.6-0.4-1.2-0.5-1.8,0c-0.4,0.3-1,0.5-1.5,0.7c-0.2,0.1-0.6,0-0.7-0.2c-0.1-0.2-0.2-0.7-0.1-0.9c0.4-0.4,0.9-0.9,1.5-1.1
			c1.5-0.6,3-0.4,4.4,0.3c1,0.5,1.9,1.1,2.7,1.7c3,2.5,5,5.5,5.1,9.5c0,1.9-0.2,3.7-0.6,5.5c-1.9,7.1-5.3,13.3-10.9,18.1
			c-4.1,3.5-8.8,5.6-14.2,6.2c-2.3,0.2-4.6,0.1-6.8-0.5c-4.5-1.3-7.3-4.2-8.7-8.6c-0.9-2.8-1.1-5.6-0.8-8.5c0.4-5,1.6-9.9,2.9-14.7
			c1.7-6.4,3.6-12.7,5.2-19.1c0.8-3,1.2-6.1,1.7-9.2c0.1-0.5,0-1.1,0-1.8c-0.5,0.3-0.9,0.5-1.2,0.7c-4.2,2.8-7.6,6.3-10.7,10.3
			c-1.7,2.2-3.2,4.5-4.8,6.8c-0.5,0.7-0.8,1.6-1,2.4c-2.2,8.2-4.4,16.4-7.2,24.5c-0.5,1.3-1,2.6-1.5,3.9c-0.4,1-1.2,1.7-2.2,2
			c-2.2,0.7-4.5,0.7-6.7,0c-1.7-0.6-2.2-1.3-2-3.1c0.3-2.7,0.8-5.3,1.3-7.9c0.9-4.2,1.9-8.3,2.9-12.5c0-0.1,0-0.2-0.1-0.4
			c-0.2,0.3-0.4,0.7-0.6,1c-2.8,5-5.7,9.9-9,14.6c-1.7,2.4-3.6,4.7-5.5,7c-0.9,1-1.9,2-2.9,2.8c-4.4,3.5-9.3,4.1-14.4,2.1
			c-3.7-1.4-5.9-4.3-7.1-8C218.8,227.4,218.5,225.9,218.1,224.3z M130.1,202.8c-0.5,0.3-0.9,0.4-1.2,0.7c-2,1.6-4.1,3.1-6,4.8
			c-4.4,4-7.8,8.8-9.7,14.5c-0.6,1.9-1.1,3.8-1.2,5.9c-0.1,2.1,0.3,4.1,1.7,5.7c1.7,2.1,4.2,2.7,6.7,1.7c1.5-0.7,2.8-1.8,3.8-3.1
			c1.4-1.8,2.4-3.7,3.2-5.7c2.8-6.6,4.1-13.5,3.3-20.7C130.5,205.3,130.3,204.1,130.1,202.8z M164.6,163.5c-2.5,2.7-3.9,5.8-5.1,9.2
			c-1.1,3.3-2,6.6-2.5,10.2c0.2-0.1,0.3-0.1,0.4-0.1c3.3-3.1,6-6.6,7.7-10.9c0.5-1.2,0.8-2.6,0.9-3.9
			C166.2,166.4,165.9,164.8,164.6,163.5z"/>
		<path d="M253.8,309.4c-1.4,1-2.9,1.9-4.4,3c0.1,0.2,0.1,0.4,0.2,0.5c2.3,4.4,3,9,2.6,13.8c-0.3,4.6-1.3,9.1-3,13.4
			c-0.7,1.6-1.6,3.2-2.6,4.7c-2.7,3.9-6.6,5.9-11.3,6.4c-4.4,0.5-8.6-0.3-12.5-2.4c-4.3-2.3-6.9-6.1-8.3-10.7
			c-1.2-3.9-1.6-7.9-1.4-12c0.3-5.2,1.3-10.2,3.3-15c1.4-3.3,3.3-6.3,6.1-8.6c3.5-2.9,7.4-4.3,12-3.8c1,0.1,2,0.4,2.9,1
			c0.5,0.4,1,0.8,1.1,1.5c0.1,0.9-0.3,1.2-1.1,0.9c-0.5-0.2-1.1-0.4-1.6-0.6c-0.7-0.3-1.4-0.2-2,0.3c-1.2,0.9-2.1,2-2.8,3.2
			c-1.3,2.1-2.2,4.4-2.8,6.7c-1.9,7-2.8,14.1-2.2,21.4c0.3,2.8,0.8,5.5,1.9,8.1c0.9,2,2,3.7,3.8,5c1.3,0.9,2.5,1.1,4,0.2
			c1.8-1.2,3.3-2.6,4.5-4.4c2.2-3.3,3.4-6.9,4.2-10.8c1.1-5.2,1-10.3-0.4-15.4c-0.1-0.4-0.3-0.8-0.4-1.2c-1.3,0.2-2.4,0.3-3.6,0.4
			c-1.7,0.1-3.4-0.1-5.1-0.7c-0.5-0.2-1-0.4-1.4-0.6c-2.6-1.4-3.3-3.1-2.5-5.9c0.2-0.6,0.4-1.1,0.6-1.7c0.8-1.9,2.2-2.9,4.3-2.9
			c0.2,0,0.4,0,0.6,0c1.8-0.5,3.4,0.1,4.8,1.2c1.1,0.8,2.2,1.7,3.3,2.6c1,0.9,2,1.8,3.1,2.8c0.5-0.3,1-0.6,1.5-1
			c1.4-1.3,2.7-2.6,4-3.9c0.5-0.5,0.6-1,0.6-1.7c0-2.6,0.1-5.1,0.2-7.7c0-0.4,0.1-0.9,0.2-1.3c0.2-1.3,1-2.1,2.3-2.3
			c0.8-0.2,1.7-0.1,2.6-0.1c1.4,0.1,2.5,0.9,3,2.2c0.7,1.9,1.4,3.7,1.9,5.7c0.7,2.6,1.2,5.3,1.7,8c0.1,0.3,0.2,0.6,0.3,1.1
			c0.3-0.7,0.5-1.1,0.7-1.5c1.9-4.2,4-8.3,6.8-11.9c1.2-1.6,2.6-2.9,4.2-4.1c1.3-1,2.9-1.4,4.5-1.1c1.2,0.2,2.2,0.8,2.8,1.9
			c0.5,1,1,2.1,1.3,3.2c1,3.6,1.6,7.3,1.9,11c0.3,2.9,0.5,5.8,0.7,8.7c0,0.1,0.1,0.1,0.2,0.3c0.2-0.3,0.4-0.5,0.5-0.8
			c3.8-7.7,8.5-14.7,14.3-21c1.4-1.6,3.2-1.6,5-1.2c1.6,0.3,2.6,1.5,2.8,3.1c0.4,2.2,0.8,4.5,0.9,6.8c0.2,5.2,0.2,10.4,0.2,15.6
			c0,4.4-0.2,8.7-0.3,13.1c-0.1,4.2-0.1,8.5,0.4,12.7c0.3,1.9,0.7,3.8,1.2,5.6c0.2,0.8,0.8,1.6,1.2,2.3c0.3,0.6,0.8,0.7,1.4,0.4
			c1-0.5,2.1-0.9,3.1-1.5c1.6-0.9,3-1.9,4.4-3c-0.4-1.7-0.9-3.2-1.3-4.8c-0.8-3.6-0.9-7.2-0.6-10.9c0.6-7.6,2.3-15,5-22.2
			c1.3-3.5,2.9-6.8,5.2-9.8c1.8-2.3,3.9-4.1,6.8-4.9c1.9-0.5,3.9-0.6,5.8-0.1c1.7,0.4,3,1.3,3.9,2.9c1.3,2.4,1.6,4.9,1.4,7.6
			c-0.2,3.9-1.2,7.7-2.4,11.5c-2.4,7.8-6.3,14.9-11.3,21.4c-0.4,0.5-0.6,0.9-0.6,1.5c0.3,3.4,0.8,6.8,2.1,10
			c0.8,1.8,1.7,3.5,3.1,4.9c1.8,1.9,3.8,2.5,6.3,1.7c2.7-0.8,5.2-2.1,7.5-3.7c6.2-4.2,9.9-10.2,11.6-17.4c0.5-2,1-4,0.9-6.1
			c0-0.6,0.3-0.9,0.9-0.8c0.7,0.1,1.3,0.5,1.3,1.3c0.1,0.9,0.1,1.8,0,2.8c-0.6,4.9-1.6,9.6-4.1,14c-2.8,5-6.5,9.1-11.6,11.7
			c-6.8,3.5-13.8,3.6-20.7,0.1c-3-1.5-5.3-3.8-7.1-6.6c-0.2-0.4-0.5-0.7-0.8-1.2c-0.5,0.4-1,0.8-1.4,1.1c-2.1,1.6-4.3,3-6.9,3.4
			c-5.7,1-10.8-1.1-13.4-6.5c-1.3-2.7-1.9-5.5-2.1-8.4c-0.5-5-0.4-9.9-0.1-14.9c0.3-4.9,0.6-9.7,1-14.6c0.3-3.7,0.8-7.5,1.3-11.2
			c0-0.2,0-0.4,0.1-0.8c-0.3,0.3-0.5,0.5-0.7,0.7c-6.7,7.8-11.1,16.7-13.7,26.6c-0.1,0.6-0.1,1.2-0.1,1.8c0.1,3.4,0.3,6.9,0.4,10.3
			c0,1.9-0.5,2.5-2.4,3c-1.5,0.4-3.1,0.4-4.6,0c-1.5-0.4-2.4-1.2-2.5-2.8c-0.1-1.6-0.4-3.1-0.5-4.7c-0.4-6.6-0.4-13.3-0.1-19.9
			c0.2-5.4,0.2-10.9,0.3-16.3c0-1.3-0.1-2.6-0.2-4.2c-0.5,0.4-0.9,0.6-1.1,0.9c-1.3,1.6-2.7,3.2-3.8,4.9c-3.7,5.8-6.3,12.1-7.7,18.9
			c-0.3,1.5,0.1,2.9,0.2,4.3c0.6,5.4,1.3,10.9,1.8,16.3c0.1,1.4,0,2.9,0,4.3c0,1-0.6,1.7-1.5,2.1c-2.4,1-4.9,1-7.4,0
			c-1-0.4-1.6-1.3-2-2.3c-0.7-2.3-1.4-4.6-1.9-6.9c-1.8-8.1-2.6-16.3-2.9-24.6c0-0.3,0-0.6,0-0.8C254,309.6,253.9,309.5,253.8,309.4
			z M336.4,333.9c0.3-0.4,0.5-0.5,0.6-0.7c4.1-6.1,7.1-12.8,8.4-20.1c0.5-2.8,0.8-5.5,0.3-8.3c-0.3-1.5-0.7-3-1.6-4.4
			C341.6,303.8,336.4,326,336.4,333.9z M242.6,312.3c-0.9-3.1-2.7-5.4-5-7.2c-0.5-0.4-1-0.3-1.5,0.2c-0.6,0.7-1,1.6-1.1,2.6
			c-0.2,1.7,0,3.2,1.6,4.2c0.9,0.6,1.9,0.9,2.9,0.8C240.6,312.7,241.5,312.5,242.6,312.3z"/>
		<path d="M115,295.8c-1,0.7-1.9,0.6-2.7,0.4c-2.3-0.5-4-1.8-5.3-3.7c-1.5-2.1-2.2-4.4-2.2-7c-0.1-3.2,0.6-6.4,1.6-9.4
			c1.8-5.4,4.3-10.4,8.1-14.7c5.2-6,11.8-8.3,19.7-7.4c6.1,0.7,11.1,3.6,15.4,7.9c3.9,3.8,6.9,8.3,9.6,13c4.9,8.8,8,18.3,9.2,28.3
			c0.4,3,0.5,6,0.7,9c0,0.5,0.1,1,0.1,1.7c0.4-0.2,0.7-0.3,0.9-0.5c4-3,7.9-6,11.9-9c0.6-0.5,0.8-0.9,0.7-1.7
			c-1.2-10.6-2.4-21.1-2.1-31.8c0.2-5.4,0.7-10.7,2.4-15.8c0.3-0.9,0.7-1.7,1.1-2.5c1.6-3.3,4.3-4.8,7.8-5.1
			c7.8-0.7,13.4,4.4,15.8,9.4c2.9,6.1,3.2,12.5,1.4,18.9c-1.8,6.3-5,11.8-9.2,16.8c-1.2,1.4-2.5,2.8-3.8,4.2
			c-0.5,0.6-0.8,1.1-0.7,1.9c0.9,9,1.6,17.9,2.5,26.9c1,10.3,2.2,20.6,4.3,30.7c0.7,3.4,1.6,6.7,3.1,9.8c0.7,1.4,1.5,2.7,2.6,3.8
			c1.2,1.1,2.5,1.6,4.2,1.4c3.9-0.6,7.1-2.3,9.1-6c0.4-0.8,1.1-1.5,1.7-2.1c0.3-0.4,0.9-0.6,1.3-0.3c0.3,0.2,0.6,0.7,0.6,1.1
			c0,0.6-0.1,1.3-0.3,1.8c-0.8,2-2.2,3.5-4,4.7c-4.1,2.5-8.5,3.3-13.2,2.5c-2.1-0.4-4-1.4-5.7-2.7c-2.7-2.1-4.8-4.8-6.5-7.8
			c-2.6-4.5-4.2-9.3-5.5-14.3c-1.7-6.4-2.8-13-3.6-19.6c-0.8-6.5-1.6-12.9-2.5-19.4c0-0.3-0.1-0.5-0.2-0.9c-0.3,0.2-0.5,0.3-0.7,0.4
			c-4.2,3-8.4,6.1-12.7,9.1c-0.7,0.5-0.8,1-0.8,1.7c-0.5,11.8-2.5,23.3-6.5,34.4c-2.6,7.2-6,14-10.7,20c-2,2.6-4.3,4.9-7,6.9
			c-2.7,1.9-5.6,3.2-8.9,3.4c-4.9,0.3-9-1.3-11.8-5.5c-2.2-3.3-3.3-7-3.5-10.9c-0.4-9.9,3-18.4,9.6-25.7c3.4-3.7,7.3-6.9,11.4-9.7
			c5-3.4,10-6.7,15.1-9.9c1.1-0.7,1.5-1.4,1.5-2.7c0.1-10.8-1.2-21.5-4.8-31.7c-2.7-7.7-6.2-14.9-11.1-21.4c-1.7-2.2-3.6-4.3-5.8-6
			c-1.2-0.8-2.4-1.5-3.7-2.2c-1.4-0.7-2.9-0.6-4.4,0c-2.2,0.9-4.1,2.3-5.8,3.9c-2.4,2.4-4.3,5.1-6,8c-2.4,4.1-4.2,8.5-5.2,13.2
			c-0.6,2.9-0.6,5.9,0.4,8.8c0.2,0.5,0.4,1,0.7,1.5c0.4,0.8,0.9,1.4,1.9,1.5C114.4,295.4,114.6,295.5,115,295.8z M158.1,325.2
			c-0.4,0.2-0.6,0.3-0.7,0.4c-5.3,3.2-10.5,6.5-15.5,10.3c-3.5,2.7-6.9,5.5-9.6,9.1c-5.3,6.9-7.9,14.7-6.8,23.4
			c0.4,3.5,1.6,6.8,3.8,9.7c1,1.2,2.1,2.2,3.5,2.8c1,0.4,1.9,0.5,2.9,0c1-0.6,2-1.1,2.9-1.8c2.9-2.2,5.1-5.1,7-8.1
			c3.2-5,5.4-10.3,7.1-15.9c2.4-7.7,3.9-15.7,4.8-23.7C157.7,329.4,157.9,327.5,158.1,325.2z M194.7,291.5c0.3-0.2,0.4-0.3,0.4-0.3
			c4.6-5.6,7.9-11.9,9.1-19.1c0.8-4.9,0.2-9.6-2.3-14c-1.5-2.5-3.3-4.7-6-6c-0.3-0.1-0.6-0.2-1-0.4c-0.3,0.9-0.6,1.8-0.7,2.6
			c-0.7,3.4-0.9,6.9-1,10.4c-0.2,7.7,0.4,15.3,1,23C194.4,288.8,194.6,290.1,194.7,291.5z"/>
	</g>
	<path class="st5" d="M153.7,132.7c-3.1,1,0.9,3.9,3.3,4.5c1.7,0.5,3.6,0.5,5.4,0.5c3.7,0,7.7-0.8,11.3,0c3.7,0.9,7.5,1.5,11.4,1.8
		c7.9,0.6,14.8-1.5,20.9-6.4c2.1-1.7,4.1-2.3,6.7-1.5c0.7,0.2,1.5,0.3,2.3,0.4c0.8,0.1,1.7,0.3,2.1-0.6c0.4-0.9-0.4-1.5-1.1-1.8
		c-2.4-1.1-4.3-2.7-5.5-5.1c-0.6-1.3-2-1.9-3.4-2.2c-2.2-0.6-2.9-2.1-2.2-4.1c1.3-4,3-7.6,6-10.7c7.5-7.7,15.4-15,22-23.5
		c4.2-5.5,7.5-11.5,9.8-18.1c1.9-5.3,1.6-10.7,1.7-16.1c0-0.7-0.2-1.4-0.9-1.7c-0.8-0.3-1.3,0.3-1.7,0.8c-1,1.1-1.9,2.3-2.8,3.5
		c-0.8,1.4-1.6,2.8-2.5,4.2c-10.2,17.8-24.6,32.3-38.4,47.3c-0.9,1-1.8,2-2.7,3c-1.8,2.1-3.6,4.2-5.3,6.3c-0.8,1.2-1.5,2.4-2.1,3.6
		c-0.9,1.7-1.9,2.1-3.5,1.5c-6.8-2.8-14.1-4.5-20.3-8.9c-2.7-2-6-2.7-9.5-2.8c-11.2-0.1-22.3-0.9-33.3-3.5
		c-4.7-1.1-9.3-2.5-13.8-4.4c-0.8-0.3-1.9-1.3-2.5-0.2c-0.5,1,0.9,1.5,1.6,2c2.9,2,6.2,2.9,9.4,4.2c10.5,4.2,21.1,8.4,31.7,12.5
		c2.4,0.9,4.8,1.8,7.4,2c2.9,0.3,5.3,2.2,8.1,3.1c2.4,0.7,4.5,2.1,7,2.7c0.9,0.2,1.9,0.8,0.6,1.6c-2.7,1.8-5.3,4.5-8.5,5.2
		c-2.4,0.6-5,0.1-7.5,0.4C154.3,132.5,154,132.6,153.7,132.7z"/>
	<path class="st5" d="M339.4,265.4c2.1-0.3,0.6,2.6-0.6,3.6c-0.9,0.8-2,1.3-3,1.8c-2.2,1.1-4.8,1.7-6.7,3.2c-1.9,1.6-4,3-6.2,4.3
		c-4.5,2.6-9.2,3.4-14.2,2.2c-1.7-0.4-3.1-0.2-4.3,1c-0.4,0.3-0.8,0.6-1.2,0.9c-0.4,0.3-0.9,0.6-1.4,0.2c-0.5-0.4-0.2-1,0.1-1.4
		c1.1-1.4,1.8-2.8,1.8-4.6c0-0.9,0.6-1.7,1.3-2.3c1.1-1,1.1-2.1,0.1-3.1c-1.9-2-3.9-3.6-6.6-4.6c-6.6-2.4-13.4-4.5-19.7-7.6
		c-4.1-2-7.7-4.7-10.9-7.9c-2.6-2.6-4-5.9-5.6-9c-0.2-0.4-0.3-0.9,0.1-1.3c0.4-0.4,0.9-0.2,1.3,0c0.9,0.4,1.8,0.8,2.7,1.3
		c0.9,0.6,1.8,1.2,2.7,1.8c11.1,7.6,23.8,12,36.2,16.9c0.8,0.3,1.6,0.7,2.5,1c1.7,0.7,3.3,1.4,5,2.2c0.8,0.5,1.5,1,2.3,1.5
		c1,0.8,1.7,0.7,2.5-0.1c3.2-3.6,7.1-6.7,9.4-11c1.1-1.9,2.8-3.3,4.8-4.4c6.6-3.3,12.9-6.9,18.6-11.6c2.5-2,4.8-4.1,6.9-6.5
		c0.4-0.4,0.8-1.3,1.4-0.8c0.6,0.5-0.1,1.1-0.4,1.6c-1.1,2-2.8,3.5-4.3,5.2c-5,5.5-10,11-15.1,16.4c-1.1,1.2-2.3,2.4-3.8,3.3
		c-1.6,1-2.5,2.9-3.9,4.2c-1.2,1.1-2.1,2.5-3.3,3.6c-0.5,0.4-0.9,1,0.1,1.2c2.1,0.3,4.4,1.2,6.5,0.7c1.6-0.4,3-1.4,4.5-1.9
		C339,265.5,339.2,265.4,339.4,265.4z"/>
</g>
</svg>
