<?xml version="1.0" encoding="utf-8"?>
<!-- Generator: Adobe Illustrator 16.0.0, SVG Export Plug-In . SVG Version: 6.00 Build 0)  -->
<!DOCTYPE svg PUBLIC "-//W3C//DTD SVG 1.1//EN" "http://www.w3.org/Graphics/SVG/1.1/DTD/svg11.dtd">
<svg version="1.1" id="Calque_1" xmlns="http://www.w3.org/2000/svg" xmlns:xlink="http://www.w3.org/1999/xlink" x="0px" y="0px"
	 width="432px" height="432px" viewBox="0 0 432 432" enable-background="new 0 0 432 432" xml:space="preserve">
<g>
	<g>
		<g>
			<path d="M177.937,112.574c-1.474,0.582-7.021,2.996-9.259,2.281c0-0.805-0.98-11.046,3.848-42.935
				c0.224-2.236-4.384-4.338-5.5,1.521c-0.85,4.472-5.859,39.268-1.609,43.024c1.163,1.029,6.93,0.984,13.148-2.236
				C179.459,113.156,179.234,112.082,177.937,112.574z"/>
			<path d="M186.609,79.121c-0.357-3.801-3.264-2.729-3.979,0.045C181.915,82.072,185.805,83.996,186.609,79.121z"/>
			<path d="M237.813,90.391c-4.785,12.209-10.374,19.589-13.773,19.142c-3.177-0.402-2.64-7.692-2.64-14.401
				c6.085-1.699,9.615-13.596,3.356-13.685c-4.613-0.053-7.617,4.447-8.846,9.961c-4.385,3.891-12.186,4.608-14.813,3.697h-0.042
				c0.313-3.242,0.67-6.088,1.161-8.357c12.075-9.006,9.528-17.076,7.29-18.229c-2.057-1.045-5.5,0.324-8.052,5.008
				c-2.559,4.739-4.615,12.181-5.533,20.195c-4.376,10.223-8.476,15.224-11.727,16.036c-1.117,0.269,0.404-13.864,2.104-23.435
				c0.267-2.684-4.475-2.415-5.322-0.761c-0.047,0.134-5.367,25.672,2.904,25.672c3.436,0,7.54-4.182,11.655-13.029
				c-0.214,3.729-0.178,7.493,0.195,11.095c0.627,6.087,2.685,11.096,8.366,11.636c7.869,0.72,7.647-14.049-1.971-24.28
				c4.225,0.713,9.686-0.791,13.434-3.391c-1.199,8.196,1.329,17.692,8.119,17.97c4.205,0.179,10.602-7.201,15.476-20.439
				C239.781,89.094,238.037,89.81,237.813,90.391z M226.364,83.682c0.626,1.118-1.16,8.632-4.921,9.929
				C221.623,89.362,225.246,81.76,226.364,83.682z M207.94,70.319c1.97-2.449,4.966,6.953-5.991,15.166
				C202.575,81.487,205.438,73.453,207.94,70.319z M202.844,117.151c-1.968-5.116-3.175-11.996-2.147-19.813
				C213.664,111.855,206.107,125.292,202.844,117.151z"/>
			<path d="M254.313,79.121c-0.359-3.801-3.266-2.729-3.98,0.045C249.617,82.072,253.506,83.996,254.313,79.121z"/>
			<path d="M287.988,87.79c-2.147,1.098-8.766,5.416-14.984,10.576c-0.535-1.793-1.205-3.513-1.786-5.05
				c-2.059-5.087-4.34-10.905-2.596-14.382c2.906-5.124,5.815-2.013,2.372,1.208c-0.628,0.915,0.49,2.123,1.565,1.024
				c5.813-5.818-2.193-9.917-6.308-4.684c-3.456,4.066-3.1,11.651-2.223,16.296c-4.53,10.873-8.779,16.143-12.132,16.98
				c-1.116,0.269,0.403-13.864,2.104-23.435c0.267-2.684-4.474-2.415-5.323-0.761c-0.044,0.134-5.366,25.672,2.907,25.672
				c3.806,0,8.439-5.151,12.995-16.091c0.689,2.44,1.916,5.283,2.924,8.128c-3.801,3.77-6.709,7.539-6.976,10.467
				c-0.581,6.001,7.87,6.295,12.252,0.512c2.685-3.55,2.103-9.149,0.672-14.346c5.233-4.501,11.719-8.929,15.118-10.759
				C289.732,88.302,288.435,87.57,287.988,87.79z M269.203,112.858c-1.387,6.954-7.781,4.611-7.021,0.842
				c0.492-2.416,2.773-5.563,5.903-8.784C269.025,107.771,269.607,110.553,269.203,112.858z"/>
		</g>
		<g>
			<path d="M206.971,124.533c-0.691-0.188-1.318-0.188-1.885-0.251c-1.259-0.063-4.594,0-3.65,1.069
				c0.252,0.314,0.628,0.566,0.819,0.629c0.251,0.125,0.502,0.314,0.817,0.377c-0.315,0.88-0.503,1.824-0.817,2.642
				c-0.128,0.565-0.315,1.006-0.442,1.635c-0.377,2.453-0.942,4.654-1.508,6.918c-0.44,2.012-0.881,3.837-1.385,5.598
				c-0.566,2.013-0.945,4.025-1.383,5.976c-0.188,0.629-0.252,1.257-0.63,1.823c-0.377-0.502-0.314-1.006-0.377-1.509l-2.642-13.333
				l-0.253-1.321c-0.817-2.138-1.509-1.635-3.585-1.635c-0.691,0-0.816,1.887-1.006,2.768c-0.062,0.314-0.314,0.943-0.502,1.258
				l-2.329,8.24c-0.817,2.138-1.634,4.276-2.389,6.478c-0.063,0.189-0.188,0.314-0.379,0.629c-0.188-0.692-0.314-1.321-0.314-1.825
				c0-2.076-0.251-3.899-0.375-5.975c-0.189-1.573-0.253-3.083-0.378-4.78c-0.189-1.95-0.315-4.025-0.566-6.038
				c-0.062-1.069-0.253-2.201-0.504-3.27c-0.123-1.258-0.251-2.391-0.438-3.774c0.124-0.126,0.315-0.503,0.379-0.817
				c0.251-0.315,0.06-0.881-0.315-0.881c-0.314-0.126-0.629-0.126-0.883-0.251l-4.026-0.188l-0.753-0.189
				c-0.377,0-0.566,0.126-0.691,0.503c-0.127,0.378,0.125,0.692,0.377,0.881c0.251,0.251,0.565,0.251,0.944,0.44
				c0.63,0.188,0.753,0.377,0.753,0.88c0,1.509,0.818,9.246,1.006,11.635c0.189,3.271,0.315,6.73,0.566,10.001
				c0.127,1.824,0.314,3.648,0.629,5.346c0.252,2.139,0.693,4.34,1.195,6.541c0.189,1.636,1.135,2.327,2.266,2.768
				c0.251,0.188,0.564,0,0.756-0.314c0.06-0.252,0.187-0.441,0.25-0.692c0.252-1.321,0.754-2.642,1.258-3.962
				c0.693-1.447,1.195-2.957,1.634-4.718c0.379-1.195,0.693-2.453,1.197-3.585c0.63-1.636,1.257-3.208,1.634-5.032
				c0.128-0.692,0.314-1.509,0.504-2.138l0.566-3.271c0-0.063,0.125-0.189,0.188-0.252c0.127,0.063,0.191,0.126,0.191,0.189
				c1.508,5.975,2.073,9.12,2.452,11.195c0.502,2.831,1.132,6.353,2.074,9.057c0.378,1.321,1.195,2.265,1.572,2.705
				c0.378,0.504,0.944,0.189,1.132-0.44c0.25-0.692,0.378-1.195,0.506-1.698c0.689-2.012,1.318-4.717,1.572-6.918
				c0.062-0.251,0.062-0.566,0.187-0.817c0.442-1.573,0.817-3.019,1.07-4.466c0.125-0.943,0.376-2.013,0.691-2.83
				c0.313-1.258,0.755-2.642,1.069-3.9c0.124-0.566,0.124-0.943,0.188-1.257c0.251-1.447,0.504-2.768,0.756-3.9
				c0.378-1.447,1.259-7.421,1.948-9.812c0-0.063,0.944-0.126,1.571-0.503C207.913,125.728,208.229,124.911,206.971,124.533z"/>
			<path d="M230.492,125.036c-0.817-0.188-1.637-0.188-2.328-0.188s-1.32,0.188-1.887,0.251c-0.189,0.063-0.251,0.44-0.127,0.503
				c0.506,0.503,1.008,0.88,1.574,1.258v1.51c-0.064,1.321-0.064,2.767-0.188,4.088c-0.064,1.321-0.442,4.529-0.566,5.913
				c-0.127,0.755-0.379,1.006-1.322,1.132h-0.313c-2.831,0.063-3.21,0.125-5.978,0.377h-0.502c-0.881,0-1.822,0.063-2.642,0.063
				c-0.314,0-0.565-0.125-0.691-0.063c-0.126-0.188-0.126-0.252-0.126-0.315c0.126-1.509,0.315-4.842,0.252-6.226
				c-0.064-0.692,0-1.195,0-1.887c0-1.258,0.376-2.705,0.251-4.088c0.376,0,1.069-0.189,1.448-0.252
				c0.314-0.063,1.383-0.629,1.444-1.006c0.128-0.188-0.126-0.44-0.691-0.629c-0.63-0.188-1.321-0.44-2.013-0.252
				c-0.941,0.378-1.95,0.378-2.956,0.252c-0.315,0-0.693-0.063-1.132-0.063c-0.314,0-0.566,0.063-0.881,0.125
				c-0.504,0.126-1.006,0.441-1.006,0.629c0.063,0.377,0.379,0.503,0.691,0.692c0.629,0.314,0.881,0.755,0.816,1.383
				c0,0.252,0.064,0.441,0,0.692c-0.123,2.013-0.188,4.026-0.376,6.101c-0.44,5.158-0.691,8.366-0.63,9.749
				c0.127,2.957-0.314,5.85-0.188,8.806c0.064,1.51,0.126,3.145,0.064,4.78c0,1.07,0.062,2.327,0.565,3.396
				c0.062,0.189,0,0.378,0,0.629c-0.442,0.188-0.944,0.251-1.323,0.377c-0.377,0.126-0.691,0.378-0.627,0.629
				c0.188,0.377,0.565,0.377,0.818,0.377c1.634,0.063,3.206,0.252,4.905,0.314c0.753,0,1.193-0.503,1.572-1.069
				c-0.504-0.692-1.448-0.44-2.202-1.069c0.064-0.314,0.064-0.629,0.252-1.006c0.25-0.944,0.378-2.076,0.25-3.145l0.064-4.655
				c0.063-1.195,0.063-2.327,0.063-3.585l0.188-3.585c0-1.132,0.189-2.201,0.251-3.271c0.127-0.881-0.123,0.063,0-0.692
				c0-0.126,0.063-0.189,0.127-0.252c0-0.063,0.126-0.063,0.188-0.063c1.699-0.189,3.336-0.251,5.095-0.377h4.278
				c0.378,0,0.691,0.063,1.131,0.063c0.254,0.063,0.377,0.251,0.44,0.502c0,0.126,0,0.378,0.063,0.566
				c-0.188,1.573-0.063,1.195-0.127,2.705c-0.062,0.754-0.123,1.383-0.123,2.075l-0.191,6.416c0.063,2.767-0.251,5.283,0.378,7.988
				c0,0.063-0.063,0.189-0.125,0.314c-0.126,0.063-0.253,0.063-0.377,0.063c-0.253,0.126-0.567,0.252-0.504,0.566
				c0.063,0.251,0.315,0.377,0.504,0.44c0.062,0.063,0.188,0.063,0.251,0.126c1.383,0.314,2.768,0.188,4.15,0.125
				c0.504-0.063,1.006-0.252,1.572-0.377c0.191-0.063,0.251-0.251,0.379-0.314c0.063-0.188,0.063-0.566-0.064-0.566
				c-0.314,0-0.502-0.125-0.753-0.188c-0.63-0.063-1.195-0.063-1.823-0.063c0-0.503,0.124-0.88,0.061-1.321
				c0-3.145,0.378-6.101,0.252-9.246c0-0.503,0.063-1.069,0.126-1.761c0.126-1.887,0.315-3.774,0.504-5.723
				c0.062-0.818-0.188,0.314-0.063-0.503c0.251-1.761,0.565-3.459,0.565-5.158c0-0.565,0.251-3.082,0.315-3.647
				c0.127-1.95,0.378-4.026,0.251-6.038c0-0.44-0.063-1.006,0.251-1.384l1.385-0.503c0.188-0.063,0.251-0.314,0.502-0.502
				c-0.314-0.252-0.502-0.504-0.753-0.629C232.251,125.226,231.37,125.036,230.492,125.036z"/>
			<path d="M256.652,160.196l-0.753,0.063c0.063-0.377,0.063-0.629,0.063-0.944l0.311-2.579c0-0.692,0.064-1.509,0.064-2.264
				c-0.064-0.944,0.063-1.887-0.064-2.894c-0.188-1.132,0.064-2.39-0.123-3.522c0.251-1.887,0-3.711-0.064-5.661l-0.378-7.233
				c0-2.957-1.005-5.661-2.262-8.177c-0.314-0.755-0.883-1.384-1.385-1.887c-0.565-0.817-1.446-1.069-2.389-0.943
				c-1.323,0.126-2.644,0.441-3.712,1.51c-1.572,1.509-2.957,3.082-3.773,5.157c-1.132,2.516-2.015,5.221-2.58,7.988
				c-0.252,1.258-0.438,2.705-0.689,3.9c-0.504,3.019-0.945,6.101-1.321,9.12c-0.128,1.132-0.251,2.138-0.251,3.145
				c0,1.824,0,3.459,0.06,5.158c-0.06,0.251-0.06,0.565-0.124,0.88c-0.25,0.063-0.441,0.126-0.565,0.188
				c-0.442,0.188-0.944,0.377-1.385,0.692c-0.187,0.125-0.251,0.503,0,0.692c0.126,0.188,0.315,0.314,0.505,0.44
				c0.753,0.377,1.51,0.377,2.263,0.441c0.565,0.063,1.257,0,1.887,0.188c0.566,0.252,1.887-0.188,1.95-0.88
				c0.064-0.503-0.063-0.817-0.565-0.943c-1.197-0.377-0.442-1.006-0.253-3.208c0-0.881,0-1.761,0.063-2.642
				c0.063-0.755,0.19-1.384,0.19-2.201c0.06-1.384,0.251-2.579,0.375-3.9c0.314-1.321,0.506-2.516,0.757-3.899
				c0.062-0.755,0.188-1.447,0.628-2.264c0.378-0.126,0.816-0.189,1.259-0.251c1.76-0.126,3.584-0.063,5.284-0.629h0.376
				c0.315-0.063,0.691,0.188,0.691,0.503c0.063,0.692,0.063,1.446,0.126,2.076c0,1.258,0.063,2.642,0.063,3.836
				c0.064,1.761,0.124,3.459,0.064,5.094c0.123,2.327-0.191,4.717,0.565,7.044c-0.379,0.126-0.693,0.315-0.881,0.503
				c-0.378,0.252-0.314,0.755,0,0.88c0.438,0.251,0.944,0.503,1.446,0.503l4.089-1.321c0.124,0,0.314-0.063,0.502-0.125
				c0.502-0.063,0.755-0.504,0.755-1.006C257.346,160.447,257.095,160.196,256.652,160.196z M250.615,140.383
				c-1.258,0.314-2.391,0.377-3.459,0.565c-1.132,0.189-2.266,0.378-3.333,0.629c-0.063-0.063-0.251-0.125-0.251-0.314
				c-0.128-1.509-0.064-3.082,0.314-4.591c0.188-0.818,0.311-1.573,0.438-2.391c0.188-0.88,0.188-1.824,0.378-2.578
				c0.124-1.069,0.691-2.202,1.258-3.019c0.438-0.692,1.068-1.384,1.636-1.95c0.314-0.314,0.881-0.189,1.067,0.252
				c0.817,2.076,1.637,4.277,1.7,6.541c0.126,1.824,0.251,3.774,0.314,5.598C250.679,139.565,250.615,139.943,250.615,140.383z"/>
			<path d="M277.346,125.477l-0.506-0.188c-0.377-0.063-0.754-0.189-1.132-0.189c-0.313,0-0.691-0.063-1.07-0.063
				c-1.634,0.063-3.27,0.189-4.905,0.315c-0.123,0-0.314,0.063-0.377,0.063c-1.006,0.125-2.076,0.125-3.018,0.251
				c-0.566,0.125-1.132,0.125-1.637,0.315c-1.32,0.251-2.578,0.439-3.711,0.628c-0.566,0.063-1.068,0.189-1.57,0.377
				c-0.314,0.125-0.568,0.503-0.693,0.88c0.125,0.692,0,1.51,0.125,2.202c0,0.251,0.254,0.377,0.44,0.44
				c0.566,0.126,1.009-0.126,1.009-0.629c0.06-0.503,0.123-1.069,0.374-1.509c0.693-0.315,1.513-0.377,2.329-0.377
				c0.63,0,1.383-0.126,2.139,0.063c0.063,0.188,0.063,0.44,0.063,0.692c-0.063,1.258-0.251,2.642-0.191,3.836
				c0,1.321-0.251,2.58,0,3.837c0,0.125,0,0.315-0.06,0.503c0,0.692-0.064,1.447-0.064,2.202v1.258
				c-0.063,1.321-0.127,2.705-0.189,4.151c-0.062,1.195-0.314,2.327-0.314,3.522c-0.125,1.006-0.189,2.013-0.125,2.956
				c0,1.133,0.125,2.264,0.125,3.333c0.063,0.755,0.063,1.447,0.063,2.202c-0.063,0.881-0.063,1.824,0,2.705
				c0.19,0.44,0.127,0.881,0.127,1.321c0,0.315-0.251,0.503-0.566,0.566c-0.252,0-0.504,0.188-0.691,0.251
				c-0.188,0.063-0.565,0.063-0.816,0.126c-0.379,0.126-0.506,0.44-0.314,0.755c0.314,0.44,0.753,0.692,1.193,0.754
				c0.881,0.126,1.697,0.252,2.454,0.189c0.815,0,1.696-0.063,2.515,0.125c0.817,0.126,1.447-0.125,1.825-0.692
				c0.188-0.189,0.251-0.377,0.251-0.566c-0.063-0.251-0.314-0.377-0.565-0.44c-0.379,0-0.63,0.063-0.944,0.063
				c-0.377,0-0.504-0.189-0.566-0.44c0.189-1.258,0.314-2.453,0.126-3.711c0-0.125,0.063-0.251,0.063-0.44
				c0.062-0.692,0.062-1.384,0.062-2.013c0.063-0.692-0.062-1.321,0.063-1.887c0.126-1.258,0.126-2.39,0.315-3.585l0.251-3.459
				l0.188-3.208c0.063-0.188,0.063-0.44,0.063-0.692c0-0.566,0-1.132,0.128-1.635c0.06-1.258,0.188-2.453,0.314-3.711
				c0.188-2.201,0.313-4.403,0.251-6.667c-0.128-0.754-0.063-1.698-0.442-2.39v-0.314c0.128-0.063,0.191-0.188,0.251-0.188
				c1.448-0.189,2.959-0.314,4.403-0.377c0.251-0.063,0.442,0,0.63,0c0.378,1.132,0.44,1.195,1.385,1.887
				c0.062,0.126,0.123,0.189,0.187,0.189c0.379,0.251,0.758,0.251,1.009-0.063c0.188-0.315,0.376-0.629,0.438-0.881
				c0-0.502,0.063-1.132,0.189-1.761C278.225,125.917,277.909,125.54,277.346,125.477z"/>
		</g>
		<path d="M317.15,182.414c-2.146,1.141-8.766,5.629-14.98,10.991c-0.537-1.864-1.209-3.651-1.79-5.249
			c-2.058-5.286-4.338-11.333-2.594-14.945c2.908-5.325,5.813-2.092,2.369,1.255c-0.626,0.951,0.493,2.206,1.566,1.064
			c5.815-6.046-2.192-10.306-6.308-4.868c-2.783,3.401-3.09,9.171-2.649,13.812c-4.362,12.574-10.831,22.953-13.489,24.041
			c-4.563-0.268,8.677-34.393-0.804-37.792c-5.948-2.146-12.524,17.711-14.401,21.334c-0.133-0.806,2.815-19.858,2.862-20.26
			c0.224-4.07-5.144-4.026-6.084-1.252c-0.368,1.738-0.976,6.39-1.437,11.628c-4.558,10.811-9.65,17.234-12.827,16.816
			c-3.173-0.403-2.639-7.693-2.639-14.402c6.084-1.699,9.618-13.596,3.354-13.686c-5.51-0.063-8.732,6.361-9.366,13.259
			c-1.464,1.031-3.177,1.813-5.346,2.215c3.309-8.987-2.327-19.083-10.78-14.528v-0.123c-0.537-3.284-4.338-2.75-4.204,0.41
			c0,1.731-0.033,5.38-0.069,9.346c-0.021,0.019-0.043,0.033-0.061,0.052c-2.059,2.339-4.473,4.145-8.229,4.842
			c3.309-8.987-2.325-19.083-10.778-14.528v-0.123c-0.537-3.284-4.338-2.75-4.204,0.41c0,1.478-0.025,4.353-0.055,7.628
			c-0.102,0.111-0.202,0.234-0.299,0.396c-3.846,6.216-9.212,23.614-13.594,26.252c-4.116,2.46,3.308-26.074,4.157-30.009
			c0-2.773-3.667-5.725-5.411-2.058c-10.806-4.29-16.883,6.614-16.033,14.956c-4.119,11.441-8.56,19.957-10.618,17.149
			c-1.653-2.252,9.618-28.324-1.207-28.324c-3.042,0-8.14,8.227-9.48,10.642l2.19-13.875c9.706-8.76,15.877-26.195,8.364-26.36
			c-2.729-0.041-5.904,1.965-8.946,8.146c-5.947,12.115-7.021,31.148-8.766,44.124c0.313,3.028,5.367,1.513,5.636-0.205l1.209-7.613
			c0.848-2.169,8.495-15.267,10.062-12.935c1.476,2.17-5.904,20.957-1.433,26.483c4.797,5.914,9.773-4.128,13.613-14.336
			c0.733,2.13,2.045,3.88,4.005,4.825c2.148,1.028,7.781-10.823,10.688-17.577c-3.13,7.872-5.231,27.058,0.448,29.294
			c4.878,1.929,11.387-16.533,15.377-25.14c-0.045,4.524-0.087,9.092-0.087,11.437c-4.65,5.54-9.929,23.269-2.639,24.172
			c10.152,1.231,8.767-38.946,7.246-46.168c8.05-2.585,8.54,10.999,6.976,13.46l-0.313,0.493c-5.322-0.206-6.261,4.268-3.71,5.581
			c3.443,0.985,5.634-1.395,7.109-5.006c3.746-0.573,6.577-2.151,8.764-4.217c-0.047,4.604-0.091,9.298-0.091,11.686
			c-4.65,5.54-9.929,23.269-2.638,24.172c10.152,1.231,8.764-38.946,7.244-46.168c8.051-2.585,8.541,10.999,6.975,13.46
			l-0.311,0.493c-5.322-0.206-6.261,4.268-3.712,5.581c3.443,0.985,5.634-1.395,7.109-5.006c2.219-0.339,4.111-1.032,5.747-1.965
			c-0.291,7.389,2.381,14.842,8.386,15.088c3.481,0.148,8.47-4.907,12.853-14.172c-0.197,2.99-0.314,5.968-0.288,8.537
			c0.044,1.655,3.309,5.188,5.099,2.191c7.335-19.321,11.584-24.464,12.479-24.911c2.011-1.029,2.234,2.146,1.966,3.533
			c-2.146,10.376-9.169,34.616,0.357,34.616c4.025,0,10.375-11.996,14.49-22.925c0.114,0.62,0.23,1.196,0.354,1.701
			c0.626,2.7,2.015,5.972,3.131,9.242c-3.801,3.917-6.709,7.834-6.978,10.877c-0.581,6.237,7.871,6.542,12.255,0.532
			c2.683-3.689,2.102-9.507,0.669-14.908c5.233-4.678,11.719-9.28,15.117-11.181C318.895,182.946,317.599,182.186,317.15,182.414z
			 M248.912,173.139c0.625,1.118-1.163,8.632-4.919,9.929C244.171,178.819,247.794,171.216,248.912,173.139z M152.411,150.335
			c3.175,0.287,1.163,12.074-8.362,22.184C144.764,159.503,149.997,150.294,152.411,150.335z M167.612,192.013
			c0.494-4.563,5.28-18.83,10.332-15.922C176.065,180.697,166.494,202.075,167.612,192.013z M191.401,217.771
			c-3.175,0.082-1.968-13.83,2.906-21.094C195.022,207.224,194.13,217.935,191.401,217.771z M202.002,191.382
			c-1.118-1.271-0.719-3.118,2.995-3.488C204.236,189.167,203.207,190.809,202.002,191.382z M214.742,217.771
			c-3.175,0.082-1.966-13.83,2.908-21.094C218.365,207.224,217.471,217.935,214.742,217.771z M225.343,191.382
			c-1.118-1.271-0.716-3.118,2.995-3.488C227.579,189.167,226.55,190.809,225.343,191.382z M298.367,208.465
			c-1.387,7.226-7.781,4.792-7.02,0.875c0.49-2.51,2.771-5.781,5.901-9.127C298.189,203.179,298.771,206.069,298.367,208.465z"/>
		<g>
			<path d="M160.586,248.425c0.064-0.943-0.06-1.761-0.188-2.579c-0.187-1.132-0.565-2.202-0.816-3.333
				c-0.125-0.377-0.251-0.692-0.44-1.069c-1.008-2.013-2.452-3.334-4.214-4.026c-0.691-0.251-1.385-0.44-2.076-0.755
				c0.189-0.126,0.253-0.314,0.44-0.314c0.944-0.44,1.761-1.007,2.64-1.698c0.883-0.503,1.449-1.509,1.827-2.516
				c0.188-0.566,0.251-1.069,0.188-1.573c-0.128-0.44-0.128-0.943-0.128-1.321c-0.187-1.194-0.438-2.327-1.067-3.145
				c-0.819-0.943-2.264-3.082-6.099-3.145c-2.517-0.063-7.926,0.629-10.066,1.572c-0.314,0.252-0.565,0.377-0.879,0.566
				c-0.314,0.251-0.25,0.943,0.063,1.069c0.502,0.251,0.816,0.063,1.318,0.063c0.507-0.063,1.135-0.063,1.764-0.189
				c0.126,0.377,0.126,0.566,0.126,0.755c-0.126,1.321-0.126,2.642-0.251,3.963c-0.254,3.711-0.315,7.358-0.504,11.006
				c-0.126,1.572-0.126,3.208-0.126,4.843c-0.063,3.396-0.188,6.73-0.188,10.126c0.062,0.629,0,1.195-0.063,1.824
				c-0.064,0.943-0.251,1.069-0.881,1.132l-1.572,0.188c-0.502,0.063-0.693,0.44-0.502,0.88c0.375,0.88,0.94,1.195,1.634,1.195
				c1.321-0.063,2.578,0.188,3.773,0.565c0.44,0.126,0.817,0.252,1.194,0.189c0.314,0,0.565,0,0.82,0.063
				c1.76,0.251,3.395,0.126,5.029-0.315c0.504-0.188,1.069-0.314,1.571-0.565c0.821-0.44,1.574-1.07,2.453-1.572
				c0.693-0.315,1.323-0.944,1.763-1.636c0.438-0.629,0.945-1.195,1.447-1.824c0.691-0.943,1.444-2.013,1.572-3.333l0.187-0.629
				c0.315-1.321,0.442-2.642,0.251-3.962C160.586,248.676,160.526,248.551,160.586,248.425z M146.372,225.216
				c2.078-0.565,3.901-0.692,5.788,0.189c0.502,0.377,0.817,0.755,0.881,1.384c0.063,0.817,0.123,1.572,0.063,2.453
				c-0.127,1.51-0.63,2.831-1.385,4.151c-0.944,1.698-2.265,2.579-2.768,2.831c-0.693,0.251-1.383,0.44-2.075,0.692
				c-0.377,0.063-0.564-0.063-0.564-0.503c0-1.51,0-2.956-0.063-4.402c0.063-1.573,0.187-3.271,0.187-4.843
				C146.5,226.6,146.372,225.971,146.372,225.216z M154.677,253.646l-0.379,0.817c-0.504,1.006-1.134,2.076-1.636,3.019
				c-0.251,0.44-0.627,0.692-0.942,1.069c-0.88,0.503-1.761,0.943-2.704,1.258c-0.565,0.063-1.259,0.188-1.887,0.314
				c-0.565,0.126-1.071,0.189-1.699-0.125c0-0.125-0.125-0.377-0.125-0.566c-0.064-0.44-0.064-0.817-0.064-1.257l0.379-7.17
				c0-1.006,0.063-1.95,0.123-2.957v-1.32c0.128-2.201,0.191-4.403,0.315-6.541c0-0.503,0-0.943,0.128-1.573
				c1.131,0.44,2.137,0.126,3.082-0.188c0.376-0.126,0.755-0.126,1.006-0.126c1.068,0.063,2.013,0.377,2.955,0.754
				c0.506,0,0.757,0.378,1.008,0.881c0.566,1.446,1.13,2.83,1.321,4.402C155.996,247.482,155.494,250.626,154.677,253.646z"/>
			<path d="M181.905,224.587c-0.563-0.063-1.067-0.188-1.572-0.314c-0.438-0.063-0.753-0.125-1.193-0.125l-7.61-0.125
				c-0.943-0.126-1.888-0.063-2.768,0.063c-0.505,0.126-0.943,0.126-1.447,0.188c-0.816,0.126-1.574,0.314-2.391,0.441
				c-0.313,0.188-0.566,0.44-0.628,0.754c-0.063,0.629,0,1.258,0.251,1.824c0.126,0.378,0.377,0.441,0.691,0.441
				c0.315,0,0.566-0.063,0.693-0.504c0.064-0.188,0.124-0.44,0.252-0.691c0.063-0.188,0.376-0.314,0.629-0.188
				c0.126,0.063,0.313,0.251,0.313,0.377c0,0.503-0.125,1.132-0.125,1.699c0.125,1.194-0.062,2.39-0.188,3.647
				c-0.189,2.768-0.314,5.535-0.442,8.428c-0.062,1.636-0.062,3.208-0.187,4.843c-0.315,4.277-0.503,8.491-0.252,12.642v1.069
				c0,0.314,0.377,0.629,0.124,1.069c-0.375,0.189-0.753,0.126-1.193,0.063h-1.319c-0.127,0-0.314,0.126-0.314,0.251
				c-0.064,0.251,0,0.566,0.123,0.754c0.251,0.126,0.442,0.252,0.693,0.314c1.321,0.504,2.768,0.755,4.148,0.755
				c1.448,0.063,2.959-0.126,4.467-0.189c0.817-0.063,1.636-0.063,2.517-0.188c0.442,0,0.881,0,1.321,0.063
				c1.383,0.188,2.831,0.125,4.214,0c0.314-0.063,0.565-0.126,0.755-0.377c0.377-0.378,0.63-1.006,0.754-1.573l0.19-2.013
				c0.06-0.566-0.127-0.881-0.567-1.195c-0.189-0.063-0.377-0.188-0.566-0.251c-0.314-0.189-0.693-0.063-0.816,0.314l-0.379,1.384
				c-0.123,0.44-0.379,0.692-0.753,0.754c-0.379,0.063-0.755,0.188-1.134,0.188l-2.138,0.189c-1.068,0-2.266,0.063-3.397,0.063
				c-0.565,0-1.067-0.125-1.636-0.188c-0.314-1.321-0.502-2.516-0.438-3.837c0-0.755,0.124-1.635,0.064-2.453
				c-0.064-2.831,0.251-5.661,0.502-8.428c0.063-0.315,0.125-0.692,0.44-0.881c0.565,0,1.195,0.189,1.825,0.252
				c0.689,0.125,1.318,0.125,1.887,0.125c0.123,0.251,0.188,0.251,0.188,0.377c0.187,1.195,0.88,1.699,1.697,2.201
				c0.504,0.44,1.006,0,1.006-0.691c0-0.252,0-0.566-0.063-0.818c0-0.88-0.06-1.698-0.188-2.516
				c-0.063-0.377-0.251-0.817-0.378-1.258c-0.188-0.503-0.503-0.691-1.007-0.88c-0.628-0.251-1.004,0.063-1.195,0.817v0.252
				c-0.124,0.251-0.251,0.503-0.375,0.566c-1.008,0.188-1.95,0.314-2.958,0.188c-0.377-0.063-0.564-0.252-0.564-0.817v-0.504
				c0.126-2.327,0.251-4.591,0.377-6.73c0.063-2.704,0.125-5.409-0.314-8.176c0,0,0-0.063,0.063-0.126
				c0.251-0.314,0.691-0.125,1.067-0.063l6.605,0.126c0.063,0,0.063,0.063,0.125,0.063c0.189,0.377,0.126,0.817,0,1.195
				c-0.314,1.006-0.125,1.824,0.628,2.516c0.191,0.125,0.314,0.44,0.442,0.566c0.753,0.881,1.444,0.881,1.76,0.063
				c0.063-0.126,0.063-0.252,0.127-0.441c0.123-1.069,0.251-2.201,0.438-3.333c0-0.188,0.063-0.377,0.063-0.692
				C182.786,225.216,182.471,224.776,181.905,224.587z"/>
			<path d="M205.238,224.21l-0.504-0.188c-0.379-0.063-0.753-0.189-1.132-0.189c-0.314,0-0.691-0.063-1.069-0.063
				c-1.634,0.063-3.27,0.189-4.905,0.314c-0.126,0-0.315,0.063-0.379,0.063c-1.004,0.125-2.074,0.125-3.019,0.251
				c-0.566,0.125-1.13,0.125-1.636,0.315c-1.319,0.251-2.576,0.44-3.71,0.628c-0.565,0.063-1.068,0.189-1.57,0.378
				c-0.314,0.125-0.567,0.503-0.693,0.88c0.126,0.692,0,1.51,0.126,2.202c0,0.251,0.253,0.377,0.44,0.44
				c0.565,0.126,1.006-0.125,1.006-0.629c0.062-0.503,0.126-1.069,0.377-1.509c0.691-0.314,1.512-0.377,2.329-0.377
				c0.628,0,1.381-0.126,2.138,0.063c0.063,0.188,0.063,0.44,0.063,0.692c-0.063,1.258-0.253,2.642-0.19,3.836
				c0,1.321-0.252,2.579,0,3.837c0,0.125,0,0.314-0.063,0.503c0,0.692-0.062,1.447-0.062,2.202v1.258
				c-0.063,1.32-0.128,2.704-0.191,4.15c-0.06,1.196-0.314,2.327-0.314,3.523c-0.124,1.006-0.188,2.012-0.124,2.956
				c0,1.132,0.124,2.264,0.124,3.333c0.063,0.755,0.063,1.447,0.063,2.202c-0.063,0.88-0.063,1.823,0,2.704
				c0.191,0.44,0.127,0.881,0.127,1.321c0,0.315-0.251,0.503-0.565,0.566c-0.253,0-0.504,0.188-0.693,0.251
				c-0.188,0.063-0.565,0.063-0.817,0.126c-0.376,0.126-0.504,0.44-0.313,0.755c0.313,0.44,0.754,0.692,1.193,0.754
				c0.881,0.126,1.698,0.252,2.453,0.189c0.816,0,1.697-0.063,2.517,0.125c0.816,0.126,1.446-0.125,1.823-0.692
				c0.188-0.189,0.25-0.377,0.25-0.566c-0.062-0.251-0.313-0.377-0.563-0.44c-0.378,0-0.63,0.063-0.944,0.063
				c-0.379,0-0.504-0.189-0.565-0.44c0.187-1.258,0.314-2.453,0.125-3.711c0-0.125,0.062-0.251,0.062-0.44
				c0.064-0.692,0.064-1.384,0.064-2.013c0.063-0.692-0.064-1.321,0.063-1.887c0.124-1.258,0.124-2.39,0.315-3.585l0.25-3.459
				l0.188-3.208c0.064-0.188,0.064-0.44,0.064-0.692c0-0.566,0-1.132,0.125-1.635c0.063-1.258,0.189-2.453,0.314-3.711
				c0.189-2.201,0.315-4.403,0.252-6.667c-0.126-0.755-0.063-1.698-0.44-2.39v-0.314c0.127-0.063,0.188-0.188,0.251-0.188
				c1.448-0.189,2.957-0.314,4.403-0.377c0.251-0.063,0.44,0,0.629,0c0.377,1.131,0.44,1.194,1.385,1.886
				c0.06,0.126,0.124,0.189,0.188,0.189c0.379,0.252,0.755,0.252,1.007-0.063c0.188-0.315,0.378-0.629,0.439-0.881
				c0-0.502,0.063-1.131,0.189-1.761C206.119,224.65,205.805,224.272,205.238,224.21z"/>
			<path d="M239.829,223.266c-0.693-0.188-1.321-0.188-1.887-0.251c-1.259-0.063-4.591,0-3.648,1.069
				c0.251,0.314,0.63,0.566,0.817,0.629c0.251,0.125,0.504,0.314,0.818,0.377c-0.314,0.881-0.504,1.824-0.818,2.642
				c-0.124,0.565-0.314,1.006-0.438,1.635c-0.379,2.453-0.944,4.654-1.513,6.918c-0.438,2.013-0.88,3.837-1.383,5.598
				c-0.565,2.013-0.941,4.026-1.385,5.976c-0.187,0.629-0.25,1.258-0.627,1.824c-0.377-0.503-0.314-1.006-0.377-1.509l-2.642-13.334
				l-0.251-1.321c-0.817-2.139-1.511-1.636-3.585-1.636c-0.693,0-0.818,1.888-1.008,2.768c-0.062,0.314-0.314,0.943-0.504,1.258
				l-2.325,8.24c-0.817,2.138-1.636,4.277-2.391,6.479c-0.063,0.188-0.189,0.314-0.377,0.629c-0.189-0.692-0.314-1.321-0.314-1.825
				c0-2.075-0.252-3.899-0.379-5.975c-0.188-1.573-0.251-3.082-0.377-4.78c-0.189-1.949-0.314-4.025-0.565-6.038
				c-0.063-1.069-0.251-2.201-0.502-3.27c-0.128-1.258-0.253-2.391-0.442-3.774c0.127-0.125,0.314-0.503,0.379-0.817
				c0.25-0.314,0.063-0.881-0.315-0.881c-0.314-0.125-0.63-0.125-0.881-0.251l-4.024-0.189l-0.757-0.189
				c-0.375,0-0.564,0.126-0.689,0.503c-0.126,0.377,0.125,0.692,0.376,0.881c0.254,0.251,0.566,0.251,0.943,0.44
				c0.629,0.188,0.755,0.377,0.755,0.881c0,1.509,0.816,9.245,1.008,11.636c0.188,3.271,0.315,6.729,0.565,10
				c0.124,1.823,0.315,3.648,0.628,5.346c0.253,2.138,0.691,4.34,1.195,6.541c0.188,1.636,1.132,2.327,2.266,2.768
				c0.251,0.188,0.565,0,0.753-0.314c0.064-0.252,0.189-0.441,0.252-0.692c0.25-1.321,0.755-2.642,1.259-3.962
				c0.691-1.447,1.193-2.957,1.636-4.718c0.377-1.195,0.691-2.453,1.193-3.584c0.63-1.636,1.26-3.208,1.636-5.032
				c0.126-0.692,0.314-1.509,0.502-2.138l0.566-3.271c0-0.063,0.127-0.189,0.19-0.252c0.124,0.063,0.188,0.126,0.188,0.189
				c1.509,5.976,2.074,9.12,2.453,11.195c0.504,2.831,1.134,6.353,2.078,9.057c0.374,1.321,1.193,2.265,1.57,2.705
				c0.376,0.503,0.941,0.188,1.133-0.44c0.252-0.691,0.377-1.195,0.502-1.698c0.691-2.012,1.321-4.717,1.572-6.918
				c0.064-0.251,0.064-0.566,0.188-0.817c0.442-1.573,0.818-3.019,1.072-4.466c0.125-0.943,0.376-2.013,0.691-2.83
				c0.314-1.258,0.753-2.642,1.067-3.899c0.128-0.565,0.128-0.943,0.189-1.257c0.253-1.447,0.504-2.768,0.755-3.9
				c0.377-1.446,1.258-7.421,1.951-9.812c0-0.063,0.942-0.126,1.572-0.503C240.773,224.461,241.086,223.644,239.829,223.266z"/>
			<path d="M260.708,224.587c-0.565-0.063-1.068-0.188-1.574-0.314c-0.438-0.063-0.753-0.125-1.193-0.125l-7.609-0.125
				c-0.944-0.126-1.889-0.063-2.768,0.063c-0.506,0.126-0.944,0.126-1.448,0.188c-0.816,0.126-1.574,0.314-2.389,0.441
				c-0.314,0.188-0.566,0.44-0.63,0.754c-0.063,0.629,0,1.258,0.251,1.824c0.126,0.378,0.379,0.441,0.691,0.441
				c0.314,0,0.566-0.063,0.693-0.504c0.064-0.188,0.124-0.44,0.251-0.691c0.063-0.188,0.379-0.314,0.63-0.188
				c0.125,0.063,0.314,0.251,0.314,0.377c0,0.503-0.127,1.132-0.127,1.699c0.127,1.194-0.063,2.39-0.188,3.647
				c-0.189,2.768-0.314,5.535-0.442,8.428c-0.06,1.636-0.06,3.208-0.188,4.843c-0.314,4.277-0.502,8.491-0.251,12.642v1.069
				c0,0.314,0.379,0.629,0.124,1.069c-0.375,0.189-0.753,0.126-1.194,0.063h-1.318c-0.128,0-0.314,0.126-0.314,0.251
				c-0.064,0.251,0,0.566,0.123,0.754c0.251,0.126,0.442,0.252,0.693,0.314c1.321,0.504,2.768,0.755,4.15,0.755
				c1.446,0.063,2.957-0.126,4.465-0.189c0.817-0.063,1.636-0.063,2.517-0.188c0.442,0,0.881,0,1.321,0.063
				c1.383,0.188,2.831,0.125,4.214,0c0.314-0.063,0.565-0.126,0.755-0.377c0.377-0.378,0.63-1.006,0.753-1.573l0.191-2.013
				c0.062-0.566-0.128-0.881-0.567-1.195c-0.188-0.063-0.377-0.188-0.566-0.251c-0.314-0.189-0.693-0.063-0.816,0.314l-0.379,1.384
				c-0.123,0.44-0.377,0.692-0.753,0.754c-0.379,0.063-0.755,0.188-1.134,0.188l-2.138,0.189c-1.068,0-2.266,0.063-3.397,0.063
				c-0.565,0-1.068-0.125-1.636-0.188c-0.314-1.321-0.502-2.516-0.438-3.837c0-0.755,0.124-1.635,0.064-2.453
				c-0.064-2.831,0.25-5.661,0.502-8.428c0.063-0.315,0.125-0.692,0.439-0.881c0.566,0,1.196,0.189,1.825,0.252
				c0.689,0.125,1.319,0.125,1.888,0.125c0.123,0.251,0.187,0.251,0.187,0.377c0.188,1.195,0.881,1.699,1.698,2.201
				c0.504,0.44,1.006,0,1.006-0.691c0-0.252,0-0.566-0.063-0.818c0-0.88-0.061-1.698-0.188-2.516
				c-0.063-0.377-0.251-0.817-0.379-1.258c-0.187-0.503-0.502-0.691-1.006-0.88c-0.628-0.251-1.005,0.063-1.195,0.817v0.252
				c-0.124,0.251-0.251,0.503-0.375,0.566c-1.006,0.188-1.95,0.314-2.956,0.188c-0.379-0.063-0.566-0.252-0.566-0.817v-0.504
				c0.125-2.327,0.251-4.591,0.377-6.73c0.063-2.704,0.125-5.409-0.313-8.176c0,0,0-0.063,0.062-0.126
				c0.252-0.314,0.691-0.125,1.068-0.063l6.605,0.126c0.063,0,0.063,0.063,0.125,0.063c0.189,0.377,0.125,0.817,0,1.195
				c-0.314,1.006-0.125,1.824,0.628,2.516c0.19,0.125,0.314,0.44,0.442,0.566c0.753,0.881,1.446,0.881,1.759,0.063
				c0.063-0.126,0.063-0.252,0.128-0.441c0.125-1.069,0.251-2.201,0.438-3.333c0-0.188,0.063-0.377,0.063-0.692
				C261.587,225.216,261.273,224.776,260.708,224.587z"/>
			<path d="M282.905,224.587c-0.563-0.063-1.067-0.188-1.571-0.314c-0.438-0.063-0.754-0.125-1.193-0.125l-7.611-0.125
				c-0.942-0.126-1.887-0.063-2.768,0.063c-0.504,0.126-0.942,0.126-1.447,0.188c-0.816,0.126-1.573,0.314-2.391,0.441
				c-0.313,0.188-0.565,0.44-0.627,0.754c-0.064,0.629,0,1.258,0.251,1.824c0.125,0.378,0.376,0.441,0.691,0.441
				c0.314,0,0.565-0.063,0.693-0.504c0.063-0.188,0.123-0.44,0.251-0.691c0.063-0.188,0.376-0.314,0.629-0.188
				c0.126,0.063,0.313,0.251,0.313,0.377c0,0.503-0.126,1.132-0.126,1.699c0.126,1.194-0.062,2.39-0.188,3.647
				c-0.189,2.768-0.314,5.535-0.441,8.428c-0.063,1.636-0.063,3.208-0.188,4.843c-0.314,4.277-0.502,8.491-0.251,12.642v1.069
				c0,0.314,0.376,0.629,0.123,1.069c-0.374,0.189-0.753,0.126-1.193,0.063h-1.319c-0.127,0-0.314,0.126-0.314,0.251
				c-0.063,0.251,0,0.566,0.123,0.754c0.252,0.126,0.443,0.252,0.693,0.314c1.321,0.504,2.768,0.755,4.148,0.755
				c1.449,0.063,2.959-0.126,4.467-0.189c0.817-0.063,1.637-0.063,2.518-0.188c0.439,0,0.88,0,1.32,0.063
				c1.383,0.188,2.831,0.125,4.214,0c0.315-0.063,0.565-0.126,0.755-0.377c0.377-0.378,0.63-1.006,0.754-1.573l0.191-2.013
				c0.06-0.566-0.128-0.881-0.568-1.195c-0.189-0.063-0.377-0.188-0.566-0.251c-0.314-0.189-0.692-0.063-0.816,0.314l-0.379,1.384
				c-0.123,0.44-0.378,0.692-0.753,0.754c-0.378,0.063-0.755,0.188-1.134,0.188l-2.138,0.189c-1.067,0-2.265,0.063-3.397,0.063
				c-0.565,0-1.067-0.125-1.635-0.188c-0.315-1.321-0.502-2.516-0.438-3.837c0-0.755,0.123-1.635,0.063-2.453
				c-0.063-2.831,0.251-5.661,0.502-8.428c0.063-0.315,0.126-0.692,0.44-0.881c0.565,0,1.195,0.189,1.823,0.252
				c0.691,0.125,1.32,0.125,1.889,0.125c0.123,0.251,0.188,0.251,0.188,0.377c0.188,1.195,0.881,1.699,1.697,2.201
				c0.504,0.44,1.006,0,1.006-0.691c0-0.252,0-0.566-0.063-0.818c0-0.88-0.06-1.698-0.188-2.516
				c-0.063-0.377-0.251-0.817-0.378-1.258c-0.188-0.503-0.502-0.691-1.007-0.88c-0.627-0.251-1.004,0.063-1.195,0.817v0.252
				c-0.123,0.251-0.251,0.503-0.374,0.566c-1.009,0.188-1.951,0.314-2.959,0.188c-0.377-0.063-0.564-0.252-0.564-0.817v-0.504
				c0.126-2.327,0.252-4.591,0.377-6.73c0.063-2.704,0.125-5.409-0.314-8.176c0,0,0-0.063,0.063-0.126
				c0.251-0.314,0.691-0.125,1.067-0.063l6.605,0.126c0.063,0,0.063,0.063,0.125,0.063c0.189,0.377,0.126,0.817,0,1.195
				c-0.314,1.006-0.125,1.824,0.628,2.516c0.191,0.125,0.315,0.44,0.442,0.566c0.753,0.881,1.444,0.881,1.76,0.063
				c0.063-0.126,0.063-0.252,0.127-0.441c0.124-1.069,0.251-2.201,0.438-3.333c0-0.188,0.063-0.377,0.063-0.692
				C283.786,225.216,283.472,224.776,282.905,224.587z"/>
			<path d="M313.912,224.524c-0.124-0.125-0.315-0.314-0.502-0.377c-0.881-0.252-1.888-0.188-2.832-0.063
				c-0.251,0.063-0.502,0.126-0.814,0.126c-1.134,0-2.078,0.377-3.146,0.566c-0.378,0.125-0.629,0.252-0.881,0.503
				c-0.252,0.314-0.188,0.755,0.188,0.818c0.189,0.126,0.379,0.126,0.566,0.126c0.378,0.126,0.506,0.314,0.565,0.754
				c-0.06,0.064-0.06,0.126-0.06,0.252c-0.442,10.881-0.442,12.139-0.379,13.271c-0.063,0.629,0,1.195,0,1.698
				c0,0.566-0.063,1.069,0,1.573c0.064,2.515-0.063,4.968-0.063,7.421c0,0.188-0.063,0.314-0.126,0.817l-0.504-0.754
				c-0.439-0.944-0.942-2.013-1.385-2.894c-0.313-0.692-0.502-1.446-0.816-2.138c-0.313-0.629-0.564-1.447-0.942-2.202
				c-0.438-0.943-2.64-6.227-3.397-7.422c-1.257-1.95-2.201-4.025-3.019-6.164c-0.565-1.635-1.385-3.082-2.201-4.591
				c-0.879-1.824-1.76-0.755-2.955-1.006l-2.517,0.189c-0.942,0-1.134,0.817-1.32,1.006c-0.44,0.629-0.064,1.572,1.006,1.509
				c0.251,0,0.504-0.063,0.691-0.063c0.44,0.063,0.629,0.314,0.629,0.692c0,1.006,0.063,2.013,0.063,2.956
				c0,2.956-0.124,5.975-0.314,8.932c-0.188,2.201-0.439,4.465-0.188,6.604l-0.064,0.314c-0.125,1.824-0.188,3.648-0.188,5.472
				c0,1.699-0.125,3.397-0.188,5.095c0,0.88,0,1.572-0.126,2.264c-0.44,0.377-0.942,0.629-1.193,0.88
				c-0.379,0.377-1.385,0.566-1.512,0.755c-0.124,0.188,0,0.566,0.189,0.692c0.188,0.188,0.439,0.188,0.692,0.188
				c0.315-0.063,0.689-0.188,1.132-0.251c0.754-0.188,1.509-0.188,2.325,0c1.134,0.314,2.015-0.315,2.078-1.509
				c0.06-1.07,0.251-1.95,0.124-3.019v-0.566c0.127-1.195,0.251-2.264,0.314-3.459c0.127-2.327,0.251-4.654,0.314-7.044
				c0.128-2.39,0.189-4.717,0.189-7.17c0.063-2.013,0.189-4.025,0.314-5.975c0-0.063,0.126-0.188,0.252-0.315
				c0.314,0.566,0.693,1.07,0.881,1.762c0.755,1.509,1.446,3.082,2.201,4.591c0.502,1.006,0.944,2.012,1.446,3.019
				c0.879,1.824,1.76,3.711,2.453,5.66l3.646,9.813c0.568,0.88,1.323,1.761,1.951,2.705c0.314,0.503,0.757,0.817,1.448,0.817
				c0.628,0.063,1.004-0.125,1.195-0.692c0.188-0.377,0.689-5.409,0.753-7.799c0-1.195-0.314-2.517,0.691-13.208l0.189-4.088
				c0-1.069-0.125-2.075-0.125-3.145c-0.064-0.44,0-0.818,0-1.321c-0.315-1.698,0.189-3.459-0.252-5.095
				c0.188-0.063,0.315-0.126,1.319-0.063c0.819-0.126,1.385-0.378,1.887-0.692C313.848,225.153,314.039,224.839,313.912,224.524z"/>
		</g>
		<g>
			<path d="M181.871,303.375c-5.234,10.286-11.181,6.842-11.495-1.834c-0.134-1.521-0.224-22.765,4.605-30.188
				c2.237-3.443,6.8-0.403,5.323,4.293c-0.939,2.952,1.877,2.773,2.191,1.789c1.252-4.249-1.029-10.6-7.781-9.124
				c-10.824,2.37-19.187,42.845-2.462,44.456c3.224,0.313,6.039-0.358,8.766-3.623C186.88,302.123,182.272,302.57,181.871,303.375z"
				/>
			<path d="M288.52,289.415c-4.785,12.209-10.377,19.589-13.775,19.142c-3.173-0.402-2.639-7.692-2.639-14.401
				c6.084-1.7,9.618-13.596,3.355-13.686c-5.508-0.063-8.731,6.357-9.365,13.252c-4.328,9.609-8.986,15.226-11.964,14.834
				c-3.177-0.402-2.64-7.692-2.64-14.401c6.083-1.7,9.615-13.596,3.354-13.686c-4.998-0.057-8.105,5.226-9.114,11.355
				c-4.43,4.047-11.969,4.778-14.542,3.797h-0.046c0.313-3.563,0.672-6.69,1.162-9.183c12.076-9.896,9.527-18.763,7.291-20.029
				c-2.057-1.148-5.5,0.356-8.05,5.502c-2.274,4.623-4.146,11.591-5.182,19.256c-4.297,4.626-12.501,5.486-15.21,4.454h-0.043
				c0.313-3.563,0.67-6.69,1.161-9.183c12.076-9.896,9.528-18.763,7.29-20.029c-2.057-1.148-5.5,0.356-8.051,5.502
				c-2.161,4.396-3.961,10.909-5.025,18.127c-1.464,1.259-4.012,1.944-5.792,1.79c0.178-5.188-1.253-10.063-4.429-10.868
				c-11.316-2.773-17.844,20.975-5.143,24.15c5.678,1.432,8.899-5.188,9.48-11.852c1.912,0.094,3.862-0.29,5.632-1.409
				c-0.808,6.316-1.041,13.069-0.448,19.367c0.628,6.689,2.685,12.192,8.366,12.785c7.868,0.792,7.647-15.438-1.97-26.679
				c4.412,0.819,10.176-1.023,13.928-4.12c-0.672,5.921-0.842,12.164-0.289,18.014c0.625,6.689,2.682,12.192,8.361,12.785
				c7.872,0.792,7.648-15.438-1.968-26.679c4.156,0.771,9.52-0.814,13.263-3.589c-0.717,7.826,1.9,16.26,8.292,16.521
				c3.322,0.142,8.009-4.453,12.236-12.911c0.269,6.608,2.967,12.689,8.378,12.911c4.205,0.179,10.599-7.201,15.476-20.439
				C290.489,288.118,288.744,288.833,288.52,289.415z M277.071,282.706c0.626,1.118-1.163,8.632-4.919,9.929
				C272.33,288.386,275.953,280.784,277.071,282.706z M256.455,282.706c0.628,1.118-1.16,8.632-4.919,9.929
				C251.716,288.386,255.337,280.784,256.455,282.706z M238.033,268.39c1.968-2.691,4.963,7.64-5.994,16.665
				C232.666,280.661,235.528,271.833,238.033,268.39z M217.998,268.39c1.969-2.691,4.966,7.64-5.99,16.665
				C212.633,280.661,215.495,271.833,217.998,268.39z M192.913,303.234c-3.177-0.313-2.906-9.75-0.716-15.608
				c1.253,2.952,3.891,4.786,6.662,5.412C198.236,298.181,196.088,303.414,192.913,303.234z M198.997,291.517
				c-2.552-0.805-4.919-2.907-5.904-5.858c0.895-1.611,1.966-2.594,3.22-2.594C198.502,283.154,199.308,287.09,198.997,291.517z
				 M212.9,319.848c-1.967-5.621-3.174-13.182-2.146-21.77C223.723,314.029,216.166,328.793,212.9,319.848z M232.935,319.848
				c-1.968-5.621-3.177-13.182-2.147-21.77C243.758,314.029,236.2,328.793,232.935,319.848z"/>
		</g>
		<g>
			<path d="M185.013,347.474l-1.57-0.189c-0.378,0.566-0.693,1.069-0.882,1.446c-0.375,0.692-1.068,1.258-1.698,1.51l1.95-0.251
				c-1.32,0.377-2.705,0.377-4.024,0.504c-0.567,0.125-1.006,0.063-1.448,0.251c-0.816,0.251-1.572,0.503-2.264,0.88
				c-0.881,0.252-1.572,0.755-2.14,1.384c-0.374,0.314-0.753,0.818-0.817,1.384c-0.063,0.314-0.123,0.692,0.128,1.006
				c0.377,0.314,0.565-0.188,0.817-0.314c0.251-0.125,0.439-0.315,0.627-0.44c0.315-0.314,0.442-0.629,0.693-0.754
				c1.195-0.755,2.453-1.51,3.836-1.698h0.189c0.189-0.063,0.378,0.251,0.251,0.377c-0.126,0.314-0.315,0.817-0.315,1.321
				c-0.376,2.705-0.942,5.975-5.783,9.749c-0.881,0.629-1.951,0.88-3.021,1.257c-0.88,0.252-1.824,0.189-2.454-0.88
				c-0.124-0.377-1.13-2.139-1.257-2.642c-0.375-1.824-0.566-3.459-0.188-5.157c0.251-1.006,0.565-1.95,1.069-2.768
				c0.817-1.509,1.949-2.705,3.206-3.9c0.314-0.251,0.693-0.44,1.07-0.691c1.446-0.881,3.019-1.698,4.402-2.454
				c0.691-0.188,1.133-0.754,1.447-1.257c0.502-0.504,0.314-1.07,0.063-1.635c-0.128-0.441-0.693-0.378-1.069-0.441l-0.441,0.063
				l-5.094-0.44c-1.008-0.126-1.825-0.565-2.832-1.006c-0.123-0.063-0.187-0.125-0.314-0.251l-0.314-0.692
				c-0.879-2.768,1.699-11.573,10.755-9.371c0.379,0.125,0.755,0.314,1.385,0.314c0.188-0.063,0.379-0.125,0.442-0.314
				c0-0.063-0.063-0.315-0.128-0.378c-0.378-0.44-0.816-0.692-1.195-1.069c-1.006-1.195-3.961-3.648-7.422-2.391
				c-0.563,0.252-1.069,0.315-1.761,0.629l-1.132,0.629c-1.636,1.258-2.896,2.768-3.773,4.528c-0.44,0.818-0.753,1.635-1.007,2.453
				c-0.567,2.076-0.376,3.963,0.189,6.038c0.188,0.943,0.691,1.572,1.385,2.076c0.753,0.692,1.508,1.132,2.389,1.384
				c0.379,0.188,0.693,0.377,1.068,0.439c-0.123,0.378-0.375,0.504-0.63,0.692c-0.187,0.315-0.628,0.378-0.942,0.755
				c-1.004,1.007-1.948,2.076-2.642,3.396c-1.007,1.886-1.07,2.578-1.193,3.333c-0.191,1.195-0.442,3.899-0.063,5.409
				c0.502,2.139,1.32,4.151,2.767,5.724l0.315,0.314c2.201,2.327,5.911,2.768,10.816-0.503c2.896-1.887,4.089-4.214,5.284-9.498
				c0.314-1.635,0.314-1.698-0.063-3.082c0.441-0.189,0.881-0.314,1.385-0.504c0.565-0.188,1.067-0.502,1.51-1.131
				c0.314-0.44,0.816-1.07,1.132-1.698C186.082,348.292,185.832,347.6,185.013,347.474z"/>
			<path d="M225.754,328.128c-0.689-0.188-1.318-0.188-1.885-0.251c-1.257-0.063-4.592,0-3.648,1.069
				c0.254,0.314,0.628,0.566,0.819,0.629c0.251,0.125,0.502,0.314,0.817,0.377c-0.315,0.881-0.502,1.824-0.817,2.642
				c-0.128,0.566-0.314,1.006-0.442,1.636c-0.377,2.453-0.942,4.654-1.508,6.918c-0.442,2.013-0.881,3.837-1.385,5.598
				c-0.566,2.013-0.944,4.025-1.383,5.976c-0.188,0.629-0.251,1.258-0.63,1.823c-0.376-0.502-0.314-1.006-0.376-1.509l-2.643-13.334
				l-0.251-1.321c-0.819-2.139-1.511-1.635-3.587-1.635c-0.69,0-0.816,1.887-1.006,2.767c-0.062,0.314-0.314,0.943-0.502,1.258
				l-2.329,8.24c-0.817,2.138-1.634,4.277-2.389,6.479c-0.063,0.188-0.188,0.314-0.379,0.628c-0.187-0.691-0.314-1.32-0.314-1.824
				c0-2.076-0.251-3.899-0.375-5.975c-0.19-1.573-0.253-3.083-0.378-4.78c-0.189-1.95-0.315-4.025-0.566-6.038
				c-0.063-1.069-0.251-2.201-0.504-3.27c-0.123-1.258-0.251-2.391-0.438-3.775c0.124-0.125,0.315-0.502,0.377-0.817
				c0.251-0.314,0.062-0.881-0.313-0.881c-0.314-0.125-0.629-0.125-0.883-0.251l-4.026-0.189l-0.753-0.189
				c-0.379,0-0.565,0.126-0.691,0.504c-0.127,0.377,0.126,0.692,0.377,0.88c0.251,0.252,0.565,0.252,0.944,0.44
				c0.63,0.188,0.753,0.377,0.753,0.881c0,1.509,0.818,9.245,1.006,11.635c0.189,3.271,0.315,6.73,0.566,10.001
				c0.127,1.823,0.314,3.647,0.629,5.346c0.252,2.138,0.691,4.339,1.195,6.541c0.189,1.635,1.135,2.327,2.264,2.768
				c0.252,0.188,0.566,0,0.758-0.314c0.06-0.252,0.188-0.441,0.251-0.692c0.251-1.321,0.753-2.642,1.257-3.963
				c0.693-1.446,1.195-2.957,1.634-4.717c0.379-1.195,0.693-2.453,1.197-3.585c0.63-1.636,1.258-3.208,1.634-5.032
				c0.126-0.692,0.315-1.509,0.504-2.138l0.566-3.271c0-0.063,0.123-0.189,0.188-0.252c0.127,0.063,0.191,0.126,0.191,0.189
				c1.508,5.976,2.074,9.12,2.452,11.195c0.502,2.831,1.132,6.353,2.074,9.057c0.378,1.321,1.195,2.265,1.572,2.705
				c0.378,0.503,0.944,0.188,1.132-0.44c0.251-0.692,0.378-1.195,0.504-1.698c0.691-2.013,1.32-4.717,1.574-6.918
				c0.06-0.251,0.06-0.566,0.187-0.817c0.44-1.573,0.817-3.019,1.07-4.466c0.126-0.943,0.376-2.013,0.691-2.83
				c0.313-1.258,0.755-2.642,1.069-3.9c0.124-0.565,0.124-0.943,0.188-1.257c0.252-1.448,0.504-2.768,0.756-3.9
				c0.378-1.446,1.259-7.422,1.95-9.812c0-0.063,0.942-0.126,1.57-0.503C226.699,329.324,227.014,328.507,225.754,328.128z"/>
			<path d="M238.079,329.387c-0.376-0.125-0.627-0.314-0.942-0.251c-1.008-0.125-2.014-0.314-2.895-0.251
				c-1.258,0-2.453,0.188-3.584,0.314c-0.566,0-0.943,0.251-1.385,0.692c-0.188,0.188-0.124,0.691,0.127,0.817
				c0.438,0.126,0.816,0.251,1.132,0.188h1.636v1.95c-0.127,0.628-0.188,1.257-0.188,2.012c-0.191,2.201-0.255,4.591-0.314,6.73
				c0,0.88-0.128,1.635-0.128,2.453c-0.063,2.013-0.063,4.088-0.125,6.038c-0.062,2.516,0.125,5.031,0.125,7.547
				c0,1.51-0.063,3.083,0,4.529c0,0.817-0.125,1.509-0.378,2.264c-0.124,0.378-0.313,0.755-0.691,0.755l-1.195,0.377
				c-0.063,0.125-0.063,0.377,0,0.502c0.19,0.441,0.757,0.693,1.322,0.693c0.756-0.063,2.578,0.063,3.332,0.063
				c0.565-0.126,1.133,0,1.635-0.189c0.254-0.063,0.566-0.125,0.817-0.251c0.128-0.188,0.255-0.315,0.191-0.566l-0.442-0.314
				c-0.377-0.063-0.753,0.125-1.193-0.126c0.125-0.126,0.188-0.377,0.125-0.503c0.063-0.754,0.252-1.384,0.315-2.013
				c0.062-0.629,0-1.32-0.063-1.95l-0.063-5.032c0.063-1.069,0.063-2.076,0.126-3.082c0.062-1.321,0-2.767,0-4.088
				c0.062-1.698,0.187-3.333,0.251-5.032c0.063-0.881,0.125-1.824,0.125-2.768c0-1.258,0-2.579,0.189-3.899
				c0.126-0.44,0.064-0.881,0.064-1.195c0.062-0.44,0-0.817,0.062-1.195c0.125-0.566,0.062-1.069,0.125-1.635
				c-0.063-0.315-0.063-0.754,0-1.195c-0.063-0.817,0.063-0.88,1.068-0.943c0.191,0,0.378,0.063,0.567,0.063
				c0.126,0,0.314-0.188,0.44-0.188c0.377-0.126,0.564-0.755,0.251-1.006C238.395,329.576,238.205,329.387,238.079,329.387z"/>
			<path d="M268.898,329.01c-0.881-0.252-1.887-0.189-2.831-0.063c-0.251,0.063-0.503,0.125-0.817,0.125
				c-1.134,0-2.076,0.377-3.144,0.566c-0.379,0.126-0.63,0.252-0.881,0.503c-0.253,0.314-0.191,0.755,0.188,0.818
				c0.187,0.125,0.378,0.125,0.565,0.125c0.379,0.126,0.504,0.315,0.566,0.754c-0.063,0.064-0.063,0.126-0.063,0.252
				c-0.44,10.881-0.44,12.139-0.376,13.271c-0.064,0.629,0,1.195,0,1.698c0,0.566-0.064,1.069,0,1.573
				c0.062,2.515-0.064,4.968-0.064,7.421c0,0.189-0.063,0.315-0.127,0.817l-0.502-0.754c-0.44-0.943-0.942-2.012-1.385-2.893
				c-0.313-0.692-0.503-1.446-0.817-2.138c-0.314-0.629-0.565-1.447-0.942-2.202c-0.44-0.943-2.642-6.227-3.397-7.422
				c-1.257-1.95-2.201-4.025-3.018-6.164c-0.566-1.635-1.385-3.082-2.202-4.591c-0.881-1.824-1.761-0.755-2.954-1.006l-2.518,0.189
				c-0.943,0-1.133,0.817-1.32,1.006c-0.442,0.629-0.063,1.572,1.006,1.509c0.251,0,0.502-0.063,0.691-0.063
				c0.44,0.063,0.628,0.314,0.628,0.692c0,1.006,0.063,2.013,0.063,2.956c0,2.956-0.123,5.975-0.314,8.932
				c-0.188,2.201-0.438,4.465-0.188,6.604l-0.063,0.314c-0.126,1.824-0.188,3.648-0.188,5.472c0,1.699-0.128,3.397-0.191,5.095
				c0,0.88,0,1.572-0.124,2.264c-0.439,0.377-0.943,0.628-1.195,0.88c-0.376,0.377-1.385,0.566-1.51,0.755s0,0.566,0.189,0.692
				c0.188,0.188,0.438,0.188,0.693,0.188c0.314-0.063,0.689-0.188,1.131-0.251c0.754-0.188,1.509-0.188,2.326,0
				c1.133,0.314,2.014-0.315,2.076-1.509c0.062-1.07,0.252-1.95,0.125-3.019v-0.566c0.127-1.195,0.251-2.264,0.314-3.458
				c0.126-2.328,0.252-4.655,0.315-7.045c0.125-2.39,0.188-4.717,0.188-7.17c0.063-2.013,0.188-4.025,0.315-5.975
				c0-0.063,0.124-0.188,0.251-0.315c0.314,0.566,0.691,1.07,0.881,1.762c0.755,1.509,1.444,3.082,2.201,4.591
				c0.502,1.006,0.942,2.012,1.445,3.019c0.88,1.824,1.763,3.711,2.452,5.66l3.648,9.813c0.567,0.88,1.321,1.761,1.95,2.705
				c0.314,0.502,0.755,0.817,1.448,0.817c0.626,0.063,1.005-0.125,1.196-0.692c0.187-0.377,0.689-5.409,0.753-7.799
				c0-1.195-0.315-2.517,0.691-13.208l0.187-4.088c0-1.069-0.123-2.075-0.123-3.145c-0.063-0.44,0-0.818,0-1.321
				c-0.314-1.698,0.188-3.459-0.251-5.095c0.188-0.063,0.314-0.126,1.319-0.063c0.818-0.126,1.385-0.378,1.887-0.692
				c0.251-0.125,0.441-0.44,0.314-0.755C269.277,329.261,269.086,329.072,268.898,329.01z"/>
			<path d="M287.575,334.607c0.189,0.125,0.313,0.44,0.44,0.566c0.753,0.881,1.446,0.881,1.762,0.063
				c0.062-0.126,0.062-0.251,0.125-0.44c0.126-1.069,0.251-2.201,0.438-3.333c0-0.188,0.063-0.377,0.063-0.692
				c-0.063-0.692-0.376-1.132-0.942-1.321c-0.565-0.063-1.067-0.188-1.573-0.314c-0.439-0.063-0.754-0.125-1.193-0.125l-7.609-0.125
				c-0.945-0.126-1.889-0.063-2.768,0.063c-0.506,0.125-0.944,0.125-1.449,0.188c-0.816,0.126-1.571,0.314-2.389,0.441
				c-0.314,0.188-0.565,0.44-0.629,0.754c-0.064,0.629,0,1.258,0.251,1.824c0.127,0.377,0.378,0.44,0.691,0.44
				c0.314,0,0.565-0.063,0.692-0.503c0.064-0.188,0.124-0.44,0.252-0.692c0.063-0.188,0.378-0.315,0.629-0.188
				c0.126,0.063,0.315,0.251,0.315,0.377c0,0.503-0.128,1.132-0.128,1.698c0.128,1.195-0.062,2.39-0.188,3.648
				c-0.189,2.768-0.314,5.535-0.441,8.428c-0.061,1.635-0.061,3.207-0.188,4.843c-0.315,4.277-0.502,8.491-0.252,12.642v1.069
				c0,0.314,0.379,0.629,0.124,1.069c-0.374,0.189-0.753,0.126-1.193,0.063h-1.319c-0.127,0-0.314,0.125-0.314,0.251
				c-0.063,0.252,0,0.566,0.123,0.754c0.252,0.127,0.443,0.252,0.693,0.315c1.321,0.503,2.768,0.755,4.152,0.755
				c1.445,0.063,2.955-0.126,4.463-0.189c0.817-0.063,1.637-0.063,2.517-0.188c0.442,0,0.881,0,1.321,0.063
				c1.383,0.188,2.831,0.125,4.214,0c0.315-0.063,0.565-0.126,0.755-0.377c0.377-0.378,0.63-1.006,0.756-1.573l0.189-2.013
				c0.062-0.566-0.128-0.881-0.568-1.195c-0.188-0.063-0.377-0.189-0.566-0.252c-0.314-0.188-0.693-0.063-0.816,0.315l-0.379,1.384
				c-0.123,0.44-0.376,0.692-0.753,0.755c-0.376,0.063-0.755,0.188-1.134,0.188l-2.138,0.189c-1.067,0-2.265,0.063-3.397,0.063
				c-0.565,0-1.067-0.125-1.635-0.188c-0.315-1.321-0.503-2.516-0.439-3.837c0-0.755,0.124-1.635,0.064-2.453
				c-0.064-2.831,0.251-5.661,0.502-8.428c0.063-0.315,0.127-0.692,0.44-0.881c0.565,0,1.195,0.189,1.825,0.252
				c0.689,0.125,1.318,0.125,1.887,0.125c0.123,0.251,0.188,0.251,0.188,0.377c0.188,1.195,0.881,1.699,1.697,2.202
				c0.504,0.44,1.006,0,1.006-0.692c0-0.251,0-0.566-0.063-0.818c0-0.88-0.06-1.698-0.188-2.516
				c-0.063-0.377-0.251-0.817-0.378-1.258c-0.188-0.503-0.502-0.692-1.007-0.88c-0.626-0.251-1.004,0.063-1.195,0.817v0.252
				c-0.124,0.251-0.251,0.503-0.374,0.566c-1.007,0.189-1.951,0.314-2.957,0.189c-0.379-0.063-0.566-0.252-0.566-0.817v-0.504
				c0.126-2.327,0.252-4.591,0.377-6.729c0.063-2.705,0.125-5.409-0.313-8.177c0,0,0-0.063,0.062-0.126
				c0.251-0.315,0.691-0.125,1.067-0.063l6.605,0.126c0.063,0,0.063,0.063,0.125,0.063c0.189,0.377,0.126,0.817,0,1.195
				C286.631,333.098,286.82,333.916,287.575,334.607z"/>
		</g>
	</g>
	<path fill="#C87B33" d="M284.777,104.067c0.322-1.41,0.678-2.813,1.049-4.208c0.192-0.741,0.726-1.416,1.396-1.794
		c0.259-0.147,0.563-0.219,0.847-0.297c0.646-0.172,1.336-0.299,1.984-0.393c0.506-0.072,1.017-0.047,1.526-0.076
		c0.944-0.062,1.885-0.13,2.831-0.176c1.35-0.063,2.705-0.008,4.042,0.16c0.606,0.08,1.211,0.147,1.771,0.409
		c0.512,0.243,0.974,0.585,1.36,0.998c0.245,0.264,0.328,0.671,0.454,1.018c0.133,0.38,0.268,0.767,0.382,1.156
		c0.585,2.042,1.182,4.088,1.719,6.147c0.678,2.605,1.253,5.225,1.29,7.943c0.025,1.966-0.354,3.839-1.217,5.597
		c-0.442,0.9-0.925,1.791-1.63,2.522c-1.155,1.194-2.379,2.285-3.977,2.871c-0.376,0.138-0.724,0.373-1.106,0.474
		c-0.458,0.124-0.678,0.431-0.771,0.838c-0.101,0.422-0.203,0.869-0.186,1.302c0.073,1.969,0.182,3.934,0.28,5.903
		c0.18,3.416,0.352,6.831,0.533,10.245c0.111,2.086,0.241,4.173,0.359,6.261c0.052,0.924,0.092,1.845,0.156,2.766
		c0.069,1.097,1.055,1.837,2.112,2.302c0.581,0.255,1.188,0.427,1.677,0.536c1.099,0.23,2.199,0.473,3.301,0.678
		c0.757,0.141,1.314,0.559,1.805,1.115c0.541,0.612,0.474,1.295-0.188,1.716c-0.237,0.154-0.476,0.324-0.736,0.406
		c-1.415,0.446-2.79,1.043-4.283,1.197c-1.197,0.121-2.396,0.227-3.596,0.315c-0.96,0.066-1.924,0.134-2.888,0.134
		c-1.126,0.003-2.258-0.017-3.376-0.12c-1.315-0.122-2.634-0.27-3.92-0.619c-0.81-0.218-1.468-0.638-2.009-1.264
		c-0.237-0.276-0.253-0.582-0.106-0.898c0.232-0.509,0.673-0.796,1.147-1.026c1.695-0.826,3.463-1.318,5.305-1.679
		c0.721-0.144,1.524-0.306,2.154-0.704c0.933-0.589,0.811-1.257,0.761-2.261c-0.045-0.92-0.006-1.845-0.008-2.771
		c-0.002-0.361,0.004-0.724-0.02-1.083c-0.099-1.484-0.237-2.968-0.312-4.456c-0.202-4.381-0.39-8.759-0.575-13.141
		c-0.06-1.408-0.087-2.817-0.143-4.223c-0.021-0.556-0.162-0.749-0.651-0.882c-0.695-0.185-1.391-0.392-2.095-0.499
		c-0.458-0.065-0.855-0.217-1.232-0.446c-1.657-1.01-3.212-2.156-4.429-3.683c-0.751-0.947-1.431-1.977-1.695-3.165
		c-0.488-2.204-0.772-4.439-0.451-6.703C283.813,109.689,284.142,106.85,284.777,104.067z"/>
	<path fill="#C87B33" d="M296.305,284.157c0.162-5.935,2.402-12.721,8.461-14.964c5.441-2.013,12.381,0.476,15.091,5.663
		c2.521,4.823,1.751,11.577-2.69,15.034c-3.558,2.77-8.576,2.536-11.3-1.256c-3.31-4.606-0.496-12.075,5.778-11.474
		c3.236,0.312,5.635,2.934,5.44,6.159c-0.168,2.833-5.993,5.472-7.36,2.28c-0.486-1.136,0.143-2.619,1.298-3.057
		c1.155-0.439,2.611,0.251,3.001,1.426c0.782-1.741-0.27-3.995-2.045-4.702c-1.774-0.704-3.947,0.066-5.071,1.61
		c-1.122,1.548-1.23,3.701-0.489,5.459c1.234,2.918,4.721,4.579,7.76,3.725c6.281-1.764,6.441-11.517,2.852-15.768
		c-1.787-2.114-4.576-3.341-7.341-3.229c-8.326,0.338-11.032,10.161-10.591,17.023c0.237,3.73,1.433,7.388,3.406,10.561
		c1.051,1.689,2.051,3.535,3.562,4.867c1.705,1.512,3.221,1.128,5.185,1.79c3.909,1.316,6.7,6.959,7.441,10.677
		c2.513,12.609-8.592,19.974-16.855,26.874c-4.881,4.076-6.347,12.282-1.09,16.617c1.029,0.851,2.057,1.303,3.324,1.538
		c1.012,0.186,2.074-0.156,2.707,0.957c0.422,0.741,0.093,2.008-0.525,2.561c-1.021,0.908-1.896,0.314-2.983-0.269
		c-2.095-1.122-3.921-2.754-5.247-4.729c-2.432-3.614-2.941-8.733-1.794-12.875c1.837-6.623,10.405-8.929,14.532-13.914
		c4.409-5.327,6.479-12.44,4.608-19.209c-1.095-3.956-4.894-7.562-7.426-6.918c3.728,4.832,5.52,10.01,0.038,14.443
		c-5.459,4.419-9.457-4.63-9.119-8.765c0.34-4.171,4.537-8.155,5.225-7.237C299.468,298.904,296.09,291.99,296.305,284.157z
		 M305.053,306.838c-4.443-0.845-5.457,9.77-2.101,11.772c2.444,1.46,3.737-0.851,4.349-2.841c0.693-2.255,0.744-5.118-0.316-7.289
		c-0.352-0.72-0.954-1.358-1.711-1.588C305.202,306.871,305.129,306.854,305.053,306.838z"/>
	<path fill="#C87B33" d="M151.942,94.444c0.562-0.739,3.936,2.518,4.181,5.898c0.245,3.352-3.055,10.653-7.447,7.036
		c-4.408-3.628-2.922-7.81,0.132-11.697c-2.045-0.54-5.148,2.355-6.063,5.552c-1.563,5.469,0.062,11.246,3.597,15.591
		c3.31,4.066,10.233,5.994,11.676,11.371c0.9,3.363,0.452,7.505-1.543,10.417c-1.087,1.59-2.578,2.899-4.281,3.794
		c-0.887,0.465-1.6,0.939-2.42,0.197c-0.496-0.452-0.754-1.48-0.408-2.078c0.521-0.896,1.379-0.613,2.2-0.756
		c1.027-0.182,1.864-0.541,2.702-1.223c4.289-3.475,3.159-10.132-0.768-13.466c-6.645-5.646-15.586-11.688-13.464-21.885
		c0.626-3.006,2.926-7.557,6.101-8.596c1.596-0.522,2.821-0.201,4.212-1.413c1.234-1.069,2.057-2.557,2.918-3.918
		c1.62-2.557,2.615-5.511,2.833-8.531c0.406-5.555-1.719-13.53-8.459-13.861c-2.24-0.11-4.507,0.864-5.969,2.564
		c-2.938,3.417-2.876,11.318,2.199,12.791c2.457,0.712,5.292-0.608,6.31-2.963c0.614-1.419,0.543-3.164-0.355-4.425
		c-0.899-1.259-2.655-1.897-4.098-1.34c-1.442,0.561-2.31,2.38-1.688,3.795c0.322-0.949,1.509-1.498,2.439-1.134
		c0.933,0.363,1.434,1.568,1.031,2.485c-1.13,2.576-5.828,0.398-5.944-1.898c-0.138-2.614,1.825-4.721,4.448-4.951
		c5.086-0.443,7.313,5.625,4.6,9.334c-2.232,3.052-6.298,3.207-9.162,0.938c-3.572-2.831-4.148-8.307-2.074-12.195
		c2.23-4.182,7.868-6.15,12.262-4.481c4.895,1.858,6.661,7.371,6.75,12.179C158.508,83.918,155.724,89.494,151.942,94.444z
		 M150.967,95.924c-0.614,0.181-1.108,0.694-1.396,1.274c-0.873,1.751-0.854,4.07-0.309,5.901c0.484,1.617,1.514,3.498,3.505,2.332
		c2.732-1.599,1.985-10.204-1.62-9.55C151.084,95.894,151.024,95.907,150.967,95.924z"/>
	<g>
		<path fill="#C87B33" d="M157.756,310.145c-1.783-1.663-3.598-2.849-5.545-3.627c-2.774-1.108-5.394-1.797-7.94-2.092
			c0.349-0.184,0.703-0.422,1.059-0.752c2.877-2.675,4.546-5.854,4.962-9.449c0.188-1.628,0.272-3.287,0.354-4.892
			c0.05-0.965,0.1-1.931,0.176-2.964c0.099-1.335,0.2-2.716,0.443-4.034c0.322-1.74,1.18-3.219,2.551-4.397
			c0.894-0.768,1.867-1.488,2.809-2.184l0.568-0.42c0.734-0.546,0.955-1.153,0.655-1.802c-0.318-0.684-1.026-0.935-1.846-0.657
			c-0.262,0.089-0.515,0.212-0.755,0.367c-4.782,3.086-7.125,7.011-7.162,11.998c-0.019,2.374-0.157,4.982-0.425,7.974
			c-0.316,3.539-1.889,6.514-4.674,8.843c-0.211,0.176-0.394,0.387-0.533,0.552l-0.235,0.26l-0.013,0.176
			c-0.036,0.499,0.135,0.946,0.444,1.253c-0.251-0.013-0.502-0.029-0.752-0.034c-0.847-0.016-1.731-0.021-2.639-0.01
			c0.223-0.088,0.432-0.235,0.606-0.456c0.262-0.331,0.449-0.707,0.599-1.032c1.308-2.859,1.678-5.954,1.098-9.199
			c-0.381-2.131-1.086-4.376-2.221-7.066l-0.438-1.026c-0.386-0.903-0.771-1.806-1.128-2.722c-0.647-1.663-0.988-3.235-0.96-4.426
			v-0.01c0.012-2.438,0.484-4.296,0.945-5.792c0.027-0.087,0.135-0.21,0.239-0.33c0.136-0.154,0.289-0.33,0.393-0.552
			c0.15-0.326,0.368-0.94,0.138-1.398c-0.226-0.45-0.85-0.733-1.297-0.738c-0.005,0-0.01,0-0.014,0c-0.563,0-1.064,0.38-1.254,0.543
			c-0.336,0.289-0.529,0.721-0.632,1.032c-1.559,4.689-1.686,8.34-0.412,11.836c0.456,1.253,0.98,2.5,1.487,3.705l0.181,0.429
			c1.091,2.593,1.896,4.806,2.287,7.179c0.469,2.861,0.097,5.429-1.139,7.847l-0.058,0.106c-0.044,0.078-0.086,0.156-0.123,0.237
			c-0.287,0.646-0.109,1.286,0.466,1.671c0.12,0.081,0.242,0.138,0.366,0.18c-2.885,0.079-6.001,0.377-9.123,1.245
			c-2.819,0.784-5.606,2.197-8.771,4.447c-1.507,1.072-2.156,2.513-1.931,4.283c0.112,0.885,0.194,1.774,0.281,2.718l0.074,0.776
			l-0.069-0.004c-0.426-0.028-0.801-0.053-1.176-0.068c-2.924-0.116-4.663,1.003-5.77,3.741c-0.751,1.86-0.938,3.841-1.055,5.552
			c-0.381,5.565,0.048,10.443,1.309,14.912c0.529,1.877,1.324,3.646,2.361,5.259c2.486,3.861,6.681,5.286,11.045,3.735
			c0.069,0.187,0.139,0.379,0.188,0.577c0.357,1.422,0.706,2.846,1.056,4.27l0.467,1.898c0.019,0.075,0.041,0.15,0.063,0.224
			c0.022,0.071,0.045,0.142,0.06,0.216c0.567,2.876,2.401,4.543,5.448,4.955c1.666,0.225,3.176,0.412,4.725,0.412
			c0.039,0,0.078,0,0.117,0c3.625-0.023,6.931-0.381,10.104-1.095c0.788-0.177,1.565-0.464,2.25-0.83
			c1.006-0.538,1.664-1.487,1.902-2.744c0.217-1.144,0.416-2.264,0.468-3.392c0.525-11.209,2.113-22.991,4.854-36.017
			c0.348-1.652,0.568-3.349,0.782-4.989c0.109-0.837,0.219-1.674,0.344-2.509C158.492,311.184,158.29,310.644,157.756,310.145z
			 M121.349,314.546c11.223,5.387,22.352,5.244,33.979-0.436c-0.003,0.065-0.009,0.127-0.018,0.187l-0.169,1.115
			c-0.189,1.261-0.385,2.566-0.649,3.827c-2.653,12.637-4.196,23.884-4.716,34.384c-0.054,1.078-0.186,2.18-0.313,3.245
			l-0.106,0.896c-0.113,0.98-0.64,1.54-1.658,1.76c-4.344,0.943-8.235,1.299-11.889,1.091c-1.017-0.059-2.062-0.277-3.071-0.488
			l-0.398-0.083c-1.102-0.228-1.776-0.877-2.063-1.987c-0.115-0.448-0.244-0.893-0.374-1.338c-0.148-0.513-0.298-1.026-0.425-1.545
			c-1.1-4.504-2.188-9.011-3.272-13.518c-2.25-9.359-3.693-18.646-4.81-26.495v-0.001
			C121.367,314.968,121.356,314.772,121.349,314.546z M153.829,311.635c-0.176,0.071-0.461,0.07-0.666,0.002
			c-0.891-0.3-1.777-0.617-2.663-0.934c-1.029-0.368-2.059-0.735-3.097-1.078c-5.256-1.735-10.875-1.868-16.703-0.393
			c-1.923,0.487-4.398,1.256-6.488,2.901c-0.439,0.347-0.762,0.381-1.185,0.125c-0.176-0.106-0.361-0.199-0.582-0.301
			c2.608-1.806,4.777-2.927,7.013-3.626c3.224-1.009,6.594-1.217,10.052-1.357c3.398-0.139,6.815,0.39,10.416,1.611
			c1.84,0.625,3.362,1.449,4.74,2.574C154.349,311.367,154.093,311.53,153.829,311.635z M117.159,320.403c0.014,0,0.028,0,0.042,0
			c0.39,0.003,0.805,0.04,1.235,0.109c0.943,0.151,0.943,0.151,1.113,1.146l0.083,0.466c0.076,0.426,0.153,0.852,0.205,1.282
			c0.006,0.051,0.004,0.11-0.002,0.175l-0.312-0.04c-1.448-0.195-2.585,0.389-3.295,1.679c-0.319,0.578-0.653,1.266-0.716,1.978
			l-0.027,0.31c-0.121,1.341-0.245,2.728-0.07,4.083c0.334,2.567,0.887,5.165,1.374,7.457c0.389,1.828,1.188,3.566,2.377,5.166
			c1.452,1.957,2.985,2.378,5.076,1.376l0.043,0.158c0.121,0.448,0.241,0.89,0.349,1.335c0.261,1.074,0.155,1.245-0.932,1.517
			c-0.235,0.059-0.479,0.093-0.729,0.103c-2.782,0.111-4.804-0.891-6.155-3.069c-1.041-1.679-1.808-3.519-2.279-5.469
			c-1.102-4.552-1.359-9.284-0.79-14.467c0.145-1.319,0.541-2.618,0.871-3.603C114.996,320.972,115.85,320.403,117.159,320.403z
			 M122.543,343.345c-0.366,0.128-0.602-0.07-1.118-0.724l-0.148-0.187c-0.155-0.192-0.376-0.482-0.498-0.782
			c-0.124-0.309-0.254-0.618-0.384-0.926c-0.384-0.915-0.78-1.86-1.024-2.808c-0.395-1.53-0.673-3.127-0.941-4.672l-0.164-0.934
			c-0.102-0.572-0.158-1.152-0.219-1.766c-0.026-0.268-0.053-0.539-0.083-0.813l0.042-0.453c0.04-0.439,0.081-0.893,0.143-1.345
			c0.034-0.267,0.104-0.542,0.206-0.818c0.166-0.449,0.355-0.72,0.564-0.806c0.209-0.088,0.548-0.026,1.002,0.184
			c0.371,0.172,0.537,0.44,0.655,1.062c0.566,2.956,1.146,5.91,1.724,8.864l0.866,4.429l0.056,0.258
			c0.055,0.241,0.105,0.468,0.082,0.644C123.185,342.654,123.028,343.175,122.543,343.345z"/>
		<path fill="#C87B33" d="M117.683,284.001c0.239,2.356,1.331,4.186,3.243,5.439c0.87,0.57,1.812,1.036,2.722,1.486l0.803,0.401
			c0.411,0.208,0.833,0.398,1.254,0.587c0.722,0.324,1.403,0.629,2.029,1.028c3.219,2.053,4.624,5.008,4.177,8.784l-0.027,0.179
			c-0.025,0.16-0.05,0.319-0.048,0.477c0.005,0.69,0.42,1.205,1.083,1.343c0.102,0.021,0.201,0.032,0.298,0.032
			c0.56,0,1.03-0.342,1.22-0.914c0.164-0.496,0.261-0.972,0.285-1.414c0.261-4.633-1.543-8.239-5.36-10.719
			c-0.761-0.494-1.591-0.874-2.395-1.241c-0.396-0.181-0.791-0.362-1.179-0.557c-0.28-0.141-0.563-0.279-0.845-0.417
			c-0.772-0.377-1.57-0.767-2.303-1.214c-1.314-0.802-2.051-1.952-2.189-3.416c-0.028-0.295-0.06-0.59-0.092-0.886
			c-0.155-1.454-0.302-2.827-0.039-4.214c0.135-0.706-0.178-1.293-0.817-1.532c-0.711-0.269-1.391,0.002-1.73,0.689
			c-0.179,0.362-0.294,0.792-0.325,1.21c-0.03,0.431-0.025,0.864-0.019,1.315l0.077,1.48
			C117.558,282.609,117.611,283.306,117.683,284.001z"/>
	</g>
</g>
</svg>
